<?xml version="1.0" encoding="UTF-8" standalone="no"?>
<svg width="400px" height="276px" viewBox="0 0 400 276" version="1.1" xmlns="http://www.w3.org/2000/svg" xmlns:xlink="http://www.w3.org/1999/xlink">
    <!-- Generator: sketchtool 3.6.1 (26313) - http://www.bohemiancoding.com/sketch -->
    <title>-g-graphic01</title>
    <desc>Created with sketchtool.</desc>
    <defs>
        <path id="path-1" d="M0,275.333477 L399.815551,275.333477 L399.815551,0 L0,0 L0,275.333477 Z"></path>
    </defs>
    <g id="Pagina-principal" stroke="none" stroke-width="1" fill="none" fill-rule="evenodd">
        <g id="Pagina-Principal---lg" transform="translate(-247.000000, -660.000000)">
            <g id="section01" transform="translate(247.000000, 660.000000)">
                <g id="-g-graphic01">
                    <path d="M332.372095,3.04427646 C316.185054,3.04427646 303.015724,16.2144708 303.015724,32.4019438 C303.015724,48.5894168 316.185054,61.7591793 332.372095,61.7591793 C348.560432,61.7591793 361.729762,48.5894168 361.729762,32.4019438 C361.729762,16.2144708 348.560432,3.04427646 332.372095,3.04427646 L332.372095,3.04427646 Z M332.372095,64.8032397 C314.5073,64.8032397 299.971663,50.2676026 299.971663,32.4019438 C299.971663,14.5354212 314.5073,0.000215982721 332.372095,0.000215982721 C350.238618,0.000215982721 364.773823,14.5354212 364.773823,32.4019438 C364.773823,50.2676026 350.238618,64.8032397 332.372095,64.8032397 L332.372095,64.8032397 Z" id="Fill-1" fill="#ECECEC"></path>
                    <path d="M323.192052,29.7183153 C321.469374,29.7183153 319.752743,29.4120518 318.090972,28.8085961 L319.131145,25.947257 C320.458575,26.4297624 321.824449,26.6742549 323.192052,26.6742549 C328.067646,26.6742549 332.477581,23.6673434 334.166134,19.1908855 C334.443888,18.4539525 334.643456,17.6837581 334.760518,16.9027646 L337.772181,17.3563283 C337.621857,18.347257 337.367862,19.3260907 337.014082,20.2643197 C334.881037,25.9200432 329.326393,29.7183153 323.192052,29.7183153" id="Fill-3" fill="#ECECEC"></path>
                    <path d="M346.376933,32.1939525 C346.202851,32.1939525 346.029201,32.1641469 345.862462,32.1041037 C340.255983,30.0907127 335.888812,25.4539957 334.178229,19.7006479 L337.097451,18.8345572 C338.316026,22.9390929 341.146263,26.3658747 344.854687,28.337365 L344.854687,26.6228942 C344.854687,21.375378 341.51473,16.6863931 336.544536,14.9563715 L337.546263,12.0816415 C343.738488,14.237149 347.899179,20.0807775 347.899179,26.6228942 L347.899179,30.6717063 C347.899179,31.1676026 347.658143,31.6323974 347.252527,31.9166307 C346.992484,32.099784 346.68622,32.1939525 346.376933,32.1939525" id="Fill-5" fill="#ECECEC"></path>
                    <path d="M324.620518,29.6507127 L324.620518,34.2546004 C324.620518,38.5958531 328.152268,42.1276026 332.493952,42.1276026 C336.834341,42.1276026 340.365659,38.5958531 340.365659,34.2546004 L340.365659,28.984622 C338.390713,27.3682073 336.750972,25.3453132 335.563499,23.0831102 C333.147948,26.7690713 329.128942,29.2196112 324.620518,29.6507127 M332.493952,45.1716631 C326.474082,45.1716631 321.576458,40.2749028 321.576458,34.2546004 L321.576458,28.1911015 C321.57473,27.3090281 322.380346,26.609676 323.271058,26.6766307 C328.195464,26.6740389 332.638229,23.5535205 334.250756,18.9085961 C334.463283,18.2956371 335.039957,17.88527 335.688337,17.88527 L335.716415,17.88527 C336.375162,17.896933 336.950108,18.3310583 337.143629,18.9612959 C338.124622,22.1591361 340.134125,25.0234989 342.801944,27.0273866 C343.184233,27.3146436 343.410151,27.7660475 343.410151,28.2446652 L343.410151,34.2546004 C343.410151,40.2749028 338.513823,45.1716631 332.493952,45.1716631" id="Fill-7" fill="#ECECEC"></path>
                    <path d="M328.110626,44.2493305 L328.110626,46.3866955 C328.110626,48.3288121 330.875205,50.4000864 332.494212,51.3780562 C334.112786,50.4000864 336.876069,48.3288121 336.876069,46.3866955 L336.876069,44.2501944 C334.129201,45.455378 330.860518,45.454946 328.110626,44.2493305 M332.494212,54.6458747 C332.256199,54.6458747 332.019914,54.5901512 331.801339,54.479568 C331.113218,54.1270842 325.066566,50.9098056 325.066566,46.3866955 L325.066566,41.5581857 C325.066566,40.9720086 325.403931,40.4376674 325.933089,40.1849676 C326.459222,39.9314039 327.088164,40.0057019 327.545616,40.3750324 C330.383197,42.6700648 334.609114,42.667041 337.440648,40.3750324 C337.895508,40.0057019 338.522721,39.9344276 339.053175,40.1841037 C339.582765,40.4368035 339.92013,40.9720086 339.92013,41.5581857 L339.92013,46.3866955 C339.92013,50.9098056 333.874773,54.1270842 333.186652,54.479568 C332.968078,54.5901512 332.731793,54.6458747 332.494212,54.6458747" id="Fill-9" fill="#ECECEC"></path>
                    <path d="M313.613866,54.9617711 C318.886004,59.3526998 325.505011,61.7591793 332.371965,61.7591793 C339.319266,61.7591793 345.996587,59.3064795 351.29378,54.8304536 C349.782333,52.3509719 345.160734,50.1643629 339.341728,49.2079914 C337.865702,52.2719222 333.66527,54.2632829 333.124017,54.5090713 C332.725745,54.6922246 332.26527,54.6922246 331.863542,54.5090713 C331.322721,54.2632829 327.120562,52.2719222 325.644536,49.2079914 C319.694644,50.1838013 315.033305,52.42527 313.613866,54.9617711 M332.371965,64.8032397 C324.402203,64.8032397 316.735248,61.8676026 310.782333,56.538013 C310.354255,56.1552916 310.178877,55.5643629 310.327473,55.0101512 C311.507603,50.6028078 317.701555,47.1531317 326.492052,46.0071274 C327.298963,45.9043197 328.070454,46.4723542 328.193996,47.2926566 C328.424233,48.8438445 330.881253,50.5591793 332.494212,51.4235421 C334.106739,50.5591793 336.56203,48.8438445 336.7927,47.2926566 C336.91581,46.4723542 337.660518,45.9021598 338.494644,46.0071274 C347.101987,47.1285097 353.270886,50.4930886 354.595292,54.787257 C354.767646,55.35054 354.600907,55.9634989 354.16419,56.3613391 C348.182765,61.8049676 340.44324,64.8032397 332.371965,64.8032397" id="Fill-11" fill="#ECECEC"></path>
                    <path d="M326.588596,40.0362419 C326.930281,40.0362419 327.269374,40.1511447 327.545832,40.3749028 C330.383413,42.6699352 334.60933,42.6673434 337.440864,40.3749028 C337.895724,40.0055724 338.522937,39.9330022 339.053391,40.184838 C339.286652,40.2954212 339.483197,40.4621598 339.628769,40.6625918 C341.833089,39.6828942 343.644752,38.2634557 344.854687,36.5511447 L344.854687,26.622851 C344.854687,19.8068683 339.309114,14.2621598 332.493996,14.2621598 C325.678877,14.2621598 320.133305,19.8068683 320.133305,26.622851 L320.133305,36.5537365 C321.341512,38.2651836 323.151879,39.6837581 325.357927,40.6634557 C325.503499,40.4621598 325.699611,40.2962851 325.932873,40.184838 C326.14108,40.085054 326.365702,40.0362419 326.588596,40.0362419 M332.493996,45.171879 C330.757927,45.171879 329.045616,44.7511447 327.509978,43.9641037 C327.502635,43.9697192 327.495292,43.9757667 327.487948,43.9809503 C327.095292,44.2677754 326.589892,44.3494168 326.129417,44.2047084 C322.316458,42.997797 319.190756,40.7377538 317.329849,37.8409935 C317.172181,37.5956371 317.089244,37.3092441 317.089244,37.0180994 L317.089244,26.622851 C317.089244,18.1291145 323.999395,11.2180994 332.493996,11.2180994 C340.988596,11.2180994 347.899179,18.1291145 347.899179,26.622851 L347.899179,37.0168035 C347.899179,37.3088121 347.814082,37.5939093 347.656847,37.8401296 C345.792916,40.7377538 342.668078,42.997797 338.857279,44.2038445 C338.396371,44.3520086 337.890972,44.2677754 337.498747,43.9809503 C337.491404,43.9757667 337.483629,43.9697192 337.476285,43.9645356 C335.942376,44.7511447 334.231793,45.171879 332.493996,45.171879" id="Fill-13" fill="#ECECEC"></path>
                    <path d="M32.4018575,134.420562 C16.2135205,134.420562 3.04419006,147.589892 3.04419006,163.777365 C3.04419006,179.964838 16.2135205,193.1346 32.4018575,193.1346 C48.5901944,193.1346 61.7595248,179.964838 61.7595248,163.777365 C61.7595248,147.589892 48.5901944,134.420562 32.4018575,134.420562 M32.4018575,196.178661 C14.5353348,196.178661 0.000129589633,181.643024 0.000129589633,163.777365 C0.000129589633,145.911706 14.5353348,131.376501 32.4018575,131.376501 C50.2683801,131.376501 64.8035853,145.911706 64.8035853,163.777365 C64.8035853,181.643024 50.2683801,196.178661 32.4018575,196.178661" id="Fill-15" fill="#ECECEC"></path>
                    <path d="M77.9820734,49.3238877 C61.7954644,49.3238877 48.6257019,62.4932181 48.6257019,78.6806911 C48.6257019,94.8685961 61.7954644,108.03879 77.9820734,108.03879 C94.1704104,108.03879 107.339741,94.8685961 107.339741,78.6806911 C107.339741,62.4932181 94.1704104,49.3238877 77.9820734,49.3238877 M77.9820734,111.082851 C60.1172786,111.082851 45.5816415,96.5472138 45.5816415,78.6806911 C45.5816415,60.8150324 60.1172786,46.2798272 77.9820734,46.2798272 C95.8485961,46.2798272 110.383801,60.8150324 110.383801,78.6806911 C110.383801,96.5472138 95.8485961,111.082851 77.9820734,111.082851" id="Fill-17" fill="#ECECEC"></path>
                    <path d="M128.045227,186.410022 C111.85689,186.410022 98.6875594,199.579352 98.6875594,215.767689 C98.6875594,231.95473 111.85689,245.12406 128.045227,245.12406 C144.233564,245.12406 157.402894,231.95473 157.402894,215.767689 C157.402894,199.579352 144.233564,186.410022 128.045227,186.410022 M128.045227,248.168121 C110.178704,248.168121 95.6434989,233.632484 95.6434989,215.767689 C95.6434989,197.901166 110.178704,183.365961 128.045227,183.365961 C145.911749,183.365961 160.446955,197.901166 160.446955,215.767689 C160.446955,233.632484 145.911749,248.168121 128.045227,248.168121" id="Fill-19" fill="#ECECEC"></path>
                    <path d="M358.993348,152.166609 C342.805011,152.166609 329.63568,165.336803 329.63568,181.524276 C329.63568,197.712613 342.805011,210.881944 358.993348,210.881944 C375.180389,210.881944 388.349719,197.712613 388.349719,181.524276 C388.349719,165.336803 375.180389,152.166609 358.993348,152.166609 M358.993348,213.926004 C341.126825,213.926004 326.59162,199.390799 326.59162,181.524276 C326.59162,163.657754 341.126825,149.122549 358.993348,149.122549 C376.858143,149.122549 391.39378,163.657754 391.39378,181.524276 C391.39378,199.390799 376.858143,213.926004 358.993348,213.926004" id="Fill-21" fill="#ECECEC"></path>
                    <path d="M388.468553,63.3888121 C383.890151,63.3888121 380.165745,67.1136501 380.165745,71.6916199 C380.165745,76.2700216 383.890151,79.9948596 388.468553,79.9948596 C393.046523,79.9948596 396.771361,76.2700216 396.771361,71.6916199 C396.771361,67.1136501 393.046523,63.3888121 388.468553,63.3888121 M388.468553,83.0389201 C382.212397,83.0389201 377.121253,77.9486393 377.121253,71.6916199 C377.121253,65.4350324 382.212397,60.3447516 388.468553,60.3447516 C394.724708,60.3447516 399.815421,65.4350324 399.815421,71.6916199 C399.815421,77.9486393 394.724708,83.0389201 388.468553,83.0389201" id="Fill-23" fill="#ECECEC"></path>
                    <path d="M308.463499,252.875551 C303.885529,252.875551 300.160691,256.600389 300.160691,261.178359 C300.160691,265.75676 303.885529,269.481598 308.463499,269.481598 C313.041469,269.481598 316.766307,265.75676 316.766307,261.178359 C316.766307,256.600389 313.041469,252.875551 308.463499,252.875551 M308.463499,272.525659 C302.207343,272.525659 297.116199,267.434514 297.116199,261.178359 C297.116199,254.922203 302.207343,249.83149 308.463499,249.83149 C314.719654,249.83149 319.810799,254.922203 319.810799,261.178359 C319.810799,267.434514 314.719654,272.525659 308.463499,272.525659" id="Fill-25" fill="#ECECEC"></path>
                    <path d="M74.0609503,255.683283 C69.4829806,255.683283 65.7581425,259.408121 65.7581425,263.986523 C65.7581425,268.564492 69.4829806,272.28933 74.0609503,272.28933 C78.6393521,272.28933 82.3637581,268.564492 82.3637581,263.986523 C82.3637581,259.408121 78.6393521,255.683283 74.0609503,255.683283 M74.0609503,275.333391 C67.8047948,275.333391 62.7140821,270.242246 62.7140821,263.986523 C62.7140821,257.729935 67.8047948,252.639222 74.0609503,252.639222 C80.3171058,252.639222 85.4082505,257.729935 85.4082505,263.986523 C85.4082505,270.242246 80.3171058,275.333391 74.0609503,275.333391" id="Fill-27" fill="#ECECEC"></path>
                    <path d="M121.783153,11.4550756 C117.205184,11.4550756 113.480346,15.1799136 113.480346,19.7578834 C113.480346,24.3367171 117.205184,28.061987 121.783153,28.061987 C126.361123,28.061987 130.085961,24.3367171 130.085961,19.7578834 C130.085961,15.1799136 126.361123,11.4550756 121.783153,11.4550756 M121.783153,31.1060475 C115.526998,31.1060475 110.435853,26.0149028 110.435853,19.7578834 C110.435853,13.5012959 115.526998,8.41101512 121.783153,8.41101512 C128.039309,8.41101512 133.130022,13.5012959 133.130022,19.7578834 C133.130022,26.0149028 128.039309,31.1060475 121.783153,31.1060475" id="Fill-29" fill="#ECECEC"></path>
                    <path d="M186.348985,15.6660043 C181.771015,15.6660043 178.046177,19.3908423 178.046177,23.9688121 C178.046177,28.5472138 181.771015,32.2720518 186.348985,32.2720518 C190.926955,32.2720518 194.651793,28.5472138 194.651793,23.9688121 C194.651793,19.3908423 190.926955,15.6660043 186.348985,15.6660043 M186.348985,35.3161123 C180.092829,35.3161123 175.001685,30.2258315 175.001685,23.9688121 C175.001685,17.7122246 180.092829,12.6219438 186.348985,12.6219438 C192.60514,12.6219438 197.696285,17.7122246 197.696285,23.9688121 C197.696285,30.2258315 192.60514,35.3161123 186.348985,35.3161123" id="Fill-31" fill="#ECECEC"></path>
                    <path d="M19.0050972,174.021037 C18.4612527,174.021037 17.9364147,173.728164 17.6629806,173.218445 C15.995162,170.113477 15.1135205,166.537667 15.1135205,162.87676 C15.1135205,151.976544 22.86946,143.107862 32.4016415,143.107862 C41.9342549,143.107862 49.6888985,151.976544 49.6888985,162.87676 C49.6888985,166.540691 48.807257,170.116069 47.1394384,173.219741 C46.7558531,173.932052 45.8806911,174.224492 45.144622,173.872441 C43.7221598,173.195983 42.1796112,172.62838 40.557581,172.185184 L41.3606048,169.248251 C42.644406,169.599006 43.8888985,170.022765 45.0750756,170.513045 C46.1048812,168.161857 46.644406,165.54933 46.644406,162.87676 C46.644406,153.654298 40.2560691,146.151922 32.4016415,146.151922 C24.5476458,146.151922 18.157581,153.654298 18.157581,162.87676 C18.157581,165.547171 18.6975378,168.158834 19.7290713,170.513045 C20.9152484,170.022765 22.1593089,169.599006 23.4405184,169.248251 L24.2431102,172.185184 C22.6275594,172.626652 21.0845788,173.194687 19.657797,173.873737 C19.4465659,173.973521 19.2236717,174.021037 19.0050972,174.021037" id="Fill-33" fill="#ECECEC"></path>
                    <path d="M35.8563283,173.289676 L36.8252268,174.471533 L36.0079482,173.1873 C36.1893737,173.071102 36.3677754,172.953607 36.5444492,172.82013 L36.70946,172.683197 C36.8580562,172.564406 37.0291145,172.426177 37.197149,172.271533 C37.21054,172.258143 37.3695032,172.097451 37.3828942,172.08406 C37.5759827,171.890972 37.7038445,171.764406 37.8256587,171.632225 C37.8286825,171.627905 37.8330022,171.623585 37.8377538,171.618834 C39.6377538,169.612354 41.009676,166.51041 41.8031965,162.646911 C41.83473,162.485788 41.8641037,162.322937 41.8908855,162.156631 L33.50946,162.156631 C33.3738229,162.156631 33.2416415,162.13892 33.1168035,162.105227 C32.9919654,162.13892 32.859784,162.156631 32.7245788,162.156631 L29.5673434,162.156631 C29.1824622,162.156631 28.8269546,162.012354 28.5565443,161.772181 C28.2861339,162.012354 27.9306263,162.156631 27.5457451,162.156631 L22.9129158,162.156631 C22.9392657,162.325961 22.9695032,162.493132 23.0019006,162.659006 C24.4079482,169.538056 27.5561123,173.756199 31.6394816,174.231793 C31.6571922,174.231793 31.6736069,174.235248 31.6900216,174.236544 C31.9159395,174.26203 32.1405616,174.276717 32.3690713,174.278013 C32.4183153,174.273693 32.5073002,174.267646 32.5327862,174.26635 C32.7288985,174.26203 32.9193952,174.257279 33.1137797,174.235248 C33.134514,174.231793 33.3755508,174.193348 33.3962851,174.190324 C33.5375378,174.16959 33.6861339,174.148855 33.8334341,174.116026 L34.0338661,174.058143 C34.2895896,173.991188 34.4083801,173.961382 34.5276026,173.92121 L34.6641037,173.859006 C34.8632397,173.786004 35.0269546,173.728121 35.1859179,173.649503 C35.2571922,173.610626 35.3168035,173.579525 35.3777106,173.549719 C35.5232829,173.476717 35.6926134,173.392484 35.8563283,173.289676 M32.4019006,177.322073 C32.0584881,177.322073 31.722419,177.303067 31.3820302,177.265918 C31.3673434,177.26419 31.3539525,177.262894 31.3392657,177.261166 C25.8394816,176.650367 21.7116199,171.546263 20.0174514,163.258143 C19.859784,162.459006 19.76,161.631793 19.70946,160.718618 C19.6857019,160.300907 19.8360259,159.892268 20.122851,159.588164 C20.4109719,159.284924 20.8109719,159.11257 21.2286825,159.11257 L26.2200432,159.11257 L27.0494168,153.173477 C27.1548164,152.422289 27.797149,151.862462 28.5565443,151.862462 C29.3163715,151.862462 29.9582721,152.422289 30.0636717,153.173477 L30.8930454,159.11257 L31.3496328,159.11257 L31.5993089,156.588596 C31.6766307,155.810626 32.3306263,155.216674 33.1137797,155.216674 C33.8956371,155.216674 34.5496328,155.808898 34.6286825,156.5873 L34.8809503,159.11257 L43.5764147,159.11257 C43.9958531,159.11257 44.3954212,159.284924 44.6839741,159.58946 C44.9707991,159.894428 45.1193952,160.303931 45.0956371,160.721641 C45.0420734,161.655119 44.9440173,162.458143 44.7863499,163.249935 C43.8710151,167.709978 42.296933,171.204147 40.1090281,173.644752 C40.1012527,173.655119 40.0926134,173.66419 40.0835421,173.673261 C39.9258747,173.845616 39.7638877,174.00933 39.6019006,174.171317 C39.5945572,174.176933 39.4947732,174.276717 39.4874298,174.28406 L39.2705832,174.499611 C39.0386177,174.715162 38.8114039,174.900907 38.5794384,175.085356 L38.3889417,175.241296 C38.1422894,175.430065 37.8956371,175.595076 37.6429374,175.755767 C37.6131317,175.777797 37.5284665,175.837408 37.43473,175.890972 C37.235594,176.02013 36.9738229,176.155335 36.7064363,176.287516 C36.6217711,176.338056 36.5267387,176.3873 36.4256587,176.427473 C36.2636717,176.510842 35.9988769,176.613218 35.7284665,176.709978 C35.6809503,176.735032 35.609676,176.766566 35.5384017,176.79162 C35.3180994,176.867646 35.1263067,176.917754 34.934514,176.968294 L34.296933,175.56527 L34.7340821,177.022289 C34.7090281,177.030929 34.5422894,177.077149 34.5142117,177.082765 C34.2658315,177.138056 34.0502808,177.170454 33.822635,177.203283 C33.6325702,177.236112 33.5435853,177.250799 33.4541685,177.261166 C33.1716631,177.2927 32.8926134,177.303067 32.6070842,177.31041 C32.572959,177.316458 32.4895896,177.322073 32.4019006,177.322073" id="Fill-35" fill="#ECECEC"></path>
                    <path d="M28.2087257,163.11162 C27.5668251,163.11162 27.0432829,163.633434 27.0432829,164.274903 C27.0432829,164.918963 27.5668251,165.439914 28.2087257,165.439914 C28.8523542,165.439914 29.3741685,164.918963 29.3741685,164.274903 C29.3741685,163.633434 28.8523542,163.11162 28.2087257,163.11162" id="Fill-37" fill="#ECECEC"></path>
                    <path d="M36.5965443,163.11162 C35.9529158,163.11162 35.4311015,163.633434 35.4311015,164.274903 C35.4311015,164.918963 35.9529158,165.439914 36.5965443,165.439914 C37.237149,165.439914 37.7602592,164.918963 37.7602592,164.274903 C37.7602592,163.633434 37.237149,163.11162 36.5965443,163.11162" id="Fill-39" fill="#ECECEC"></path>
                    <path d="M60.0057451,102.487646 L56.9616847,102.487646 C56.9616847,95.5053564 63.0230238,89.8245788 70.4726998,89.8245788 L70.4726998,92.8686393 C64.7012095,92.8686393 60.0057451,97.1835421 60.0057451,102.487646" id="Fill-41" fill="#ECECEC"></path>
                    <path d="M99.5823326,102.487646 L96.5382721,102.487646 C96.5382721,97.1835421 91.8428078,92.8686393 86.0695896,92.8686393 L86.0695896,89.8245788 C93.5209935,89.8245788 99.5823326,95.5053564 99.5823326,102.487646" id="Fill-43" fill="#ECECEC"></path>
                    <path d="M77.659568,60.3372354 C75.0984449,60.3372354 72.6193952,61.5540821 70.8548164,63.6741685 C68.4543844,66.5584017 67.596933,70.6564579 68.4396976,75.2136933 C70.0029806,83.4737365 73.6790065,88.4115335 78.272095,88.4167171 C82.8561123,88.4115335 86.5317063,83.4728726 88.1044924,75.205486 C88.9442333,70.6564579 88.0837581,66.5571058 85.6815983,63.6707127 C83.7999568,61.4089417 81.1213391,60.1722246 78.3671274,60.3536501 C78.3044924,60.3579698 78.2392657,60.3579698 78.1766307,60.3536501 C78.0042765,60.342419 77.8306263,60.3372354 77.659568,60.3372354 M78.2733909,91.4607775 L78.272095,91.4607775 C72.0988769,91.45473 67.3053564,85.5907991 65.447473,75.7735205 C64.4366739,70.30527 65.5260907,65.3190929 68.5152916,61.7268683 C70.997797,58.7454428 74.5485529,57.1242765 78.272095,57.3095896 C81.9373218,57.1065659 85.5373218,58.7415551 88.0211231,61.7234125 C91.0120518,65.3165011 92.1040605,70.304406 91.0967171,75.7666091 C89.2267387,85.5907991 84.434514,91.45473 78.2733909,91.4607775" id="Fill-45" fill="#ECECEC"></path>
                    <path d="M70.2825486,64.4590065 C70.5205616,64.5117063 70.7434557,64.6218575 70.9322246,64.7816847 C73.4544708,66.9099784 75.8553348,67.9657019 78.2717495,68.0071706 C80.6812527,67.9682937 83.0816847,66.9130022 85.6104104,64.7808207 C85.7991793,64.6227214 86.0203456,64.5134341 86.2566307,64.4598704 C84.3974514,61.7613823 81.515378,60.1475594 78.3667819,60.3536069 C78.3045788,60.3579266 78.2393521,60.3579266 78.1767171,60.3536069 C75.0242333,60.1553348 72.1421598,61.7613823 70.2825486,64.4590065 L70.2825486,64.4590065 Z M78.2717495,71.0512311 L78.2497192,71.0512311 C75.4907559,71.0101944 72.8259611,70.0205616 70.1352484,68.0317927 C69.3952916,68.7739093 68.5762851,69.4037149 67.690324,69.9125702 C67.1702376,70.2106263 66.5248812,70.1782289 66.040216,69.8266091 C65.5559827,69.4754212 65.3209935,68.8736933 65.4415119,68.2879482 C66.8104104,61.58946 72.1512311,56.9765011 78.2717495,57.3104104 C84.3261771,56.9700216 89.7261771,61.5873002 91.0937797,68.2866523 C91.2138661,68.8736933 90.977581,69.4762851 90.4916199,69.8266091 C90.0039309,70.1765011 89.3577106,70.2093305 88.840216,69.9082505 C87.9585745,69.3976674 87.1443197,68.7687257 86.4069546,68.0309287 C83.7123542,70.0231533 81.0453996,71.0132181 78.2929158,71.0512311 L78.2717495,71.0512311 Z" id="Fill-47" fill="#ECECEC"></path>
                    <path d="M69.2539525,74.9373218 L69.2435853,75.2271706 C69.222851,75.6530886 69.3744708,76.0422894 69.6703672,76.3584881 C70.047905,76.7610799 70.6081641,76.9995248 71.210324,77.0137797 L72.6876458,76.9960691 C73.2867819,76.9675594 73.8841901,76.7049244 74.2764147,76.2751188 C74.4669114,76.0660475 74.6898056,75.7265227 74.6690713,75.2941253 L74.6587041,75.0081641 C72.8880778,74.5533045 71.0155076,74.5295464 69.2539525,74.9373218 L69.2539525,74.9373218 Z M71.2042765,80.0578402 L71.1805184,80.0578402 C69.7502808,80.034946 68.3904536,79.4448812 67.447905,78.4384017 C66.5831102,77.5148596 66.1399136,76.3330022 66.2008207,75.1114039 L66.2306263,74.3019006 C66.2379698,74.0172354 66.2798704,73.7243629 66.3420734,73.4362419 C66.4552484,72.9062203 66.8414255,72.4772786 67.3576242,72.3088121 C70.322635,71.3403456 73.5869978,71.372743 76.5744708,72.4081641 C77.0828942,72.584406 77.460432,73.0155076 77.5675594,73.5425054 C77.6284665,73.835378 77.6742549,74.1088121 77.6820302,74.3749028 L77.710108,75.172743 C77.7636717,76.3019006 77.3429374,77.4293305 76.5256587,78.3265227 C75.5934773,79.3489849 74.2258747,79.972311 72.772311,80.0388337 L71.2250108,80.0578402 L71.2042765,80.0578402 Z" id="Fill-49" fill="#ECECEC"></path>
                    <path d="M81.8867819,74.9380994 C81.8824622,75.0339957 81.8781425,75.1320518 81.8733909,75.230108 C81.8543844,75.6508423 82.0085961,76.0439309 82.3088121,76.3614255 C82.685054,76.7627214 83.2440173,76.9998704 83.8444492,77.0136933 L85.3265227,76.9959827 C85.9239309,76.9692009 86.5200432,76.7061339 86.9122678,76.2758963 C87.1010367,76.0668251 87.322635,75.7290281 87.3001728,75.3009503 C87.2988769,75.1981425 87.2958531,75.1009503 87.2928294,75.0063499 C85.522635,74.5532181 83.6513607,74.52946 81.8867819,74.9380994 L81.8867819,74.9380994 Z M83.8384017,80.0581857 L83.8146436,80.0581857 C82.3891577,80.0348596 81.0323542,79.4486825 80.0915335,78.4473866 C79.2232829,77.5251404 78.7757667,76.3437149 78.8306263,75.1186609 C78.8440173,74.8236285 78.8574082,74.5635853 78.8634557,74.3013823 C78.8798704,73.9951188 78.9187473,73.7238445 78.971879,73.4581857 C79.0790065,72.9190929 79.4686393,72.479784 79.9917495,72.3087257 C82.9632397,71.3389633 86.2254428,71.3761123 89.2146436,72.4076458 C89.7321382,72.5864795 90.1122678,73.029676 90.2137797,73.567473 C90.2656156,73.8456587 90.3070842,74.1065659 90.3148596,74.3622894 C90.3265227,74.6244924 90.3368898,74.9069978 90.3429374,75.1895032 C90.3995248,76.2953348 89.9818143,77.4249244 89.1628078,78.3242765 C88.2293305,79.3510583 86.860432,79.9761123 85.4081641,80.0387473 L83.8591361,80.0581857 L83.8384017,80.0581857 Z" id="Fill-51" fill="#ECECEC"></path>
                    <mask id="mask-2" fill="white">
                        <use xlink:href="#path-1"></use>
                    </mask>
                    <g id="Clip-54"></g>
                    <path d="M76.6488121,76.9170626 L80.3645788,76.9170626 L80.3645788,73.8730022 L76.6488121,73.8730022 L76.6488121,76.9170626 Z" id="Fill-53" fill="#ECECEC" mask="url(#mask-2)"></path>
                    <path d="M155.027775,199.197495 L153.107257,196.834212 L175.563413,178.587127 L177.484363,180.95041 L155.027775,199.197495 Z" id="Fill-55" fill="#ECECEC" mask="url(#mask-2)"></path>
                    <path d="M97.5936069,204.457754 L57.8238445,180.012829 L59.417365,177.420605 L99.1871274,201.865529 L97.5936069,204.457754 Z" id="Fill-56" fill="#ECECEC" mask="url(#mask-2)"></path>
                    <path d="M159.660821,102.607257 L107.258229,84.8279914 L108.236199,81.945486 L160.63879,99.7251836 L159.660821,102.607257 Z" id="Fill-57" fill="#ECECEC" mask="url(#mask-2)"></path>
                    <path d="M278.105443,81.7376242 L276.128337,79.4218575 L307.943456,52.2853564 L309.92013,54.6015551 L278.105443,81.7376242 Z" id="Fill-58" fill="#ECECEC" mask="url(#mask-2)"></path>
                    <path d="M328.16406,174.960432 L289.624968,158.712484 L290.808121,155.907732 L329.347214,172.153952 L328.16406,174.960432 Z" id="Fill-59" fill="#ECECEC" mask="url(#mask-2)"></path>
                    <path d="M82.5498056,257.646911 L80.5463499,255.354903 L103.004233,235.704795 L105.007689,237.996803 L82.5498056,257.646911 Z" id="Fill-60" fill="#ECECEC" mask="url(#mask-2)"></path>
                    <path d="M92.9783585,52.585054 L90.7040605,50.5621598 L113.160648,25.297365 L115.434946,27.3202592 L92.9783585,52.585054 Z" id="Fill-61" fill="#ECECEC" mask="url(#mask-2)"></path>
                    <path d="M107.521123,69.7640173 L106.102981,67.0707127 L177.220907,29.6404752 L178.63905,32.3337797 L107.521123,69.7640173 Z" id="Fill-62" fill="#ECECEC" mask="url(#mask-2)"></path>
                    <path d="M380.01987,64.9168035 L359.434989,48.0736069 L361.361123,45.7180994 L381.946004,62.5608639 L380.01987,64.9168035 Z" id="Fill-63" fill="#ECECEC" mask="url(#mask-2)"></path>
                    <path d="M317.722246,254.476285 L315.111879,252.909546 L342.422894,207.398099 L345.033261,208.964406 L317.722246,254.476285 Z" id="Fill-64" fill="#ECECEC" mask="url(#mask-2)"></path>
                    <path d="M346.75879,175.388467 C347.76527,175.660605 348.78946,175.797106 349.813218,175.797106 C356.25987,175.797106 361.503931,170.664924 361.503931,164.355637 C361.503931,164.120216 361.493564,163.876156 361.474125,163.621728 C360.683197,163.46406 359.8927,163.384579 359.113866,163.384579 C352.417538,163.384579 346.948855,168.737063 346.75879,175.388467 M349.813218,178.841598 C348.089244,178.841598 346.372181,178.535335 344.712138,177.930151 C344.109978,177.711577 343.71041,177.14095 343.71041,176.500346 L343.71041,175.74527 C343.71041,167.250238 350.620562,160.340086 359.113866,160.340086 C360.491836,160.340086 361.888812,160.536631 363.269806,160.923672 C363.84216,161.084795 364.26851,161.56514 364.362246,162.153045 C364.487084,162.951749 364.547991,163.672268 364.547991,164.355637 C364.547991,172.342678 357.938056,178.841598 349.813218,178.841598" id="Fill-65" fill="#ECECEC" mask="url(#mask-2)"></path>
                    <path d="M363.067603,164.042808 C363.309935,169.736976 366.556156,174.847559 371.474514,177.460518 L371.474514,175.745184 C371.474514,170.379309 368.030454,165.71149 363.067603,164.042808 M372.99676,181.316242 C372.822678,181.316242 372.649028,181.286436 372.482289,181.226825 C365.020518,178.545616 360.008423,171.365054 360.008423,163.359006 C360.008423,162.943456 360.036933,162.536976 360.066739,162.130497 C360.09784,161.699395 360.314687,161.230713 360.656803,160.965918 C360.997192,160.700691 361.42959,160.51797 361.866739,160.599611 C369.197192,161.929201 374.518575,168.298531 374.518575,175.745184 L374.518575,179.793996 C374.518575,180.289028 374.27797,180.754255 373.872354,181.039784 C373.611879,181.222505 373.305616,181.316242 372.99676,181.316242" id="Fill-66" fill="#ECECEC" mask="url(#mask-2)"></path>
                    <path d="M351.240389,178.772916 L351.240389,183.377667 C351.240389,187.718056 354.772138,191.249806 359.113823,191.249806 C363.455508,191.249806 366.987257,187.718056 366.987257,183.377667 L366.987257,178.106825 C365.011879,176.491274 363.370842,174.46838 362.184665,172.206177 C359.767819,175.89257 355.748812,178.343542 351.240389,178.772916 M359.113823,194.293866 C353.093952,194.293866 348.196328,189.396242 348.196328,183.377667 L348.196328,177.313305 C348.196328,176.42432 349.028726,175.719784 349.909935,175.801857 C354.815335,175.797106 359.257667,172.675724 360.870626,168.030799 C361.083153,167.418272 361.659827,167.007905 362.308207,167.007905 L362.336285,167.007905 C362.9946,167.02 363.569978,167.454125 363.763067,168.084363 C364.74406,171.283067 366.753996,174.14743 369.423542,176.14959 C369.8054,176.436415 370.031317,176.888251 370.031317,177.366868 L370.031317,183.377667 C370.031317,189.396242 365.133693,194.293866 359.113823,194.293866" id="Fill-67" fill="#ECECEC" mask="url(#mask-2)"></path>
                    <path d="M354.730324,193.372268 L354.730324,195.509633 C354.730324,198.384363 356.696631,200.723888 359.113909,200.723888 C361.530756,200.723888 363.497063,198.384363 363.497063,195.509633 L363.497063,193.372268 C360.750194,194.576587 357.480216,194.576587 354.730324,193.372268 M359.113909,203.767948 C355.018877,203.767948 351.686263,200.063844 351.686263,195.509633 L351.686263,190.680691 C351.686263,190.093218 352.023629,189.559741 352.552786,189.307041 C353.07892,189.054341 353.707862,189.127343 354.165313,189.497106 C357.001598,191.790842 361.236587,191.789114 364.060346,189.497106 C364.518229,189.128639 365.144147,189.054341 365.6746,189.307041 C366.203758,189.559741 366.541123,190.093218 366.541123,190.680691 L366.541123,195.509633 C366.541123,200.063844 363.208942,203.767948 359.113909,203.767948" id="Fill-68" fill="#ECECEC" mask="url(#mask-2)"></path>
                    <path d="M340.235076,204.083197 C345.507214,208.475421 352.12622,210.881901 358.993175,210.881901 C365.940907,210.881901 372.617797,208.429633 377.914989,203.952311 C376.412613,201.489244 371.838963,199.31473 366.074384,198.350151 C365.028164,201.563974 362.285616,203.768294 359.113693,203.768294 C355.941771,203.768294 353.199222,201.563974 352.153002,198.350151 C346.256674,199.334168 341.645875,201.563974 340.235076,204.083197 M358.993175,213.925961 C351.024708,213.925961 343.356458,210.990324 337.403542,205.660302 C336.975464,205.276717 336.800086,204.686652 336.948683,204.132441 C338.127516,199.725097 344.321037,196.275421 353.113261,195.130713 C353.945659,195.026609 354.693391,195.59594 354.815205,196.414946 C355.186695,198.912138 356.994039,200.723801 359.113693,200.723801 C361.233348,200.723801 363.040691,198.912138 363.412181,196.414946 C363.535724,195.59594 364.289503,195.023585 365.114125,195.130713 C373.720605,196.249935 379.890367,199.61365 381.214773,203.907819 C381.390151,204.471102 381.222117,205.085356 380.7854,205.481901 C374.803974,210.928121 367.064449,213.925961 358.993175,213.925961" id="Fill-69" fill="#ECECEC" mask="url(#mask-2)"></path>
                    <path d="M366.541253,195.335896 C368.289417,195.625745 369.939093,196.01365 371.47473,196.498315 L371.47473,175.7454 C371.47473,168.929849 365.928726,163.384276 359.113607,163.384276 C352.298488,163.384276 346.754212,168.929849 346.754212,175.7454 L346.754212,196.498315 C348.289849,196.01365 349.938229,195.625745 351.686393,195.335896 L351.686393,190.680605 C351.686393,190.093132 352.023758,189.559654 352.552916,189.306955 C353.07905,189.054255 353.707991,189.127257 354.165443,189.497451 C357.001728,191.790756 361.236285,191.78946 364.060475,189.497451 C364.518359,189.128553 365.143844,189.054255 365.67473,189.306955 C366.203888,189.559654 366.541253,190.093132 366.541253,190.680605 L366.541253,195.335896 Z M372.996544,200.179957 C372.804752,200.179957 372.611663,200.144536 372.428942,200.069806 C370.218575,199.181253 367.553348,198.515162 364.720518,198.143672 C364.314471,198.091404 363.9473,197.875853 363.700648,197.549287 C363.455724,197.220562 363.35162,196.808898 363.413823,196.402851 C363.458315,196.111706 363.497192,195.81581 363.497192,195.509546 L363.497192,193.372181 C360.750324,194.576501 357.480346,194.576501 354.730454,193.372181 L354.730454,195.509546 C354.730454,195.817538 354.770626,196.116458 354.815119,196.408898 C354.87473,196.813218 354.770626,197.224881 354.52527,197.550583 C354.278618,197.877581 353.911447,198.091404 353.507127,198.143672 C350.67257,198.515162 348.009071,199.181253 345.801728,200.069806 C345.329158,200.259006 344.8,200.202419 344.380562,199.919914 C343.961555,199.636112 343.710151,199.16311 343.710151,198.658143 L343.710151,175.7454 C343.710151,167.250367 350.620302,160.340216 359.113607,160.340216 C367.608639,160.340216 374.51879,167.250367 374.51879,175.7454 L374.51879,198.658143 C374.51879,199.16311 374.267387,199.636112 373.84838,199.919914 C373.592657,200.092268 373.295464,200.179957 372.996544,200.179957 L372.996544,200.179957 Z" id="Fill-70" fill="#ECECEC" mask="url(#mask-2)"></path>
                    <path d="M27.8668683,176.170324 C27.8966739,179.013521 29.8513175,181.317624 32.2504536,181.317624 C34.6033693,181.317624 36.5295032,179.101641 36.6292873,176.330583 C36.5653564,176.366436 36.4971058,176.399266 36.4253996,176.427343 C36.2634125,176.510713 36.0003456,176.613089 35.7286393,176.709849 C35.6806911,176.735335 35.6094168,176.766436 35.5381425,176.79149 C35.3182721,176.867516 35.1264795,176.918056 34.9346868,176.968596 L34.2971058,175.56514 L34.7355508,177.02216 C34.7087689,177.030799 34.5407343,177.077019 34.5139525,177.083067 C34.2655724,177.137927 34.0487257,177.170756 33.8228078,177.203153 C33.632743,177.235983 33.5433261,177.25067 33.4543413,177.261469 C33.1718359,177.29257 32.8923542,177.302937 32.6068251,177.310281 C32.5726998,177.316328 32.4893305,177.322376 32.4020734,177.322376 C32.0586609,177.322376 31.7225918,177.302937 31.382203,177.265788 C31.3675162,177.26406 31.3523974,177.262765 31.3377106,177.261469 C30.1351188,177.125832 28.9653564,176.756069 27.8668683,176.170324 M32.2504536,184.361685 C28.1554212,184.361685 24.8228078,180.657581 24.8228078,176.104665 L24.8228078,173.164708 C24.8228078,172.552181 25.1899784,171.99797 25.7562851,171.761685 C26.3208639,171.523672 26.9735637,171.651533 27.4107127,172.078315 C28.682851,173.326695 30.1053132,174.05067 31.6409503,174.232095 C31.657365,174.233391 31.6733477,174.235119 31.6901944,174.236415 C31.9260475,174.263197 32.1627646,174.277883 32.4020734,174.277883 C32.7290713,174.261901 32.9191361,174.257149 33.1139525,174.235119 C33.1346868,174.232095 33.3757235,174.19365 33.3964579,174.190194 C33.5372786,174.16946 33.6863067,174.148726 33.8331749,174.116328 L34.0340389,174.058013 C34.2897624,173.991058 34.4085529,173.961685 34.5273434,173.921512 L34.6642765,173.858877 C34.8616847,173.786307 35.0266955,173.727991 35.1856587,173.649374 C35.257365,173.610497 35.3169762,173.579395 35.3774514,173.54959 C35.5234557,173.477019 35.6927862,173.392354 35.8565011,173.289546 L36.6336069,174.237711 L36.6336069,174.16946 L36.008121,173.187171 C36.1891145,173.070972 36.3675162,172.953909 36.544622,172.82 L36.7096328,172.683067 C36.8344708,172.582419 36.9921382,172.451102 37.145054,172.3146 C37.5925702,171.917624 38.2314471,171.818272 38.7800432,172.064924 C39.3256156,172.309849 39.6776674,172.854125 39.6776674,173.453261 L39.6776674,176.104665 C39.6776674,180.657581 36.345486,184.361685 32.2504536,184.361685" id="Fill-71" fill="#ECECEC" mask="url(#mask-2)"></path>
                    <path d="M14.6841037,187.168164 C19.767473,191.023888 26.0132613,193.134471 32.4020302,193.134471 C38.8439309,193.134471 45.1311879,190.992786 50.2344276,187.079179 C48.0715767,182.600562 44.23054,179.062765 39.6063499,177.256717 C39.0996544,181.265788 35.9946868,184.361685 32.2504104,184.361685 C28.5596976,184.361685 25.4884233,181.353477 24.917797,177.426479 C20.4646652,179.293002 16.7696328,182.79797 14.6841037,187.168164 M32.4020302,196.178531 C24.9268683,196.178531 17.6288121,193.561253 11.8495464,188.807473 C11.3337797,188.384147 11.155378,187.67486 11.405054,187.058013 C14.0106695,180.656285 19.2949028,175.837279 25.904838,173.841166 C26.3657451,173.698618 26.8663931,173.788898 27.2512743,174.076156 C27.6396112,174.362981 27.8668251,174.816112 27.8668251,175.297754 L27.8668251,176.105097 C27.8668251,178.979395 29.8335637,181.317624 32.2504104,181.317624 C34.667257,181.317624 36.6335637,178.979395 36.6335637,176.105097 L36.6335637,175.171188 C36.6335637,174.695594 36.8564579,174.246782 37.2339957,173.959957 C37.6145572,173.671836 38.1065659,173.576371 38.5631533,173.704233 C45.2711447,175.568164 50.8586177,180.52108 53.5117495,186.953909 C53.7644492,187.56946 53.5890713,188.278315 53.0776242,188.703801 C47.2789201,193.523672 39.9363715,196.178531 32.4020302,196.178531" id="Fill-72" fill="#ECECEC" mask="url(#mask-2)"></path>
                    <path d="M73.1276026,89.9104968 L73.1276026,94.5005616 C73.1276026,95.983067 74.3332181,97.1895464 75.8148596,97.1895464 L81.0796544,97.1895464 C82.5617279,97.1895464 83.7673434,95.983067 83.7673434,94.5005616 L83.7673434,89.6802592 C82.0904536,90.8500216 80.2312743,91.4586609 78.2736069,91.4608207 C76.4554644,91.4586609 74.7150756,90.9295032 73.1276026,89.9104968 M81.0796544,100.233607 L75.8148596,100.233607 C72.6550324,100.233607 70.0835421,97.6621166 70.0835421,94.5005616 L70.0835421,88.1843629 C70.0835421,87.5770194 70.1889417,86.9735637 70.4057883,86.3385745 C70.5798704,85.8305832 71.009676,85.4508855 71.5358099,85.3415983 C72.0692873,85.2297192 72.6088121,85.407689 72.9699352,85.8050972 C74.5500648,87.5351188 76.335378,88.4146004 78.2736069,88.4167603 C80.3111879,88.4146004 82.172095,87.4495896 83.8014687,85.5511015 C84.1444492,85.1519654 84.6606479,84.9593089 85.1898056,85.0383585 C85.709892,85.1191361 86.1513607,85.4625486 86.3578402,85.9472138 C86.6580562,86.656933 86.8114039,87.4089849 86.8114039,88.1843629 L86.8114039,94.5005616 C86.8114039,97.6621166 84.2399136,100.233607 81.0796544,100.233607" id="Fill-73" fill="#ECECEC" mask="url(#mask-2)"></path>
                    <path d="M125.950886,201.994903 C122.145702,201.994903 119.051102,205.089503 119.051102,208.894687 L119.051102,220.241987 C119.051102,224.045443 122.145702,227.140043 125.950886,227.140043 L130.511145,227.140043 C134.316328,227.140043 137.410929,224.045443 137.410929,220.241987 L137.410929,208.894687 C137.410929,205.089503 134.316328,201.994903 130.511145,201.994903 L125.950886,201.994903 Z M130.511145,230.184104 L125.950886,230.184104 C120.467516,230.184104 116.007041,225.723629 116.007041,220.241987 L116.007041,208.894687 C116.007041,203.411317 120.467516,198.950842 125.950886,198.950842 L130.511145,198.950842 C135.994514,198.950842 140.454989,203.411317 140.454989,208.894687 L140.454989,220.241987 C140.454989,225.723629 135.994514,230.184104 130.511145,230.184104 L130.511145,230.184104 Z" id="Fill-74" fill="#ECECEC" mask="url(#mask-2)"></path>
                    <path d="M122.499568,212.405529 C121.338877,212.405529 120.395032,213.349374 120.395032,214.508769 C120.395032,215.669892 121.338877,216.613737 122.499568,216.613737 C123.658963,216.613737 124.602808,215.669892 124.602808,214.508769 C124.602808,213.349374 123.658963,212.405529 122.499568,212.405529 M122.499568,219.657797 C119.660259,219.657797 117.35054,217.347646 117.35054,214.508769 C117.35054,211.669892 119.660259,209.361469 122.499568,209.361469 C125.338445,209.361469 127.646868,211.669892 127.646868,214.508769 C127.646868,217.347646 125.338445,219.657797 122.499568,219.657797" id="Fill-75" fill="#ECECEC" mask="url(#mask-2)"></path>
                    <path d="M133.962592,212.405529 C132.801901,212.405529 131.858056,213.349374 131.858056,214.508769 C131.858056,215.669892 132.801901,216.613737 133.962592,216.613737 C135.121987,216.613737 136.065832,215.669892 136.065832,214.508769 C136.065832,213.349374 135.121987,212.405529 133.962592,212.405529 M133.962592,219.657797 C131.123715,219.657797 128.813564,217.347646 128.813564,214.508769 C128.813564,211.669892 131.123715,209.361469 133.962592,209.361469 C136.801901,209.361469 139.109892,211.669892 139.109892,214.508769 C139.109892,217.347646 136.801901,219.657797 133.962592,219.657797" id="Fill-76" fill="#ECECEC" mask="url(#mask-2)"></path>
                    <path d="M126.358099,215.679914 L129.634125,215.679914 L129.634125,212.635853 L126.358099,212.635853 L126.358099,215.679914 Z" id="Fill-77" fill="#ECECEC" mask="url(#mask-2)"></path>
                    <path d="M117.820302,219.422851 C114.788337,219.422851 112.322246,216.95676 112.322246,213.924795 L112.322246,209.480302 C112.322246,206.448337 114.788337,203.98095 117.820302,203.98095 L117.820302,207.025011 C116.467819,207.025011 115.366307,208.126091 115.366307,209.480302 L115.366307,213.924795 C115.366307,215.277279 116.467819,216.37879 117.820302,216.37879 L117.820302,219.422851 Z" id="Fill-78" fill="#ECECEC" mask="url(#mask-2)"></path>
                    <path d="M138.641685,219.422851 L138.641685,216.37879 C139.995896,216.37879 141.097408,215.277279 141.097408,213.924795 L141.097408,209.480302 C141.097408,208.126091 139.995896,207.025011 138.641685,207.025011 L138.641685,203.98095 C141.674082,203.98095 144.141469,206.448337 144.141469,209.480302 L144.141469,213.924795 C144.141469,216.95676 141.674082,219.422851 138.641685,219.422851" id="Fill-79" fill="#ECECEC" mask="url(#mask-2)"></path>
                    <path d="M130.906566,237.904665 L125.292311,237.904665 C122.90527,237.904665 120.962721,235.961685 120.962721,233.574644 L120.962721,228.895594 L124.006782,228.895594 L124.006782,233.574644 C124.006782,234.283499 124.583456,234.860605 125.292311,234.860605 L130.906566,234.860605 C131.615421,234.860605 132.192095,234.283499 132.192095,233.574644 L132.192095,228.895594 L135.236587,228.895594 L135.236587,233.574644 C135.236587,235.961685 133.293607,237.904665 130.906566,237.904665" id="Fill-80" fill="#ECECEC" mask="url(#mask-2)"></path>
                    <path d="M110.687171,239.419309 C115.755853,243.154514 121.741598,245.123844 128.04527,245.123844 C134.518704,245.123844 140.632311,243.057754 145.773564,239.141555 C145.746782,235.358402 142.662549,232.290583 138.875076,232.290583 L135.236199,232.290583 L135.236199,233.574816 C135.236199,235.961857 133.29365,237.904838 130.906609,237.904838 L125.292354,237.904838 C122.905313,237.904838 120.962765,235.961857 120.962765,233.574816 L120.962765,232.290583 L117.585659,232.290583 C113.781771,232.290583 110.687171,235.385184 110.687171,239.190367 L110.687171,239.419309 Z M128.04527,248.168337 C120.813737,248.168337 113.963197,245.821037 108.233175,241.38 C107.859957,241.091447 107.64311,240.648683 107.64311,240.177408 L107.64311,239.190367 C107.64311,233.706998 112.103585,229.246523 117.585659,229.246523 L122.484579,229.246523 C123.326048,229.246523 124.006825,229.9273 124.006825,230.768337 L124.006825,233.574816 C124.006825,234.283672 124.583499,234.860778 125.292354,234.860778 L130.906609,234.860778 C131.615464,234.860778 132.192138,234.283672 132.192138,233.574816 L132.192138,230.768337 C132.192138,229.9273 132.872916,229.246523 133.714384,229.246523 L138.875076,229.246523 C144.356717,229.246523 148.817624,233.706998 148.817624,239.190367 L148.817624,239.88324 C148.817624,240.345443 148.608121,240.78216 148.246998,241.072009 C142.527343,245.647387 135.353693,248.168337 128.04527,248.168337 L128.04527,248.168337 Z" id="Fill-81" fill="#ECECEC" mask="url(#mask-2)"></path>
                    <path d="M225.74406,201.735637 C186.205832,201.735637 154.040389,169.570194 154.040389,130.033693 C154.040389,90.4963283 186.205832,58.3308855 225.74406,58.3308855 C265.280562,58.3308855 297.446004,90.4963283 297.446004,130.033693 C297.446004,169.570194 265.280562,201.735637 225.74406,201.735637" id="Fill-82" fill="#2964DB" mask="url(#mask-2)"></path>
                    <path d="M255.714687,126.190799 L257.10216,125.597279 L258.967387,126.42838 L258.967387,108.643499 C258.967387,107.400302 258.258963,106.266393 257.142333,105.720821 L221.595032,88.3558099 C220.693952,87.9156371 219.640389,87.9156371 218.739309,88.3558099 L183.192009,105.720821 C182.075378,106.266393 181.366955,107.400302 181.366955,108.643499 L181.366955,120.280648 L184.619654,118.875032 L184.619654,108.39987 L218.727214,91.5609935 C219.634773,91.1130454 220.699568,91.1130454 221.607127,91.5609935 L255.714687,108.39987 L255.714687,126.190799 Z" id="Fill-83" fill="#FFFFFF" mask="url(#mask-2)"></path>
                    <path d="M255.717365,130.140518 L248.279784,133.808337 L248.279784,137.007473 L255.76013,133.334903 C256.666393,132.889978 257.727732,132.890842 258.6327,133.337495 L276.624924,142.213952 L276.624924,159.983283 L248.279784,159.983283 L248.279784,162.306825 L279.412829,162.306825 L279.412829,142.454989 C279.412829,141.21784 278.711317,140.087819 277.60203,139.539222 L258.597711,130.142246 C257.690151,129.693434 256.625356,129.69257 255.717365,130.140518" id="Fill-84" fill="#FFFFFF" mask="url(#mask-2)"></path>
                    <path d="M175.717711,160.129028 L242.672354,160.129028 L242.672354,129.848251 L210.430022,114.051706 C209.527214,113.609806 208.674946,113.609806 207.77257,114.051706 L175.717711,129.848251 L175.717711,160.129028 Z M245.696112,162.288855 L172.261987,162.288855 L172.261987,130.093175 C172.261987,128.849546 172.877106,127.714773 173.9946,127.169633 L207.404104,110.85473 C208.303888,110.415853 209.331965,110.415853 210.231749,110.85473 L243.778618,127.169633 C244.896544,127.714773 245.696112,128.849546 245.696112,130.093175 L245.696112,162.288855 Z" id="Fill-85" fill="#FFFFFF" mask="url(#mask-2)"></path>
                    <path d="M185.088553,158.933477 L203.641037,158.933477 L203.641037,135.668251 L185.088553,135.668251 L185.088553,158.933477 Z M183.415983,160.605616 L205.312743,160.605616 L205.312743,133.996112 L183.415983,133.996112 L183.415983,160.605616 Z" id="Fill-86" fill="#FFFFFF" mask="url(#mask-2)"></path>
                    <path d="M184.789201,141.122678 L204.659611,141.122678 L204.659611,138.962851 L184.789201,138.962851 L184.789201,141.122678 Z" id="Fill-87" fill="#FFFFFF" mask="url(#mask-2)"></path>
                    <path d="M184.789201,145.874298 L204.659611,145.874298 L204.659611,143.714471 L184.789201,143.714471 L184.789201,145.874298 Z" id="Fill-88" fill="#FFFFFF" mask="url(#mask-2)"></path>
                    <path d="M184.789201,150.193952 L204.659611,150.193952 L204.659611,148.466091 L184.789201,148.466091 L184.789201,150.193952 Z" id="Fill-89" fill="#FFFFFF" mask="url(#mask-2)"></path>
                    <path d="M184.789201,154.945572 L204.659611,154.945572 L204.659611,153.217711 L184.789201,153.217711 L184.789201,154.945572 Z" id="Fill-90" fill="#FFFFFF" mask="url(#mask-2)"></path>
                    <path d="M184.789201,160.129158 L204.659611,160.129158 L204.659611,157.96933 L184.789201,157.96933 L184.789201,160.129158 Z" id="Fill-91" fill="#FFFFFF" mask="url(#mask-2)"></path>
                    <path d="M213.753348,158.933477 L232.305832,158.933477 L232.305832,135.668251 L213.753348,135.668251 L213.753348,158.933477 Z M212.08121,160.605616 L233.97797,160.605616 L233.97797,133.996112 L212.08121,133.996112 L212.08121,160.605616 Z" id="Fill-92" fill="#FFFFFF" mask="url(#mask-2)"></path>
                    <path d="M212.866523,141.122678 L233.600864,141.122678 L233.600864,138.962851 L212.866523,138.962851 L212.866523,141.122678 Z" id="Fill-93" fill="#FFFFFF" mask="url(#mask-2)"></path>
                    <path d="M212.866523,145.874298 L233.600864,145.874298 L233.600864,143.714471 L212.866523,143.714471 L212.866523,145.874298 Z" id="Fill-94" fill="#FFFFFF" mask="url(#mask-2)"></path>
                    <path d="M221.937797,150.193952 L223.665659,150.193952 L223.665659,144.578402 L221.937797,144.578402 L221.937797,150.193952 Z" id="Fill-95" fill="#FFFFFF" mask="url(#mask-2)"></path>
                </g>
            </g>
        </g>
    </g>
</svg>