<?xml version="1.0" encoding="UTF-8" standalone="no"?>
<svg width="400px" height="306px" viewBox="0 0 400 306" version="1.1" xmlns="http://www.w3.org/2000/svg" xmlns:xlink="http://www.w3.org/1999/xlink">
    <!-- Generator: sketchtool 3.6.1 (26313) - http://www.bohemiancoding.com/sketch -->
    <title>-g-graphic02</title>
    <desc>Created with sketchtool.</desc>
    <defs>
        <path id="path-1" d="M0,305.070119 L399.930529,305.070119 L399.930529,0.0133764833 L0,0.0133764833 L0,305.070119 Z"></path>
    </defs>
    <g id="Pagina-principal" stroke="none" stroke-width="1" fill="none" fill-rule="evenodd">
        <g id="Pagina-Principal---lg" transform="translate(-794.000000, -956.000000)">
            <g id="section02" transform="translate(247.000000, 956.000000)">
                <g id="-g-graphic02" transform="translate(547.000000, 0.000000)">
                    <path d="M75.9395901,276.042287 L96.3102481,276.042287 L96.3102481,256.750809 L75.9395901,256.750809 L75.9395901,276.042287 Z" id="Fill-1" fill="#FFFFFF"></path>
                    <path d="M76.8021575,275.179288 L95.4468177,275.179288 L95.4468177,257.613808 L76.8021575,257.613808 L76.8021575,275.179288 Z M75.0765912,276.905286 L97.173247,276.905286 L97.173247,255.88781 L75.0765912,255.88781 L75.0765912,276.905286 Z" id="Fill-2" fill="#F0F0F0"></path>
                    <path d="M65.4834951,129.434736 L75.4196332,129.434736 L75.4196332,119.498598 L65.4834951,119.498598 L65.4834951,129.434736 Z M62.0314995,132.886731 L78.8716289,132.886731 L78.8716289,116.046602 L62.0314995,116.046602 L62.0314995,132.886731 Z" id="Fill-3" fill="#F0F0F0"></path>
                    <path d="M92.2597627,129.434736 L102.195901,129.434736 L102.195901,119.498598 L92.2597627,119.498598 L92.2597627,129.434736 Z M88.8073355,132.886731 L105.647465,132.886731 L105.647465,116.046602 L88.8073355,116.046602 L88.8073355,132.886731 Z" id="Fill-4" fill="#F0F0F0"></path>
                    <path d="M119.035599,129.434736 L128.971737,129.434736 L128.971737,119.498598 L119.035599,119.498598 L119.035599,129.434736 Z M115.583603,132.886731 L132.423732,132.886731 L132.423732,116.046602 L115.583603,116.046602 L115.583603,132.886731 Z" id="Fill-5" fill="#F0F0F0"></path>
                    <path d="M145.811435,129.434736 L155.747573,129.434736 L155.747573,119.498598 L145.811435,119.498598 L145.811435,129.434736 Z M142.359439,132.886731 L159.199569,132.886731 L159.199569,116.046602 L142.359439,116.046602 L142.359439,132.886731 Z" id="Fill-6" fill="#F0F0F0"></path>
                    <path d="M172.587702,129.434736 L182.52384,129.434736 L182.52384,119.498598 L172.587702,119.498598 L172.587702,129.434736 Z M169.135707,132.886731 L185.975836,132.886731 L185.975836,116.046602 L169.135707,116.046602 L169.135707,132.886731 Z" id="Fill-7" fill="#F0F0F0"></path>
                    <path d="M199.36397,129.434736 L209.299676,129.434736 L209.299676,119.498598 L199.36397,119.498598 L199.36397,129.434736 Z M195.911974,132.886731 L212.751672,132.886731 L212.751672,116.046602 L195.911974,116.046602 L195.911974,132.886731 Z" id="Fill-8" fill="#F0F0F0"></path>
                    <path d="M226.140237,129.434736 L236.075944,129.434736 L236.075944,119.498598 L226.140237,119.498598 L226.140237,129.434736 Z M222.688242,132.886731 L239.52794,132.886731 L239.52794,116.046602 L222.688242,116.046602 L222.688242,132.886731 Z" id="Fill-9" fill="#F0F0F0"></path>
                    <path d="M252.916073,129.434736 L262.85178,129.434736 L262.85178,119.498598 L252.916073,119.498598 L252.916073,129.434736 Z M249.464509,132.886731 L266.304207,132.886731 L266.304207,116.046602 L249.464509,116.046602 L249.464509,132.886731 Z" id="Fill-10" fill="#F0F0F0"></path>
                    <path d="M16.8401294,290.511758 L314.173031,290.511758 L314.173031,107.895577 L16.8401294,107.895577 L16.8401294,290.511758 Z M13.3881338,293.963754 L317.625027,293.963754 L317.625027,104.443581 L13.3881338,104.443581 L13.3881338,293.963754 Z" id="Fill-11" fill="#F0F0F0"></path>
                    <path d="M33.7984898,290.091046 L297.215102,290.091046 L297.215102,173.943042 L33.7984898,173.943042 L33.7984898,290.091046 Z M30.3460626,293.543042 L300.666667,293.543042 L300.666667,170.491046 L30.3460626,170.491046 L30.3460626,293.543042 Z" id="Fill-12" fill="#F0F0F0"></path>
                    <path d="M0,304.781877 L328.335707,304.781877 L328.335707,290.983819 L0,290.983819 L0,304.781877 Z M3.45199569,301.330313 L324.883279,301.330313 L324.883279,294.435814 L3.45199569,294.435814 L3.45199569,301.330313 Z" id="Fill-13" fill="#F0F0F0"></path>
                    <path d="M32.5432578,212.614887 L299.209924,212.614887 L299.209924,209.162891 L32.5432578,209.162891 L32.5432578,212.614887 Z" id="Fill-14" fill="#F0F0F0"></path>
                    <path d="M39.4472492,202.690399 L291.011435,202.690399 L291.011435,199.238403 L39.4472492,199.238403 L39.4472492,202.690399 Z" id="Fill-15" fill="#F0F0F0"></path>
                    <path d="M39.4472492,193.62891 L291.011435,193.62891 L291.011435,190.176915 L39.4472492,190.176915 L39.4472492,193.62891 Z" id="Fill-16" fill="#F0F0F0"></path>
                    <path d="M39.4472492,184.567422 L291.011435,184.567422 L291.011435,181.115426 L39.4472492,181.115426 L39.4472492,184.567422 Z" id="Fill-17" fill="#F0F0F0"></path>
                    <path d="M43.0062567,276.048328 L56.9014024,276.048328 L56.9014024,262.153182 L43.0062567,262.153182 L43.0062567,276.048328 Z" id="Fill-18" fill="#FFFFFF"></path>
                    <path d="M43.8688242,275.184898 L56.0384035,275.184898 L56.0384035,263.01575 L43.8688242,263.01575 L43.8688242,275.184898 Z M42.1428263,276.910895 L57.7644013,276.910895 L57.7644013,261.289752 L42.1428263,261.289752 L42.1428263,276.910895 Z" id="Fill-19" fill="#F0F0F0"></path>
                    <path d="M59.5477886,276.048328 L73.4429342,276.048328 L73.4429342,262.153182 L59.5477886,262.153182 L59.5477886,276.048328 Z" id="Fill-20" fill="#FFFFFF"></path>
                    <path d="M60.410356,275.184898 L72.5799353,275.184898 L72.5799353,263.01575 L60.410356,263.01575 L60.410356,275.184898 Z M58.6843581,276.910895 L74.3059331,276.910895 L74.3059331,261.289752 L58.6843581,261.289752 L58.6843581,276.910895 Z" id="Fill-21" fill="#F0F0F0"></path>
                    <path d="M62.6990291,260.464725 L70.2912621,260.464725 L70.2912621,252.872492 L62.6990291,252.872492 L62.6990291,260.464725 Z" id="Fill-22" fill="#FFFFFF"></path>
                    <path d="M63.562028,259.601726 L69.4282632,259.601726 L69.4282632,253.735491 L63.562028,253.735491 L63.562028,259.601726 Z M61.8360302,261.327724 L71.1542611,261.327724 L71.1542611,252.009493 L61.8360302,252.009493 L61.8360302,261.327724 Z" id="Fill-23" fill="#F0F0F0"></path>
                    <path d="M234.393959,282.876807 L248.289105,282.876807 L248.289105,257.378641 L234.393959,257.378641 L234.393959,282.876807 Z" id="Fill-24" fill="#FFFFFF"></path>
                    <path d="M235.256958,282.013808 L247.426106,282.013808 L247.426106,258.24164 L235.256958,258.24164 L235.256958,282.013808 Z M233.531392,283.739806 L249.152535,283.739806 L249.152535,256.515642 L233.531392,256.515642 L233.531392,283.739806 Z" id="Fill-25" fill="#F0F0F0"></path>
                    <path d="M237.545631,255.690183 L245.137864,255.690183 L245.137864,248.09795 L237.545631,248.09795 L237.545631,255.690183 Z" id="Fill-26" fill="#FFFFFF"></path>
                    <path d="M238.40863,254.827184 L244.274865,254.827184 L244.274865,248.960949 L238.40863,248.960949 L238.40863,254.827184 Z M236.682632,256.553182 L246.000863,256.553182 L246.000863,247.234951 L236.682632,247.234951 L236.682632,256.553182 Z" id="Fill-27" fill="#F0F0F0"></path>
                    <path d="M224.99288,282.876807 L238.888026,282.876807 L238.888026,268.981661 L224.99288,268.981661 L224.99288,282.876807 Z" id="Fill-28" fill="#FFFFFF"></path>
                    <path d="M225.855448,282.013808 L238.024595,282.013808 L238.024595,269.84466 L225.855448,269.84466 L225.855448,282.013808 Z M224.129881,283.739806 L239.751025,283.739806 L239.751025,268.118662 L224.129881,268.118662 L224.129881,283.739806 Z" id="Fill-29" fill="#F0F0F0"></path>
                    <path d="M98.8194175,276.048328 L112.714563,276.048328 L112.714563,262.153182 L98.8194175,262.153182 L98.8194175,276.048328 Z" id="Fill-30" fill="#FFFFFF"></path>
                    <path d="M99.6819849,275.184898 L111.851564,275.184898 L111.851564,263.01575 L99.6819849,263.01575 L99.6819849,275.184898 Z M97.9559871,276.910895 L113.577562,276.910895 L113.577562,261.289752 L97.9559871,261.289752 L97.9559871,276.910895 Z" id="Fill-31" fill="#F0F0F0"></path>
                    <path d="M101.970658,260.464725 L109.562891,260.464725 L109.562891,252.872492 L101.970658,252.872492 L101.970658,260.464725 Z" id="Fill-32" fill="#FFFFFF"></path>
                    <path d="M102.833657,259.601726 L108.699892,259.601726 L108.699892,253.735491 L102.833657,253.735491 L102.833657,259.601726 Z M101.107659,261.327724 L110.42589,261.327724 L110.42589,252.009493 L101.107659,252.009493 L101.107659,261.327724 Z" id="Fill-33" fill="#F0F0F0"></path>
                    <path d="M78.764617,255.109385 L86.3568501,255.109385 L86.3568501,247.517152 L78.764617,247.517152 L78.764617,255.109385 Z" id="Fill-34" fill="#FFFFFF"></path>
                    <path d="M79.6280475,254.246386 L85.4942826,254.246386 L85.4942826,248.380151 L79.6280475,248.380151 L79.6280475,254.246386 Z M77.9016181,255.972384 L87.219849,255.972384 L87.219849,246.654153 L77.9016181,246.654153 L77.9016181,255.972384 Z" id="Fill-35" fill="#F0F0F0"></path>
                    <path d="M125.572384,276.06904 L135.004962,276.06904 L135.004962,266.636462 L125.572384,266.636462 L125.572384,276.06904 Z" id="Fill-36" fill="#FFFFFF"></path>
                    <path d="M126.435383,275.205609 L134.141963,275.205609 L134.141963,267.499029 L126.435383,267.499029 L126.435383,275.205609 Z M124.709385,276.931607 L135.867961,276.931607 L135.867961,265.773031 L124.709385,265.773031 L124.709385,276.931607 Z" id="Fill-37" fill="#F0F0F0"></path>
                    <path d="M115.33808,276.06904 L129.233225,276.06904 L129.233225,250.570874 L115.33808,250.570874 L115.33808,276.06904 Z" id="Fill-38" fill="#FFFFFF"></path>
                    <path d="M116.201079,275.205609 L128.370227,275.205609 L128.370227,251.433441 L116.201079,251.433441 L116.201079,275.205609 Z M114.475081,276.931607 L130.096224,276.931607 L130.096224,249.707443 L114.475081,249.707443 L114.475081,276.931607 Z" id="Fill-39" fill="#F0F0F0"></path>
                    <path d="M137.59137,276.048328 L151.486516,276.048328 L151.486516,258.582956 L137.59137,258.582956 L137.59137,276.048328 Z" id="Fill-40" fill="#FFFFFF"></path>
                    <path d="M138.453937,275.184898 L150.623517,275.184898 L150.623517,259.445523 L138.453937,259.445523 L138.453937,275.184898 Z M136.72794,276.910895 L152.349515,276.910895 L152.349515,257.719525 L136.72794,257.719525 L136.72794,276.910895 Z" id="Fill-41" fill="#F0F0F0"></path>
                    <path d="M154.573031,276.048328 L168.468177,276.048328 L168.468177,262.153182 L154.573031,262.153182 L154.573031,276.048328 Z" id="Fill-42" fill="#FFFFFF"></path>
                    <path d="M155.43603,275.184898 L167.605609,275.184898 L167.605609,263.01575 L155.43603,263.01575 L155.43603,275.184898 Z M153.709601,276.910895 L169.331176,276.910895 L169.331176,261.289752 L153.709601,261.289752 L153.709601,276.910895 Z" id="Fill-43" fill="#F0F0F0"></path>
                    <path d="M171.114995,276.048328 L185.01014,276.048328 L185.01014,262.153182 L171.114995,262.153182 L171.114995,276.048328 Z" id="Fill-44" fill="#FFFFFF"></path>
                    <path d="M171.977562,275.184898 L184.147141,275.184898 L184.147141,263.01575 L171.977562,263.01575 L171.977562,275.184898 Z M170.251564,276.910895 L185.873139,276.910895 L185.873139,261.289752 L170.251564,261.289752 L170.251564,276.910895 Z" id="Fill-45" fill="#F0F0F0"></path>
                    <path d="M174.266235,260.464725 L181.858468,260.464725 L181.858468,252.872492 L174.266235,252.872492 L174.266235,260.464725 Z" id="Fill-46" fill="#FFFFFF"></path>
                    <path d="M175.129234,259.601726 L180.995469,259.601726 L180.995469,253.735491 L175.129234,253.735491 L175.129234,259.601726 Z M173.403236,261.327724 L182.721467,261.327724 L182.721467,252.009493 L173.403236,252.009493 L173.403236,261.327724 Z" id="Fill-47" fill="#F0F0F0"></path>
                    <path d="M154.630421,261.357066 L162.222654,261.357066 L162.222654,253.764833 L154.630421,253.764833 L154.630421,261.357066 Z" id="Fill-48" fill="#FFFFFF"></path>
                    <path d="M155.49342,260.494498 L161.359655,260.494498 L161.359655,254.628263 L155.49342,254.628263 L155.49342,260.494498 Z M153.767422,262.220496 L163.085653,262.220496 L163.085653,252.902265 L153.767422,252.902265 L153.767422,262.220496 Z" id="Fill-49" fill="#F0F0F0"></path>
                    <path d="M163.555556,261.357066 L171.147789,261.357066 L171.147789,253.764833 L163.555556,253.764833 L163.555556,261.357066 Z" id="Fill-50" fill="#FFFFFF"></path>
                    <path d="M164.418986,260.494498 L170.285221,260.494498 L170.285221,254.628263 L164.418986,254.628263 L164.418986,260.494498 Z M162.692557,262.220496 L172.010787,262.220496 L172.010787,252.902265 L162.692557,252.902265 L162.692557,262.220496 Z" id="Fill-51" fill="#F0F0F0"></path>
                    <path d="M121.606472,248.861704 L129.198706,248.861704 L129.198706,241.269471 L121.606472,241.269471 L121.606472,248.861704 Z" id="Fill-52" fill="#FFFFFF"></path>
                    <path d="M122.469471,247.999137 L128.335707,247.999137 L128.335707,242.132902 L122.469471,242.132902 L122.469471,247.999137 Z M120.743474,249.725135 L130.061704,249.725135 L130.061704,240.406904 L120.743474,240.406904 L120.743474,249.725135 Z" id="Fill-53" fill="#F0F0F0"></path>
                    <path d="M40.3104207,284.675124 L40.3104207,278.634132 L185.725739,278.634132 L185.725739,284.675124 L181.410744,284.675124 L181.410744,282.086127 L163.719266,282.086127 L163.719266,284.675124 L145.596289,284.675124 L145.596289,282.086127 L125.315814,282.086127 L125.315814,284.675124 L105.466839,284.675124 L105.466839,282.086127 L86.0493635,282.086127 L86.0493635,284.675124 L63.6113916,284.675124 L63.6113916,282.086127 L45.0569148,282.086127 L45.0569148,284.675124 L40.3104207,284.675124 Z" id="Fill-54" fill="#ECECEC"></path>
                    <path d="M244.628695,282.876807 L254.061273,282.876807 L254.061273,273.444229 L244.628695,273.444229 L244.628695,282.876807 Z" id="Fill-55" fill="#FFFFFF"></path>
                    <path d="M245.059763,282.445307 L253.629342,282.445307 L253.629342,273.875728 L245.059763,273.875728 L245.059763,282.445307 Z M244.197195,283.308306 L254.492772,283.308306 L254.492772,273.012729 L244.197195,273.012729 L244.197195,283.308306 Z" id="Fill-56" fill="#F0F0F0"></path>
                    <g id="Group-86" transform="translate(0.000000, 0.418123)">
                        <path d="M351.82356,253.020065 L371.292384,253.020065 C371.945674,253.020065 372.546321,253.376915 372.859159,253.950378 L382.844488,272.256311 C382.987314,272.518662 383.062395,272.812513 383.062395,273.111111 L383.062395,291.398921 C383.062395,292.384898 382.263258,293.184035 381.277282,293.184035 L279.508565,293.184035 C278.95754,293.184035 278.437584,292.929881 278.09972,292.49493 L272.923883,285.840345 C272.585588,285.405825 272.065631,285.151241 271.514606,285.151241 L269.710076,285.151241 C268.724531,285.151241 267.924962,284.352104 267.924962,283.366127 L267.924962,272.655879 L351.82356,253.020065 L351.82356,253.020065 Z" id="Fill-57" fill="#2462D6"></path>
                        <path d="M381.277195,294.047077 L279.508479,294.047077 C278.685609,294.047077 277.924013,293.674693 277.418727,293.025286 L272.24246,286.37027 C272.068997,286.147184 271.797152,286.014283 271.514951,286.014283 L269.709989,286.014283 C268.250227,286.014283 267.062309,284.826365 267.062309,283.36617 L267.062309,272.655922 L268.788306,272.655922 L268.788306,283.36617 C268.788306,283.874477 269.202114,284.288285 269.709989,284.288285 L271.514951,284.288285 C272.337821,284.288285 273.099849,284.6611 273.605135,285.310939 L278.780971,291.965523 C278.956591,292.191197 279.221963,292.321079 279.508479,292.321079 L381.277195,292.321079 C381.785502,292.321079 382.19931,291.907271 382.19931,291.398964 L382.19931,273.110723 C382.19931,272.956677 382.160475,272.80479 382.08712,272.670162 L372.101359,254.363797 C371.939547,254.067357 371.62973,253.883107 371.291866,253.883107 L351.823474,253.883107 L351.823474,252.157109 L371.291866,252.157109 C372.261877,252.157109 373.152923,252.686127 373.616785,253.537476 L383.602114,271.842977 C383.813118,272.229601 383.925307,272.668436 383.925307,273.110723 L383.925307,291.398964 C383.925307,292.859159 382.737389,294.047077 381.277195,294.047077" id="Fill-59" fill="#2462D6"></path>
                        <path d="M358.657217,265.249968 L365.233269,271.292686 C365.562503,271.595167 365.993571,271.763452 366.441036,271.763452 L373.058943,271.763452 C374.379763,271.763452 375.243193,270.378339 374.661532,269.192578 L369.848587,259.374671 C369.548695,258.762805 368.926904,258.375318 368.245566,258.375318 L359.858943,258.375318 C358.872104,258.375318 358.072535,259.176181 358.074261,260.16302 L358.079871,263.938209 C358.080734,264.437023 358.290011,264.912535 358.657217,265.249968" id="Fill-61" fill="#FFFFFF"></path>
                        <path d="M303.333592,295.38973 C303.333592,300.378727 299.289148,304.423172 294.300151,304.423172 C289.311154,304.423172 285.267141,300.378727 285.267141,295.38973 C285.267141,290.400734 289.311154,286.356289 294.300151,286.356289 C299.289148,286.356289 303.333592,290.400734 303.333592,295.38973" id="Fill-63" fill="#13489E"></path>
                        <path d="M294.300539,287.003625 C289.67616,287.003625 285.913916,290.765868 285.913916,295.389817 C285.913916,300.013333 289.67616,303.775577 294.300539,303.775577 C298.924488,303.775577 302.686731,300.013333 302.686731,295.389817 C302.686731,290.765868 298.924488,287.003625 294.300539,287.003625 M294.300539,305.070076 C288.96246,305.070076 284.619417,300.727465 284.619417,295.389817 C284.619417,290.051737 288.96246,285.709126 294.300539,285.709126 C299.638188,285.709126 303.98123,290.051737 303.98123,295.389817 C303.98123,300.727465 299.638188,305.070076 294.300539,305.070076" id="Fill-65" fill="#FFFFFF"></path>
                        <path d="M369.381316,295.38973 C369.381316,300.378727 365.336872,304.423172 360.347875,304.423172 C355.358878,304.423172 351.314865,300.378727 351.314865,295.38973 C351.314865,290.400734 355.358878,286.356289 360.347875,286.356289 C365.336872,286.356289 369.381316,290.400734 369.381316,295.38973" id="Fill-67" fill="#13489E"></path>
                        <path d="M360.348177,287.003625 C355.724229,287.003625 351.961985,290.765868 351.961985,295.389817 C351.961985,300.013333 355.724229,303.775577 360.348177,303.775577 C364.972125,303.775577 368.734369,300.013333 368.734369,295.389817 C368.734369,290.765868 364.972125,287.003625 360.348177,287.003625 M360.348177,305.070076 C355.010529,305.070076 350.667487,300.727465 350.667487,295.389817 C350.667487,290.051737 355.010529,285.709126 360.348177,285.709126 C365.685825,285.709126 370.028867,290.051737 370.028867,295.389817 C370.028867,300.727465 365.685825,305.070076 360.348177,305.070076" id="Fill-69" fill="#FFFFFF"></path>
                        <mask id="mask-2" fill="white">
                            <use xlink:href="#path-1"></use>
                        </mask>
                        <g id="Clip-72"></g>
                        <path d="M267.278964,273.469687 L350.98986,273.469687 L350.98986,225.573247 L267.278964,225.573247 L267.278964,273.469687 Z" id="Fill-71" fill="#FFFFFF" mask="url(#mask-2)"></path>
                        <path d="M269.004962,271.743689 L349.695361,271.743689 L349.695361,226.867745 L269.004962,226.867745 L269.004962,271.743689 Z M265.984466,274.764186 L352.715858,274.764186 L352.715858,223.847249 L265.984466,223.847249 L265.984466,274.764186 Z" id="Fill-73" fill="#2462D6" mask="url(#mask-2)"></path>
                        <path d="M344.460108,83.4264941 C344.460108,102.729622 328.81178,118.378382 309.50822,118.378382 C290.205092,118.378382 274.556764,102.729622 274.556764,83.4264941 C274.556764,64.1233657 290.205092,48.4746063 309.50822,48.4746063 C328.81178,48.4746063 344.460108,64.1233657 344.460108,83.4264941" id="Fill-74" fill="#FFFFFF" mask="url(#mask-2)"></path>
                        <path d="M309.539935,114.14904 C292.88794,114.14904 279.38028,100.646559 279.38028,83.9893851 C279.38028,67.3326429 292.882762,53.8301618 309.539935,53.8301618 C326.197109,53.8301618 339.704337,67.3326429 339.704337,83.9893851 C339.704337,100.641381 326.197109,114.14904 309.539935,114.14904 M309.539935,43.9367422 C287.4148,43.9367422 269.486861,61.8642503 269.486861,83.9846386 C269.486861,106.109773 287.4148,124.037282 309.539935,124.037282 C331.655146,124.037282 349.587832,106.109773 349.587832,83.9846386 C349.587832,61.8689968 331.655146,43.9367422 309.539935,43.9367422 M354.522028,45.3507659 C353.572729,44.2133333 352.564315,43.1009277 351.491176,42.0282201 C350.423215,40.9550809 349.310809,39.9514132 348.178554,38.9973679 C347.422136,38.3596117 345.197325,37.8405178 343.788479,39.2493635 C342.38438,40.6586408 335.640475,47.3926214 335.640475,47.3926214 C337.627961,48.8165696 339.561079,50.3837756 341.350939,52.1688889 C343.140798,53.9535707 344.69808,55.8866882 346.126775,57.8793528 C346.126775,57.8793528 352.865933,51.1453722 354.270032,49.7360949 C355.684056,48.3220712 355.164962,46.1020065 354.522028,45.3507659 M294.909946,41.4746063 C299.498511,39.8776268 304.412859,38.9926214 309.539935,38.9926214 C314.667012,38.9926214 319.581791,39.8776268 324.169924,41.4746063 C325.796246,42.0381446 327.952017,40.90589 326.997972,38.4536785 C326.300669,36.6737433 325.628393,34.9330744 325.356548,34.2262783 C324.708867,32.5503344 322.389989,31.1656526 321.381143,30.9382524 C317.564531,30.078274 313.608975,29.5984466 309.539935,29.5984466 C305.470895,29.5984466 301.51534,30.078274 297.693549,30.9382524 C296.685135,31.1656526 294.371003,32.5503344 293.723323,34.2262783 C293.451478,34.9330744 292.774024,36.6737433 292.081899,38.4536785 C291.127853,40.90589 293.283625,42.042891 294.909946,41.4746063 M296.566472,62.9468824 C294.356332,64.3065372 302.484488,83.9203452 304.467228,87.1143042 C306.19754,89.9272492 309.871327,90.7829126 312.664854,89.0620928 C315.473053,87.3218554 316.348134,83.653247 314.617821,80.854973 C312.65493,77.6510895 298.771435,61.5824811 296.566472,62.9468824" id="Fill-75" fill="#2462D6" mask="url(#mask-2)"></path>
                        <path d="M272.3663,8.77005394 C272.3663,10.1508522 271.249148,11.2680043 269.86835,11.2680043 L257.352708,11.2680043 C255.972341,11.2680043 254.855189,10.1508522 254.855189,8.77005394 C254.855189,7.38968716 255.972341,6.27210356 257.352708,6.27210356 L269.86835,6.27210356 C271.249148,6.27210356 272.3663,7.38968716 272.3663,8.77005394" id="Fill-76" fill="#13489E" mask="url(#mask-2)"></path>
                        <path d="M266.1074,2.51115426 L266.1074,15.0293851 C266.1074,16.4097519 264.990248,17.526904 263.60945,17.526904 C262.228652,17.526904 261.111931,16.4097519 261.111931,15.0293851 L261.111931,2.51115426 C261.111931,1.13035599 262.228652,0.0132038835 263.60945,0.0132038835 C264.990248,0.0132038835 266.1074,1.13035599 266.1074,2.51115426" id="Fill-77" fill="#13489E" mask="url(#mask-2)"></path>
                        <path d="M399.930356,63.7067098 C399.930356,64.9973247 398.886127,66.0419849 397.595512,66.0419849 L385.897131,66.0419849 C384.606516,66.0419849 383.562287,64.9973247 383.562287,63.7067098 C383.562287,62.4160949 384.606516,61.3718662 385.897131,61.3718662 L397.595512,61.3718662 C398.886127,61.3718662 399.930356,62.4160949 399.930356,63.7067098" id="Fill-78" fill="#13489E" mask="url(#mask-2)"></path>
                        <path d="M394.081251,57.8531607 L394.081251,69.5580151 C394.081251,70.84863 393.037023,71.8932902 391.746408,71.8932902 C390.455793,71.8932902 389.411133,70.84863 389.411133,69.5580151 L389.411133,57.8531607 C389.411133,56.5621143 390.455793,55.5178857 391.746408,55.5178857 C393.037023,55.5178857 394.081251,56.5621143 394.081251,57.8531607" id="Fill-79" fill="#13489E" mask="url(#mask-2)"></path>
                        <path d="M352.222265,7.25354908 C352.222265,8.17782093 351.474477,8.92517799 350.550636,8.92517799 L342.175663,8.92517799 C341.251823,8.92517799 340.504035,8.17782093 340.504035,7.25354908 C340.504035,6.32970874 341.251823,5.58192017 342.175663,5.58192017 L350.550636,5.58192017 C351.474477,5.58192017 352.222265,6.32970874 352.222265,7.25354908" id="Fill-80" fill="#13489E" mask="url(#mask-2)"></path>
                        <path d="M348.034908,3.06468177 L348.034908,11.4426753 C348.034908,12.3665156 347.28712,13.1143042 346.363279,13.1143042 C345.439439,13.1143042 344.69165,12.3665156 344.69165,11.4426753 L344.69165,3.06468177 C344.69165,2.14040992 345.439439,1.39305286 346.363279,1.39305286 C347.28712,1.39305286 348.034908,2.14040992 348.034908,3.06468177" id="Fill-81" fill="#13489E" mask="url(#mask-2)"></path>
                        <path d="M236.309169,74.9259547 C236.309169,75.6595038 235.715426,76.253247 234.981877,76.253247 L228.330744,76.253247 C227.596764,76.253247 227.00302,75.6595038 227.00302,74.9259547 C227.00302,74.1919741 227.596764,73.5986624 228.330744,73.5986624 L234.981877,73.5986624 C235.715426,73.5986624 236.309169,74.1919741 236.309169,74.9259547" id="Fill-82" fill="#13489E" mask="url(#mask-2)"></path>
                        <path d="M232.98425,71.5997411 L232.98425,78.2521683 C232.98425,78.9857174 232.390507,79.5794606 231.656958,79.5794606 C230.923409,79.5794606 230.329666,78.9857174 230.329666,78.2521683 L230.329666,71.5997411 C230.329666,70.866192 230.923409,70.2724488 231.656958,70.2724488 C232.390507,70.2724488 232.98425,70.866192 232.98425,71.5997411" id="Fill-83" fill="#13489E" mask="url(#mask-2)"></path>
                        <path d="M352.471154,136.853376 C352.471154,137.819072 351.689709,138.600949 350.723581,138.600949 L341.968026,138.600949 C341.001899,138.600949 340.220453,137.819072 340.220453,136.853376 C340.220453,135.887681 341.001899,135.105804 341.968026,135.105804 L350.723581,135.105804 C351.689709,135.105804 352.471154,135.887681 352.471154,136.853376" id="Fill-84" fill="#13489E" mask="url(#mask-2)"></path>
                        <path d="M348.092341,132.472967 L348.092341,141.23068 C348.092341,142.196375 347.310895,142.977821 346.344768,142.977821 C345.379072,142.977821 344.597627,142.196375 344.597627,141.23068 L344.597627,132.472967 C344.597627,131.506839 345.379072,130.725394 346.344768,130.725394 C347.310895,130.725394 348.092341,131.506839 348.092341,132.472967" id="Fill-85" fill="#13489E" mask="url(#mask-2)"></path>
                    </g>
                </g>
            </g>
        </g>
    </g>
</svg>