<?xml version="1.0" encoding="UTF-8" standalone="no"?>
<svg width="400px" height="286px" viewBox="0 0 400 286" version="1.1" xmlns="http://www.w3.org/2000/svg" xmlns:xlink="http://www.w3.org/1999/xlink">
    <!-- Generator: sketchtool 3.6.1 (26313) - http://www.bohemiancoding.com/sketch -->
    <title>-g-graphic03</title>
    <desc>Created with sketchtool.</desc>
    <defs>
        <path id="path-1" d="M0,285.440323 L400,285.440323 L400,0 L0,0 L0,285.440323 Z"></path>
    </defs>
    <g id="Pagina-principal" stroke="none" stroke-width="1" fill="none" fill-rule="evenodd">
        <g id="Pagina-Principal---lg" transform="translate(-247.000000, -1282.000000)">
            <g id="section3" transform="translate(247.000000, 1282.000000)">
                <g id="-g-graphic03">
                    <path d="M248.790323,264.472581 L393.951613,264.472581 L393.951613,199.625 L324.490726,165.625403 C322.548387,164.674194 320.219758,164.674194 318.277419,165.625403 L248.790323,199.625 L248.790323,264.472581 L248.790323,264.472581 Z M400,269.31129 L241.935484,269.31129 L241.935484,200.152016 C241.935484,197.475403 243.429839,195.032661 245.835887,193.859677 L317.829839,158.744355 C319.766532,157.8 322.022177,157.8 323.959274,158.744355 L396.018548,193.859677 C398.424597,195.032661 400,197.475403 400,200.152016 L400,269.31129 L400,269.31129 Z" id="Fill-1" fill="#ECECEC"></path>
                    <mask id="mask-2" fill="white">
                        <use xlink:href="#path-1"></use>
                    </mask>
                    <g id="Clip-4"></g>
                    <path d="M277.871774,262.226613 L363.893145,262.226613 L363.893145,212.151613 L277.871774,212.151613 L277.871774,262.226613 Z M274.272984,265.825806 L367.492339,265.825806 L367.492339,208.552823 L274.272984,208.552823 L274.272984,265.825806 Z" id="Fill-3" fill="#ECECEC" mask="url(#mask-2)"></path>
                    <path d="M277.016129,223.343548 L365.725806,223.343548 L365.725806,218.908065 L277.016129,218.908065 L277.016129,223.343548 Z" id="Fill-5" fill="#ECECEC" mask="url(#mask-2)"></path>
                    <path d="M277.016129,234.230645 L365.725806,234.230645 L365.725806,229.795161 L277.016129,229.795161 L277.016129,234.230645 Z" id="Fill-6" fill="#ECECEC" mask="url(#mask-2)"></path>
                    <path d="M277.016129,243.504839 L365.725806,243.504839 L365.725806,240.682258 L277.016129,240.682258 L277.016129,243.504839 Z" id="Fill-7" fill="#ECECEC" mask="url(#mask-2)"></path>
                    <path d="M277.016129,254.391935 L365.725806,254.391935 L365.725806,250.762903 L277.016129,250.762903 L277.016129,254.391935 Z" id="Fill-8" fill="#ECECEC" mask="url(#mask-2)"></path>
                    <path d="M277.016129,264.472581 L365.725806,264.472581 L365.725806,259.633871 L277.016129,259.633871 L277.016129,264.472581 Z" id="Fill-9" fill="#ECECEC" mask="url(#mask-2)"></path>
                    <path d="M6.85483871,264.472581 L152.016129,264.472581 L152.016129,199.625 L82.5552419,165.625403 C80.6129032,164.674194 78.2842742,164.674194 76.3419355,165.625403 L6.85483871,199.625 L6.85483871,264.472581 Z M158.064516,269.31129 L0,269.31129 L0,200.152016 C0,197.475403 1.49435484,195.032661 3.90040323,193.859677 L75.8943548,158.744355 C77.8310484,157.8 80.0866935,157.8 82.0237903,158.744355 L154.083065,193.859677 C156.489113,195.032661 158.064516,197.475403 158.064516,200.152016 L158.064516,269.31129 Z" id="Fill-10" fill="#ECECEC" mask="url(#mask-2)"></path>
                    <path d="M35.9362903,262.226613 L121.957661,262.226613 L121.957661,212.151613 L35.9362903,212.151613 L35.9362903,262.226613 Z M32.3375,265.825806 L125.556855,265.825806 L125.556855,208.552823 L32.3375,208.552823 L32.3375,265.825806 Z" id="Fill-11" fill="#ECECEC" mask="url(#mask-2)"></path>
                    <path d="M35.0806452,223.343548 L123.790323,223.343548 L123.790323,218.908065 L35.0806452,218.908065 L35.0806452,223.343548 Z" id="Fill-12" fill="#ECECEC" mask="url(#mask-2)"></path>
                    <path d="M35.0806452,234.230645 L123.790323,234.230645 L123.790323,229.795161 L35.0806452,229.795161 L35.0806452,234.230645 Z" id="Fill-13" fill="#ECECEC" mask="url(#mask-2)"></path>
                    <path d="M35.0806452,243.504839 L123.790323,243.504839 L123.790323,240.682258 L35.0806452,240.682258 L35.0806452,243.504839 Z" id="Fill-14" fill="#ECECEC" mask="url(#mask-2)"></path>
                    <path d="M35.0806452,254.391935 L123.790323,254.391935 L123.790323,250.762903 L35.0806452,250.762903 L35.0806452,254.391935 Z" id="Fill-15" fill="#ECECEC" mask="url(#mask-2)"></path>
                    <path d="M35.0806452,264.472581 L123.790323,264.472581 L123.790323,259.633871 L35.0806452,259.633871 L35.0806452,264.472581 Z" id="Fill-16" fill="#ECECEC" mask="url(#mask-2)"></path>
                    <path d="M112.742419,283.693024 L112.742419,202.610766 L197.446048,162.187782 L208.467823,165.902702 L284.274274,202.510363 L286.424677,282.886573 L112.742419,283.693024 Z" id="Fill-17" fill="#FFFFFF" mask="url(#mask-2)"></path>
                    <path d="M116.532258,279.795161 L282.66129,279.795161 L282.66129,205.617742 L203.256855,166.718952 C201.034677,165.630645 198.312097,165.630645 196.089919,166.718952 L116.532258,205.617742 L116.532258,279.795161 Z M289.516129,285.440323 L108.870968,285.440323 L108.870968,206.220968 C108.870968,203.158065 110.580645,200.36371 113.333065,199.021371 L195.70121,158.846371 C197.916935,157.765726 200.497581,157.765726 202.713306,158.846371 L285.058468,199.021371 C287.81129,200.36371 289.516129,203.158065 289.516129,206.220968 L289.516129,285.440323 Z" id="Fill-18" fill="#ECECEC" mask="url(#mask-2)"></path>
                    <path d="M149.985484,277.239919 L248.402016,277.239919 L248.402016,219.949597 L149.985484,219.949597 L149.985484,277.239919 Z M145.867742,281.357258 L252.519355,281.357258 L252.519355,215.831855 L145.867742,215.831855 L145.867742,281.357258 Z" id="Fill-19" fill="#ECECEC" mask="url(#mask-2)"></path>
                    <path d="M148.790323,232.617742 L250.403226,232.617742 L250.403226,227.779032 L148.790323,227.779032 L148.790323,232.617742 Z" id="Fill-20" fill="#ECECEC" mask="url(#mask-2)"></path>
                    <path d="M148.790323,245.117742 L250.403226,245.117742 L250.403226,240.279032 L148.790323,240.279032 L148.790323,245.117742 Z" id="Fill-21" fill="#ECECEC" mask="url(#mask-2)"></path>
                    <path d="M148.790323,256.004839 L250.403226,256.004839 L250.403226,252.375806 L148.790323,252.375806 L148.790323,256.004839 Z" id="Fill-22" fill="#ECECEC" mask="url(#mask-2)"></path>
                    <path d="M148.790323,268.101613 L250.403226,268.101613 L250.403226,264.069355 L148.790323,264.069355 L148.790323,268.101613 Z" id="Fill-23" fill="#ECECEC" mask="url(#mask-2)"></path>
                    <path d="M148.790323,279.795161 L250.403226,279.795161 L250.403226,274.15 L148.790323,274.15 L148.790323,279.795161 Z" id="Fill-24" fill="#ECECEC" mask="url(#mask-2)"></path>
                    <path d="M199.193548,24.8270161 C198.098387,24.8270161 197.2125,23.9399194 197.2125,22.8459677 L197.2125,1.98145161 C197.2125,0.887096774 198.098387,0 199.193548,0 C200.28871,0 201.174597,0.887096774 201.174597,1.98145161 L201.174597,22.8459677 C201.174597,23.9399194 200.28871,24.8270161 199.193548,24.8270161" id="Fill-25" fill="#13489E" mask="url(#mask-2)"></path>
                    <path d="M305.187419,109.956331 L284.322903,109.956331 C283.227742,109.956331 282.341855,109.069234 282.341855,107.975282 C282.341855,106.880927 283.227742,105.993831 284.322903,105.993831 L305.187419,105.993831 C306.282581,105.993831 307.168468,106.880927 307.168468,107.975282 C307.168468,109.069234 306.282581,109.956331 305.187419,109.956331" id="Fill-26" fill="#13489E" mask="url(#mask-2)"></path>
                    <path d="M114.064032,109.956331 L93.1995161,109.956331 C92.1043548,109.956331 91.2184677,109.069234 91.2184677,107.975282 C91.2184677,106.880927 92.1043548,105.993831 93.1995161,105.993831 L114.064032,105.993831 C115.159194,105.993831 116.045081,106.880927 116.045081,107.975282 C116.045081,109.069234 115.159194,109.956331 114.064032,109.956331" id="Fill-27" fill="#13489E" mask="url(#mask-2)"></path>
                    <path d="M259.387782,49.7603226 C258.880927,49.7603226 258.374073,49.5667742 257.986976,49.1796774 C257.213185,48.4058871 257.213185,47.1522581 257.986976,46.3780645 L272.741411,31.6244355 C273.515202,30.8506452 274.768831,30.8506452 275.543024,31.6244355 C276.316815,32.398629 276.316815,33.6522581 275.543024,34.4264516 L260.788589,49.1796774 C260.401492,49.5667742 259.894637,49.7603226 259.387782,49.7603226" id="Fill-28" fill="#13489E" mask="url(#mask-2)"></path>
                    <path d="M124.244758,184.905081 C123.737903,184.905081 123.231048,184.711532 122.843952,184.324839 C122.070161,183.550645 122.070161,182.297016 122.843952,181.523226 L137.598387,166.769597 C138.372177,165.995806 139.62621,165.995806 140.4,166.769597 C141.17379,167.543387 141.17379,168.797419 140.4,169.57121 L125.645565,184.324839 C125.258468,184.711532 124.751613,184.905081 124.244758,184.905081" id="Fill-29" fill="#13489E" mask="url(#mask-2)"></path>
                    <path d="M274.142097,184.905081 C273.635242,184.905081 273.128387,184.711532 272.74129,184.324839 L257.986855,169.57121 C257.213065,168.797419 257.213065,167.543387 257.986855,166.769597 C258.761048,165.995806 260.014677,165.995806 260.788468,166.769597 L275.542903,181.523226 C276.316694,182.297016 276.316694,183.550645 275.542903,184.324839 C275.15621,184.711532 274.648952,184.905081 274.142097,184.905081" id="Fill-30" fill="#13489E" mask="url(#mask-2)"></path>
                    <path d="M138.999113,49.7603226 C138.492258,49.7603226 137.985403,49.5667742 137.598306,49.1796774 L122.843871,34.4264516 C122.070081,33.6522581 122.070081,32.398629 122.843871,31.6244355 C123.618065,30.8506452 124.871694,30.8506452 125.645484,31.6244355 L140.399919,46.3780645 C141.17371,47.1522581 141.17371,48.4058871 140.399919,49.1796774 C140.013226,49.5667742 139.505968,49.7603226 138.999113,49.7603226" id="Fill-31" fill="#13489E" mask="url(#mask-2)"></path>
                    <path d="M210.662782,86.2119758 L187.724476,86.2119758 L187.724476,69.0083468 C187.724476,62.6772984 192.868427,57.5389919 199.193427,57.5389919 C205.518831,57.5389919 210.662782,62.6772984 210.662782,69.0083468 L210.662782,86.2119758 Z M199.193427,128.068831 C195.070444,128.068831 191.738589,124.743024 191.738589,120.619637 C191.738589,116.496653 195.070444,113.15875 199.193427,113.15875 C203.316815,113.15875 206.648669,116.496653 206.648669,120.619637 C206.648669,124.743024 203.316815,128.068831 199.193427,128.068831 L199.193427,128.068831 Z M227.866815,80.4772984 L222.132137,80.4772984 L222.132137,69.0083468 C222.132137,56.3631855 211.844234,46.0696371 199.193427,46.0696371 C186.543024,46.0696371 176.255121,56.3631855 176.255121,69.0083468 L176.255121,80.4772984 L170.520444,80.4772984 C164.19504,80.4772984 159.051089,85.6156048 159.051089,91.9466532 L159.051089,132.088992 C159.051089,138.42004 164.19504,143.557944 170.520444,143.557944 L227.866815,143.557944 C234.191815,143.557944 239.335766,138.42004 239.335766,132.088992 L239.335766,91.9466532 C239.335766,85.6156048 234.191815,80.4772984 227.866815,80.4772984 L227.866815,80.4772984 Z" id="Fill-32" fill="#2964DB" mask="url(#mask-2)"></path>
                </g>
            </g>
        </g>
    </g>
</svg>