<?xml version="1.0" encoding="UTF-8" standalone="no"?>
<svg width="20px" height="20px" viewBox="0 0 20 20" version="1.1" xmlns="http://www.w3.org/2000/svg" xmlns:xlink="http://www.w3.org/1999/xlink">
    <!-- Generator: sketchtool 3.6.1 (26313) - http://www.bohemiancoding.com/sketch -->
    <title>-g-icon-gplus</title>
    <desc>Created with sketchtool.</desc>
    <defs></defs>
    <g id="Pagina-principal" stroke="none" stroke-width="1" fill="none" fill-rule="evenodd">
        <g id="Pagina-Principal---lg" transform="translate(-1231.000000, -15.000000)" fill="#FFFFFF">
            <g id="mini-bar">
                <g id="social-icons" transform="translate(1191.000000, 15.000000)">
                    <g id="-g-icon-gplus" transform="translate(40.000000, 0.000000)">
                        <path d="M8.697,6.885 C8.455,6.035 8.065,5.783 7.459,5.783 C7.394,5.783 7.328,5.793 7.265,5.81 C7.002,5.885 6.793,6.104 6.677,6.43 C6.558,6.76 6.551,7.104 6.653,7.496 C6.838,8.197 7.336,8.705 7.838,8.705 C7.904,8.705 7.97,8.697 8.032,8.678 C8.581,8.524 8.925,7.686 8.697,6.885 L8.697,6.885 Z M7.823,10.75 C7.771,10.75 7.719,10.752 7.666,10.756 C7.222,10.789 6.812,10.955 6.516,11.225 C6.222,11.491 6.072,11.827 6.093,12.166 C6.138,12.877 6.901,13.293 7.828,13.227 C8.74,13.161 9.348,12.635 9.304,11.924 C9.262,11.256 8.681,10.75 7.823,10.75 L7.823,10.75 Z M14.1,9.6 L12.6,9.6 L12.6,11.1 L11.6,11.1 L11.6,9.6 L10.1,9.6 L10.1,8.6 L11.6,8.6 L11.6,7.1 L12.6,7.1 L12.6,8.6 L14.1,8.6 L14.1,9.6 Z M9.047,13.721 C8.444,14.014 7.795,14.045 7.544,14.045 L7.469,14.045 L7.415,14.045 C7.023,14.045 5.072,13.955 5.072,12.178 C5.072,10.432 7.197,10.295 7.848,10.295 L7.865,10.295 C7.489,9.793 7.567,9.287 7.567,9.287 C7.534,9.289 7.486,9.291 7.427,9.291 C7.182,9.291 6.709,9.252 6.303,8.99 C5.805,8.67 5.553,8.125 5.553,7.371 C5.553,5.24 7.88,5.154 7.903,5.152 L10.227,5.152 L10.227,5.203 C10.227,5.463 9.76,5.514 9.442,5.557 C9.334,5.573 9.117,5.594 9.056,5.625 C9.645,5.94 9.74,6.434 9.74,7.17 C9.74,8.008 9.412,8.451 9.064,8.762 C8.848,8.955 8.679,9.106 8.679,9.309 C8.679,9.508 8.911,9.711 9.181,9.948 C9.622,10.337 10.227,10.866 10.227,11.759 C10.227,12.682 9.83,13.342 9.047,13.721 L9.047,13.721 Z M9.6,0 C4.298,0 0,4.298 0,9.6 C0,14.902 4.298,19.2 9.6,19.2 C14.902,19.2 19.2,14.902 19.2,9.6 C19.2,4.298 14.902,0 9.6,0 L9.6,0 Z" id="entypo-plus-circle"></path>
                    </g>
                </g>
            </g>
        </g>
    </g>
</svg>