<?xml version="1.0" encoding="UTF-8" standalone="no"?>
<svg width="20px" height="20px" viewBox="0 0 20 20" version="1.1" xmlns="http://www.w3.org/2000/svg" xmlns:xlink="http://www.w3.org/1999/xlink">
    <!-- Generator: sketchtool 3.6.1 (26313) - http://www.bohemiancoding.com/sketch -->
    <title>-g-icon-facebook</title>
    <desc>Created with sketchtool.</desc>
    <defs></defs>
    <g id="Pagina-principal" stroke="none" stroke-width="1" fill="none" fill-rule="evenodd">
        <g id="Pagina-Principal---lg" transform="translate(-1271.000000, -15.000000)" fill="#FFFFFF">
            <g id="mini-bar">
                <g id="social-icons" transform="translate(1191.000000, 15.000000)">
                    <g id="-g-icon-facebook" transform="translate(80.000000, 0.000000)">
                        <path d="M11.874,6.634 L10.431,6.634 C10.26,6.634 10.07,6.859 10.07,7.158 L10.07,8.2 L11.875,8.2 L11.602,9.686 L10.07,9.686 L10.07,14.147 L8.367,14.147 L8.367,9.686 L6.822,9.686 L6.822,8.2 L8.367,8.2 L8.367,7.326 C8.367,6.072 9.237,5.053 10.431,5.053 L11.874,5.053 L11.874,6.634 Z M9.6,0 C4.298,0 0,4.298 0,9.6 C0,14.902 4.298,19.2 9.6,19.2 C14.902,19.2 19.2,14.902 19.2,9.6 C19.2,4.298 14.902,0 9.6,0 L9.6,0 Z" id="entypo-fb-circle"></path>
                    </g>
                </g>
            </g>
        </g>
    </g>
</svg>