<?xml version="1.0" encoding="UTF-8" standalone="no"?>
<svg width="514px" height="526px" viewBox="0 0 514 526" version="1.1" xmlns="http://www.w3.org/2000/svg" xmlns:xlink="http://www.w3.org/1999/xlink">
    <!-- Generator: sketchtool 3.6.1 (26313) - http://www.bohemiancoding.com/sketch -->
    <title>1_5x3</title>
    <desc>Created with sketchtool.</desc>
    <defs>
        <path id="path-1" d="M86.0282457,100.921396 L171.472446,100.921396 L171.472446,0.475629549 L0.584045108,0.475629549 L0.584045108,100.921396 L86.0282457,100.921396 L86.0282457,100.921396 Z"></path>
        <path id="path-3" d="M191.504944,0.502608536 L0.513699898,0.502608536 L0.513699898,322.357827 L191.504944,322.357827 L191.504944,0.502608536 L191.504944,0.502608536 Z"></path>
    </defs>
    <g id="Tamaños-y-Precios" stroke="none" stroke-width="1" fill="none" fill-rule="evenodd">
        <g id="Tamaños-y-Precios---lg" transform="translate(-463.000000, -967.000000)">
            <g id="Content" transform="translate(150.000000, 660.000000)">
                <g id="1_5x3" transform="translate(313.000000, 306.000000)">
                    <path d="M14.2828756,321.63549 L16.2813191,321.63549 L16.2813191,119.415991 L14.2828756,119.415991 L14.2828756,321.63549 Z" id="Fill-1" fill="#2963DB"></path>
                    <path d="M0,255.152271 L33.0022957,255.152271 L33.0022957,186.499742 L0,186.499742 L0,255.152271 Z" id="Fill-2" fill="#FFFFFF"></path>
                    <g id="Group-151" transform="translate(12.989883, 0.496613)">
                        <path d="M1.45356787,201.98668 C1.31967216,202.119576 1.15779823,202.186524 0.965947658,202.186524 C0.774097084,202.186524 0.614221605,202.119576 0.486321222,201.98668 C0.358420839,201.853783 0.294470647,201.69091 0.294470647,201.49906 L0.294470647,195.327866 C0.294470647,195.083057 0.371410722,194.880215 0.526290092,194.720339 C0.681169462,194.560464 0.880014589,194.480526 1.12582314,194.480526 C1.69038342,194.480526 2.19698884,194.638403 2.64464019,194.952159 C3.09229153,195.266914 3.50796777,195.660607 3.89166892,196.135237 C4.27537007,196.609868 4.63808756,197.123468 4.97882218,197.678036 C5.31955679,198.232604 5.6602914,198.746204 6.00202524,199.220834 C6.34275985,199.695464 6.69448591,200.090157 7.0572034,200.403913 C7.41892167,200.718668 7.78163916,200.875545 8.14435666,200.875545 C8.50607493,200.875545 8.80783989,200.83058 9.04765311,200.739651 C9.28746633,200.649721 9.49230679,200.507832 9.6631737,200.315981 C10.0468749,199.889313 10.2387254,199.234823 10.2387254,198.349513 C10.2387254,197.401251 10.0468749,196.489961 9.6631737,195.615642 C9.60921573,195.509725 9.58323596,195.38682 9.58323596,195.247928 C9.58323596,195.110036 9.64119083,194.984134 9.75909899,194.872221 C9.87600794,194.760308 10.0468749,194.704352 10.2707005,194.704352 C10.4945262,194.704352 10.6703892,194.82226 10.7982896,195.056078 C11.3418662,196.143231 11.6136545,197.32631 11.6136545,198.605314 C11.6136545,199.650499 11.3148872,200.518823 10.7183519,201.211284 C10.110825,201.925727 9.3274352,202.28245 8.36818233,202.28245 C7.39793801,202.28245 6.46566413,201.797827 5.57036145,200.827583 C5.1866603,200.401914 4.82394281,199.935278 4.48320819,199.428672 C4.14147436,198.923066 3.81372962,198.434447 3.499974,197.965812 C3.18521915,197.497177 2.87645963,197.075505 2.57269622,196.702795 C2.26893281,196.330086 1.96217174,196.074285 1.65341222,195.935393 L1.65341222,201.49906 C1.65341222,201.69091 1.58646436,201.853783 1.45356787,201.98668" id="Fill-3" fill="#2963DB"></path>
                        <path d="M1.86924411,206.286631 C1.69338109,206.462494 1.4825453,206.550425 1.23773597,206.550425 L1.14181069,206.550425 C0.896002136,206.550425 0.68616557,206.462494 0.510302544,206.286631 C0.334439517,206.110768 0.246508004,205.899932 0.246508004,205.655123 L0.246508004,205.495247 C0.246508004,205.249439 0.334439517,205.039602 0.510302544,204.863739 C0.68616557,204.687876 0.896002136,204.599945 1.14181069,204.599945 L1.23773597,204.599945 C1.4825453,204.599945 1.69338109,204.687876 1.86924411,204.863739 C2.04510714,205.039602 2.13303865,205.249439 2.13303865,205.495247 L2.13303865,205.655123 C2.13303865,205.899932 2.04510714,206.110768 1.86924411,206.286631" id="Fill-5" fill="#2963DB"></path>
                        <path d="M11.2140658,216.459807 C11.0541903,216.629675 10.8543459,216.715608 10.6145327,216.715608 C10.3747195,216.715608 10.1369047,216.662649 9.90308684,216.555733 L0.614321527,212.015269 C0.347529322,211.865386 0.21463283,211.660545 0.21463283,211.399748 C0.21463283,211.138952 0.281580687,210.942105 0.414477179,210.808209 C0.54737367,210.674313 0.699255375,210.608365 0.870122293,210.608365 C1.03998999,210.608365 1.18987325,210.64034 1.31777363,210.70429 L10.0629623,215.100866 L10.0629623,209.297386 C10.0629623,209.105535 10.128911,208.943661 10.2628067,208.809766 C10.3957032,208.67587 10.5585763,208.609921 10.7504269,208.609921 C10.9422775,208.609921 11.107149,208.67587 11.2460409,208.809766 C11.3839335,208.943661 11.453879,209.105535 11.453879,209.297386 L11.453879,215.820305 C11.453879,216.076106 11.3739412,216.28894 11.2140658,216.459807" id="Fill-7" fill="#2963DB"></path>
                        <path d="M4.40297069,223.893018 L9.88669961,223.893018 L4.40297069,219.64033 L4.40297069,223.893018 Z M4.40297069,226.562938 C4.40297069,226.743797 4.33902049,226.898677 4.21112011,227.026577 C4.08321973,227.154478 3.92834036,227.218428 3.74748122,227.218428 C3.56662209,227.218428 3.41474038,227.154478 3.29183611,227.026577 C3.16993106,226.898677 3.10797931,226.743797 3.10797931,226.562938 L3.10797931,225.347885 L0.933672796,225.347885 C0.730830782,225.347885 0.560963086,225.275941 0.422071264,225.132053 C0.283179442,224.988165 0.214233142,224.8143 0.214233142,224.612457 C0.214233142,224.409615 0.283179442,224.239748 0.422071264,224.100856 C0.560963086,223.961964 0.730830782,223.893018 0.933672796,223.893018 L3.10797931,223.893018 L3.10797931,219.016816 C3.10797931,218.761015 3.19591082,218.542185 3.37177385,218.361326 C3.54763687,218.180467 3.76346877,218.089538 4.01926954,218.089538 L4.16315747,218.089538 C4.38698314,218.089538 4.57883371,218.153488 4.73870919,218.281389 L11.1497159,223.301479 C11.4055167,223.482338 11.533417,223.74913 11.533417,224.100856 L11.533417,224.420607 C11.533417,224.697391 11.4424879,224.921217 11.2616287,225.092084 C11.0807696,225.262951 10.86194,225.347885 10.6061393,225.347885 L4.40297069,225.347885 L4.40297069,226.562938 Z" id="Fill-9" fill="#2963DB"></path>
                        <path d="M7.13764075,234.618064 C8.11787728,235.267559 8.60849515,236.173853 8.60849515,237.335948 C8.60849515,237.911499 8.43762824,238.433093 8.09689362,238.902727 C7.83010142,239.286428 7.45139638,239.5792 6.96177772,239.782042 C7.43041272,240.079811 7.76115512,240.373582 7.95300569,240.661358 C8.38966559,241.268884 8.60849515,241.956349 8.60849515,242.723751 C8.60849515,243.587079 8.27775276,244.263552 7.61726719,244.75417 C7.0527069,245.179838 6.35924701,245.393672 5.53888596,245.393672 L0.934472173,245.393672 C0.73163016,245.393672 0.560763242,245.321728 0.422870641,245.17784 C0.283978819,245.033952 0.215032519,244.860087 0.215032519,244.658245 C0.215032519,244.455403 0.283978819,244.284536 0.422870641,244.146643 C0.560763242,244.007751 0.73163016,243.938805 0.934472173,243.938805 L5.2511101,243.938805 C5.92258711,243.938805 6.42619487,243.818898 6.76193338,243.579085 C7.09767188,243.339272 7.26554113,242.915602 7.26554113,242.308075 C7.26554113,241.369806 6.7539396,240.602404 5.73073654,240.005868 L0.934472173,240.005868 C0.73163016,240.005868 0.560763242,239.933924 0.422870641,239.790036 C0.283978819,239.646148 0.215032519,239.472284 0.215032519,239.270441 C0.215032519,239.067599 0.283978819,238.896732 0.422870641,238.758839 C0.560763242,238.619948 0.73163016,238.551001 0.934472173,238.551001 L5.2511101,238.551001 C5.92258711,238.551001 6.42619487,238.431095 6.76193338,238.191281 C7.09767188,237.951468 7.26554113,237.527798 7.26554113,236.920271 C7.26554113,235.982002 6.7539396,235.2146 5.73073654,234.618064 L0.934472173,234.618064 C0.73163016,234.618064 0.560763242,234.546121 0.422870641,234.402233 C0.283978819,234.258345 0.215032519,234.08448 0.215032519,233.882637 C0.215032519,233.679795 0.283978819,233.508928 0.422870641,233.371036 C0.560763242,233.232144 0.73163016,233.163198 0.934472173,233.163198 L7.79313021,233.163198 C7.99497301,233.163198 8.16883759,233.232144 8.31272552,233.371036 C8.45661345,233.508928 8.52855742,233.679795 8.52855742,233.882637 C8.52855742,234.08448 8.45661345,234.258345 8.31272552,234.402233 C8.16883759,234.546121 7.99497301,234.618064 7.79313021,234.618064 L7.13764075,234.618064 Z" id="Fill-11" fill="#2963DB"></path>
                        <g id="Group-15" transform="translate(328.743953, 425.668462)">
                            <mask id="mask-2" fill="white">
                                <use xlink:href="#path-1"></use>
                            </mask>
                            <g id="Clip-14"></g>
                            <path d="M1.58726374,100.921396 L0.584045108,99.1937416 L170.469727,0.475629549 L171.472946,2.20228472 L1.58726374,100.921396 Z" id="Fill-13" fill="#2963DB" mask="url(#mask-2)"></path>
                        </g>
                        <path d="M433.171518,449.710637 L366.801212,488.176677 L384.592355,509.974699 L451.59317,469.45326 L433.171518,449.710637 Z" id="Fill-16" fill="#FFFFFF"></path>
                        <path d="M292.309031,525.214929 L29.9893424,373.18434 L30.9915618,371.454687 L293.310251,523.486276 L292.309031,525.214929 Z" id="Fill-18" fill="#2963DB"></path>
                        <path d="M137.70055,418.014424 L204.070857,456.480464 L186.279713,478.278486 L119.278898,437.757047 L137.70055,418.014424 Z" id="Fill-20" fill="#FFFFFF"></path>
                        <path d="M392.673261,492.752913 C392.856119,492.801874 392.99501,492.907792 393.090936,493.073663 C393.18786,493.239534 393.210842,493.4114 393.159882,493.589261 C393.109921,493.767123 393.001006,493.903017 392.835135,493.999941 L388.56646,496.486005 C388.400589,496.58293 388.230721,496.606911 388.054858,496.561946 C387.879994,496.515982 387.7441,496.409065 387.648175,496.243194 C387.55125,496.077323 387.525271,495.905457 387.569236,495.726597 C387.612203,495.546737 387.716122,495.407845 387.881993,495.311919 L389.526712,494.354665 L385.447889,487.350121 L384.440673,488.860944 C384.4057,488.905909 384.369728,488.951873 384.333756,488.996838 C384.298784,489.041803 384.218846,489.100757 384.094942,489.1737 C383.971039,489.245644 383.821156,489.258634 383.646292,489.21267 C383.471428,489.166706 383.321545,489.034809 383.194644,488.817977 C383.068742,488.603145 383.089725,488.364331 383.260592,488.105532 L384.568573,486.030149 C384.658503,485.891257 384.769417,485.783341 384.898317,485.708399 L385.18909,485.538532 C385.371948,485.432614 385.566796,485.404636 385.771636,485.458594 C385.975478,485.513551 386.130357,485.632458 386.238273,485.816315 L390.782733,493.622236 L392.151667,492.825856 C392.317538,492.729931 392.490403,492.70495 392.673261,492.752913" id="Fill-22" fill="#2963DB"></path>
                        <path d="M396.416446,490.092884 C396.656259,490.155835 396.838117,490.293728 396.962021,490.505563 L397.009983,490.588498 C397.133887,490.800333 397.162864,491.027157 397.099913,491.26697 C397.035963,491.507782 396.89807,491.689641 396.687235,491.812545 L396.549342,491.893482 C396.336508,492.016386 396.110684,492.046363 395.869871,491.983412 C395.630058,491.919462 395.447201,491.781569 395.324296,491.570733 L395.275334,491.487798 C395.15243,491.275963 395.122453,491.04914 395.186404,490.808327 C395.249355,490.568514 395.387247,490.386656 395.600081,490.262752 L395.736975,490.182814 C395.94881,490.058911 396.175633,490.029933 396.416446,490.092884" id="Fill-24" fill="#2963DB"></path>
                        <path d="M397.497703,483.865335 C397.968337,483.085942 398.636816,482.443442 399.502142,481.938835 C400.524346,481.344298 401.497588,481.172432 402.421868,481.424236 C403.29219,481.669045 403.997641,482.257587 404.540218,483.186863 C405.387558,484.642729 405.249666,486.005668 404.12754,487.275679 C403.744838,487.720332 403.230239,488.131012 402.58674,488.50672 C401.462615,489.160211 400.321504,489.466972 399.163406,489.426004 C398.9146,489.423006 398.73474,489.327081 398.624826,489.138228 C398.51591,488.949375 398.475942,488.765518 398.507917,488.587657 C398.538892,488.408796 398.621828,488.279896 398.755724,488.201957 C398.889619,488.125017 399.082469,488.080052 399.334273,488.068061 C400.162628,488.030091 400.945018,487.796273 401.682444,487.367607 C402.999418,486.600205 403.637921,485.778844 403.595954,484.902527 C403.579966,484.578779 403.462058,484.228052 403.242229,483.850346 C402.909488,483.278792 402.455842,482.939056 401.88029,482.830141 C401.305737,482.720227 400.736181,482.830141 400.174618,483.157886 C399.317286,483.656497 398.673787,484.296999 398.241124,485.079389 C398.111226,485.301216 397.950351,485.469086 397.757501,485.582997 C397.563652,485.69491 397.337828,485.730882 397.080029,485.689914 C396.82123,485.649945 396.620387,485.505058 396.4755,485.256251 C396.400558,485.127352 396.345601,485.010443 396.310628,484.908522 L394.791811,480.871666 C394.695886,480.642845 394.678899,480.429011 394.739851,480.226169 C394.800804,480.024326 394.928704,479.866449 395.121554,479.754537 L399.557099,477.171548 C399.72297,477.074624 399.895836,477.051642 400.078693,477.099604 C400.260552,477.146568 400.399443,477.254484 400.496368,477.420355 C400.593292,477.585226 400.616274,477.757092 400.565314,477.933955 C400.514354,478.111816 400.406438,478.249709 400.240567,478.346633 L396.233688,480.679816 L397.497703,483.865335 Z" id="Fill-26" fill="#2963DB"></path>
                        <path d="M410.805638,482.165459 C411.616007,481.693826 412.033682,480.993372 412.06166,480.065095 C412.093635,479.14681 411.76589,478.097627 411.079425,476.918545 C410.398955,475.748457 409.650538,474.951078 408.835173,474.525409 C408.014812,474.090748 407.197449,474.109733 406.381084,474.585363 C405.566719,475.059993 405.148045,475.760447 405.125063,476.685727 C405.10308,477.611006 405.429825,478.654194 406.106299,479.81429 C406.791765,480.993372 407.543179,481.795747 408.358544,482.222414 C409.178905,482.656077 409.99427,482.638091 410.805638,482.165459 M405.704611,473.406281 C406.32213,473.04756 406.934653,472.850714 407.544179,472.81674 C408.153704,472.781767 408.743245,472.895679 409.3138,473.154477 C410.444919,473.656086 411.451136,474.6663 412.336446,476.187115 C413.227752,477.714925 413.611453,479.09585 413.489548,480.324892 C413.357651,481.623881 412.688172,482.624102 411.481112,483.326554 C410.275052,484.029007 409.074986,484.116939 407.879917,483.592347 C406.748798,483.090738 405.739584,482.075529 404.848278,480.54672 C403.962968,479.026903 403.582264,477.651974 403.705169,476.421932 C403.822078,475.119946 404.489558,474.114729 405.704611,473.406281" id="Fill-28" fill="#2963DB"></path>
                        <path d="M418.252039,471.281336 C418.319986,470.106251 418.856568,469.226936 419.860786,468.641392 C420.357399,468.352617 420.895979,468.236707 421.47253,468.296661 C421.937168,468.333632 422.381822,468.512493 422.803494,468.834242 C422.824477,468.278675 422.912409,467.846012 423.064291,467.535254 C423.369053,466.851786 423.852677,466.317202 424.517159,465.931503 C425.262578,465.496841 426.013993,465.440885 426.769405,465.765632 C427.422896,466.039419 427.955481,466.531036 428.36816,467.239484 L430.685355,471.219384 C430.787275,471.393249 430.811257,471.578105 430.757299,471.768956 C430.702342,471.961806 430.587431,472.108692 430.412567,472.210612 C430.236704,472.312533 430.054846,472.338513 429.864994,472.288552 C429.676141,472.23859 429.530254,472.126678 429.428334,471.950815 L427.256026,468.22072 C426.918289,467.640172 426.560567,467.265464 426.18486,467.096595 C425.808153,466.926728 425.357504,466.994675 424.832913,467.301436 C424.022544,467.772069 423.61686,468.600424 423.615861,469.785501 L426.028981,473.930273 C426.131901,474.105137 426.154883,474.288993 426.099926,474.480844 C426.045968,474.673694 425.931058,474.820579 425.756194,474.9225 C425.58133,475.023421 425.398473,475.049401 425.20962,475.000439 C425.019768,474.950478 424.87488,474.837566 424.771961,474.662702 L422.600652,470.931608 C422.262915,470.351061 421.905193,469.976352 421.528487,469.807484 C421.152779,469.637616 420.70213,469.706563 420.177539,470.011325 C419.366171,470.483957 418.961486,471.312312 418.960487,472.497389 L421.373607,476.641161 C421.476527,476.816025 421.499509,477.000881 421.444552,477.191733 C421.390594,477.383583 421.274684,477.531468 421.10082,477.632389 C420.924957,477.735309 420.743098,477.76029 420.554246,477.711328 C420.363394,477.661367 420.218507,477.548455 420.116586,477.373591 L416.665275,471.446208 C416.563354,471.271344 416.535376,471.087487 416.583338,470.892639 C416.630302,470.69879 416.741215,470.551904 416.917078,470.448984 C417.091942,470.347064 417.276798,470.322083 417.474644,470.374043 C417.671491,470.426002 417.820375,470.539914 417.922295,470.714777 L418.252039,471.281336 Z" id="Fill-30" fill="#2963DB"></path>
                        <path d="M147.58685,436.377921 C146.940353,437.494052 145.936136,437.939705 144.574196,437.717877 C145.32761,438.438316 145.664347,439.248685 145.58441,440.150982 C145.551435,440.52669 145.409546,440.931375 145.158741,441.364038 C144.906937,441.798699 144.593182,442.127443 144.216475,442.352268 C143.839768,442.577093 143.426091,442.706992 142.974442,442.740965 C142.058156,442.812909 141.078919,442.548115 140.03673,441.943586 C139.02252,441.356044 138.166187,440.612623 137.466732,439.715322 C137.290869,439.465516 137.272883,439.221706 137.411775,438.980894 C137.496709,438.834008 137.625608,438.730089 137.796475,438.668137 C137.967342,438.607185 138.115227,438.612181 138.24013,438.685124 C138.364033,438.757068 138.49693,438.883969 138.638819,439.063829 C139.076478,439.626391 139.696995,440.139991 140.49937,440.60363 C141.652472,441.272109 142.583747,441.460962 143.294193,441.171188 C143.552992,441.062273 143.771821,440.855434 143.947684,440.552669 C144.62116,439.390575 143.939691,438.218487 141.901278,437.037407 L141.679451,436.908508 C141.523572,436.817579 141.420653,436.682684 141.371691,436.499826 C141.323728,436.316969 141.344712,436.149099 141.435641,435.991222 C141.52657,435.834344 141.662464,435.732424 141.845322,435.684461 C142.02718,435.635499 142.196049,435.656483 142.352926,435.747412 L142.436861,435.795375 C144.336382,436.896517 145.60939,436.889523 146.255887,435.773392 C146.506691,435.33973 146.530673,434.889081 146.32883,434.420446 C146.125988,433.950811 145.651357,433.501162 144.90394,433.067499 C144.147529,432.62984 143.345154,432.367045 142.495815,432.281112 C142.39989,432.276116 142.294972,432.239145 142.180061,432.173196 C142.064151,432.106248 141.983214,431.997333 141.935252,431.84645 C141.88629,431.694569 141.916267,431.527699 142.023183,431.342843 C142.1301,431.157987 142.304964,431.069056 142.548774,431.074052 C143.687887,431.107026 144.765048,431.415786 145.779258,432.004327 C146.793468,432.59187 147.462946,433.270341 147.788693,434.036745 C148.11344,434.805146 148.046492,435.585538 147.58685,436.377921" id="Fill-32" fill="#2963DB"></path>
                        <path d="M147.942073,444.519979 C148.006023,444.760792 147.976047,444.987615 147.853143,445.19945 L147.80518,445.282386 C147.682276,445.494221 147.501416,445.632113 147.260604,445.696063 C147.019792,445.760014 146.793967,445.731036 146.582132,445.608132 L146.443241,445.527195 C146.231406,445.404291 146.093513,445.222432 146.029563,444.982619 C145.965613,444.742806 145.99459,444.515983 146.117494,444.304148 L146.166456,444.221212 C146.288361,444.008378 146.47022,443.871485 146.711032,443.806535 C146.950845,443.743584 147.176669,443.772562 147.389504,443.895466 L147.527396,443.975404 C147.739231,444.098308 147.878123,444.280166 147.942073,444.519979" id="Fill-34" fill="#2963DB"></path>
                        <path d="M153.269924,448.061221 C154.081292,448.531855 154.896657,448.547842 155.717018,448.112182 C156.531383,447.684515 157.2798,446.880141 157.964267,445.70006 C158.642739,444.528972 158.965488,443.483787 158.931514,442.564503 C158.902537,441.636226 158.479866,440.935771 157.664501,440.463139 C156.848137,439.990507 156.032772,439.972521 155.217407,440.412179 C154.402042,440.851836 153.658621,441.652213 152.984146,442.814308 C152.300679,443.994389 151.975931,445.043572 152.009905,445.962856 C152.037883,446.891133 152.458556,447.590588 153.269924,448.061221 M158.351965,439.292051 C158.970484,439.648773 159.445114,440.085433 159.775856,440.597035 C160.107598,441.109636 160.301447,441.677194 160.358403,442.301707 C160.483305,443.532748 160.1046,444.908677 159.223287,446.429492 C158.335978,447.9603 157.327763,448.977508 156.198643,449.481115 C155.004573,450.008705 153.804507,449.922771 152.596448,449.222317 C151.388389,448.522862 150.716912,447.52364 150.582017,446.225651 C150.457114,444.996608 150.838817,443.615684 151.726126,442.084876 C152.60744,440.563061 153.613656,439.549851 154.742776,439.047242 C155.93185,438.504665 157.134913,438.586601 158.351965,439.292051" id="Fill-36" fill="#2963DB"></path>
                        <path d="M161.968748,453.103194 C162.780116,453.573828 163.595481,453.589815 164.415842,453.154155 C165.230208,452.726488 165.978625,451.922114 166.663092,450.742033 C167.341564,449.570945 167.664312,448.52576 167.630339,447.606476 C167.601361,446.678199 167.178691,445.977744 166.362326,445.505112 C165.546961,445.03248 164.731597,445.014494 163.916232,445.454152 C163.100867,445.893809 162.357446,446.694186 161.682971,447.856281 C160.999503,449.036362 160.674756,450.085545 160.70873,451.004829 C160.736708,451.933106 161.15738,452.632561 161.968748,453.103194 M167.05079,444.334024 C167.669308,444.690746 168.143939,445.127406 168.474681,445.639008 C168.806423,446.151609 169.000272,446.719167 169.057227,447.34368 C169.18213,448.574721 168.803425,449.95065 167.922112,451.471465 C167.034803,453.002273 166.026588,454.019481 164.897467,454.523088 C163.703397,455.050678 162.503332,454.964744 161.295273,454.26429 C160.087214,453.564835 159.415737,452.565613 159.280842,451.267624 C159.155939,450.038581 159.537642,448.657657 160.424951,447.126849 C161.306264,445.605034 162.312481,444.591824 163.441601,444.089215 C164.630675,443.546638 165.833738,443.628574 167.05079,444.334024" id="Fill-38" fill="#2963DB"></path>
                        <path d="M175.105417,454.17456 C176.159596,453.651967 177.188794,453.681944 178.194011,454.26449 C178.692623,454.553265 179.059337,454.961947 179.293155,455.492533 C179.492,455.915204 179.55595,456.390834 179.485006,456.915425 C179.977622,456.659624 180.397295,456.520733 180.743026,456.49875 C181.487446,456.425806 182.191897,456.580686 182.85638,456.966385 C183.602798,457.399048 184.022472,458.024561 184.115399,458.841925 C184.201332,459.544378 184.038459,460.250827 183.62678,460.960275 L181.317578,464.944172 C181.216657,465.120035 181.068772,465.230948 180.874923,465.278911 C180.681074,465.325875 180.496218,465.299895 180.321354,465.197974 C180.145491,465.097053 180.032579,464.951166 179.982618,464.762313 C179.931658,464.572461 179.957638,464.390603 180.059558,464.21474 L182.223872,460.480648 C182.56061,459.899101 182.709494,459.402488 182.670525,458.992807 C182.630556,458.582127 182.348775,458.224406 181.823185,457.919643 C181.011816,457.44901 180.090534,457.506964 179.061336,458.093508 L176.656209,462.242276 C176.555287,462.418139 176.407403,462.529053 176.212554,462.577016 C176.019705,462.624978 175.833849,462.597999 175.658986,462.496079 C175.484122,462.395157 175.37121,462.249271 175.321249,462.060418 C175.270288,461.870566 175.296268,461.688707 175.397189,461.513844 L177.562503,457.777753 C177.899241,457.197206 178.048125,456.701592 178.008156,456.290912 C177.969186,455.880231 177.686406,455.52251 177.161815,455.217747 C176.350447,454.747114 175.429165,454.805069 174.399966,455.391612 L171.994839,459.54138 C171.893918,459.716244 171.746033,459.828157 171.551185,459.87512 C171.358335,459.923083 171.17248,459.897103 170.997616,459.795182 C170.822752,459.693262 170.70984,459.547375 170.659879,459.357523 C170.608919,459.16867 170.634899,458.986812 170.73582,458.811948 L174.175141,452.87757 C174.277062,452.701707 174.423948,452.586797 174.615798,452.531839 C174.807649,452.476882 174.991505,452.499864 175.167368,452.601785 C175.341233,452.702706 175.456144,452.85259 175.508103,453.049436 C175.560063,453.245284 175.536081,453.432138 175.434161,453.607002 L175.105417,454.17456 Z" id="Fill-40" fill="#2963DB"></path>
                        <path d="M30.4903522,342.342262 L221.481596,232.305965 L499.71489,395.788635 L311.65936,505.298341 L30.4903522,342.342262 Z" id="Fill-42" fill="#F3F2F2"></path>
                        <path d="M30.4903522,322.357827 L221.481596,212.32153 L499.71489,375.8042 L311.65936,485.313907 L30.4903522,322.357827 Z" id="Fill-44" fill="#D6D5D4"></path>
                        <g id="Group-48" transform="translate(29.976652, 0.000000)">
                            <mask id="mask-4" fill="white">
                                <use xlink:href="#path-3"></use>
                            </mask>
                            <g id="Clip-47"></g>
                            <path d="M0.513699898,322.357827 L0.513699898,110.146111 L187.967699,0.502508614 L191.504944,212.32153 L0.513699898,322.357827 Z" id="Fill-46" fill="#F1F2F3" mask="url(#mask-4)"></path>
                        </g>
                        <path d="M217.944451,0.502708459 L499.71499,162.019909 L499.71499,375.8044 L221.481696,212.32173 L217.944451,0.502708459 Z" id="Fill-49" fill="#E0E1E2"></path>
                        <path d="M147.159783,176.819082 L188.266766,153.57019 L228.362537,176.819082 L187.76116,200.067974 L147.159783,176.819082 Z" id="Fill-51" fill="#FFFFFF"></path>
                        <path d="M192.236174,156.161072 L188.778867,154.156633 L189.029672,153.72397 L192.486979,155.728409 L192.236174,156.161072 Z M182.07309,157.360138 L181.827281,156.925476 L185.305572,154.95701 L185.55238,155.39267 L182.07309,157.360138 Z M199.151788,160.170949 L195.693481,158.165511 L195.944286,157.733847 L199.402593,159.738286 L199.151788,160.170949 Z M175.11451,161.296072 L174.868701,160.860412 L178.347991,158.892944 L178.5938,159.327606 L175.11451,161.296072 Z M206.067402,164.180826 L202.609095,162.175387 L202.8599,161.742724 L206.318206,163.748162 L206.067402,164.180826 Z M168.156929,165.231008 L167.91112,164.796346 L171.39041,162.827879 L171.636219,163.26354 L168.156929,165.231008 Z M212.982016,168.190702 L209.524709,166.185264 L209.775513,165.753601 L213.232821,167.758039 L212.982016,168.190702 Z M161.198348,169.165943 L160.95254,168.731281 L164.43183,166.763814 L164.677639,167.198475 L161.198348,169.165943 Z M219.89763,172.19958 L216.440322,170.195141 L216.691127,169.762478 L220.148434,171.767916 L219.89763,172.19958 Z M154.240767,173.101877 L153.994959,172.666217 L157.474249,170.698749 L157.720058,171.13341 L154.240767,173.101877 Z M226.813243,176.209457 L223.355936,174.205018 L223.606741,173.772355 L227.064048,175.777793 L226.813243,176.209457 Z M149.891155,178.67054 L146.654676,176.817983 L150.516668,174.633684 L150.762477,175.069345 L147.664889,176.820981 L150.138962,178.237877 L149.891155,178.67054 Z M222.977231,180.190356 L222.729424,179.756694 L226.197723,177.770241 L226.44553,178.203903 L222.977231,180.190356 Z M156.827753,182.642446 L153.359454,180.656993 L153.607261,180.223331 L157.07556,182.209783 L156.827753,182.642446 Z M216.040634,184.162263 L215.792827,183.7286 L219.261125,181.743147 L219.508932,182.176809 L216.040634,184.162263 Z M163.765349,186.615352 L160.29705,184.628899 L160.544857,184.196236 L164.013156,186.18169 L163.765349,186.615352 Z M209.103037,188.135168 L208.85523,187.701506 L212.324528,185.715053 L212.572335,186.148716 L209.103037,188.135168 Z M170.701946,190.587258 L167.233648,188.600806 L167.481455,188.168143 L170.949753,190.154595 L170.701946,190.587258 Z M202.16644,192.107075 L201.918633,191.673413 L205.386932,189.687959 L205.634739,190.120622 L202.16644,192.107075 Z M177.639543,194.559165 L174.170245,192.572712 L174.418052,192.140049 L177.88735,194.126502 L177.639543,194.559165 Z M195.229843,196.078981 L194.982036,195.646318 L198.450334,193.659865 L198.698141,194.092528 L195.229843,196.078981 Z M184.57614,198.531071 L181.107842,196.545618 L181.355649,196.111956 L184.823947,198.098408 L184.57614,198.531071 Z M188.292246,200.050888 L188.044439,199.618225 L191.512738,197.631772 L191.760545,198.065434 L188.292246,200.050888 Z" id="Fill-53" fill="#545454"></path>
                        <path d="M147.159783,176.819082 L147.159783,270.039476 L187.76116,293.287369 L187.76116,200.067974 L147.159783,176.819082 Z" id="Fill-55" fill="#FFFFFF"></path>
                        <path d="M147.409788,180.816169 L146.910177,180.816169 L146.910177,176.387618 L147.484729,176.717361 L147.409788,176.84726 L147.409788,180.816169 Z M154.17352,181.12293 L150.704222,179.136477 L150.952029,178.702815 L154.421327,180.689268 L154.17352,181.12293 Z M161.110117,185.094836 L157.641818,183.108384 L157.889625,182.67572 L161.357924,184.662173 L161.110117,185.094836 Z M146.910177,188.809943 L147.409788,188.809943 L147.409788,184.813056 L146.910177,184.813056 L146.910177,188.809943 Z M168.046715,189.066743 L164.578416,187.081289 L164.826223,186.647627 L168.294521,188.63408 L168.046715,189.066743 Z M174.984311,193.038649 L171.516012,191.053196 L171.763819,190.620533 L175.232118,192.605986 L174.984311,193.038649 Z M146.910177,196.803717 L147.409788,196.803717 L147.409788,192.80683 L146.910177,192.80683 L146.910177,196.803717 Z M181.920908,197.011555 L178.45261,195.025102 L178.700417,194.592439 L182.168715,196.577893 L181.920908,197.011555 Z M188.011165,201.475078 L187.511554,201.475078 L187.511554,200.213061 L185.390206,198.997008 L185.638013,198.564345 L188.011165,199.923287 L188.011165,201.475078 Z M146.910177,204.797491 L147.409788,204.797491 L147.409788,200.800604 L146.910177,200.800604 L146.910177,204.797491 Z M187.511554,209.468852 L188.011165,209.468852 L188.011165,205.471965 L187.511554,205.471965 L187.511554,209.468852 Z M146.910177,212.791265 L147.409788,212.791265 L147.409788,208.794378 L146.910177,208.794378 L146.910177,212.791265 Z M187.511554,217.462626 L188.011165,217.462626 L188.011165,213.465739 L187.511554,213.465739 L187.511554,217.462626 Z M146.910177,220.785039 L147.409788,220.785039 L147.409788,216.788152 L146.910177,216.788152 L146.910177,220.785039 Z M187.511554,225.4564 L188.011165,225.4564 L188.011165,221.459513 L187.511554,221.459513 L187.511554,225.4564 Z M146.910177,228.778812 L147.409788,228.778812 L147.409788,224.781926 L146.910177,224.781926 L146.910177,228.778812 Z M187.511554,233.450174 L188.011165,233.450174 L188.011165,229.453287 L187.511554,229.453287 L187.511554,233.450174 Z M146.910177,236.772586 L147.409788,236.772586 L147.409788,232.775699 L146.910177,232.775699 L146.910177,236.772586 Z M187.511554,241.443948 L188.011165,241.443948 L188.011165,237.447061 L187.511554,237.447061 L187.511554,241.443948 Z M146.910177,244.76636 L147.409788,244.76636 L147.409788,240.769473 L146.910177,240.769473 L146.910177,244.76636 Z M187.511554,249.437722 L188.011165,249.437722 L188.011165,245.440835 L187.511554,245.440835 L187.511554,249.437722 Z M146.910177,252.760134 L147.409788,252.760134 L147.409788,248.763247 L146.910177,248.763247 L146.910177,252.760134 Z M187.511554,257.431496 L188.011165,257.431496 L188.011165,253.434609 L187.511554,253.434609 L187.511554,257.431496 Z M146.910177,260.753908 L147.409788,260.753908 L147.409788,256.757021 L146.910177,256.757021 L146.910177,260.753908 Z M187.511554,265.42527 L188.011165,265.42527 L188.011165,261.428383 L187.511554,261.428383 L187.511554,265.42527 Z M146.910177,268.747682 L147.409788,268.747682 L147.409788,264.750795 L146.910177,264.750795 L146.910177,268.747682 Z M187.511554,273.419044 L188.011165,273.419044 L188.011165,269.422157 L187.511554,269.422157 L187.511554,273.419044 Z M152.852549,273.585914 L149.38425,271.599461 L149.632057,271.166798 L153.100356,273.152252 L152.852549,273.585914 Z M159.790145,277.55782 L156.320847,275.572367 L156.569654,275.138704 L160.037952,277.125157 L159.790145,277.55782 Z M187.511554,281.412818 L188.011165,281.412818 L188.011165,277.415931 L187.511554,277.415931 L187.511554,281.412818 Z M166.726743,281.530726 L163.258444,279.545272 L163.506251,279.11161 L166.97455,281.097064 L166.726743,281.530726 Z M173.66334,285.503632 L170.195041,283.51618 L170.442848,283.083517 L173.911147,285.069969 L173.66334,285.503632 Z M187.511554,289.406592 L188.011165,289.406592 L188.011165,285.409705 L187.511554,285.409705 L187.511554,289.406592 Z M180.599937,289.475538 L177.131639,287.489085 L177.379446,287.055423 L180.847744,289.042875 L180.599937,289.475538 Z M187.537534,293.447444 L184.069235,291.460992 L184.317042,291.028329 L187.785341,293.013782 L187.537534,293.447444 Z" id="Fill-57" fill="#545454"></path>
                        <path d="M228.362137,176.819082 L228.362137,270.039476 L187.76076,293.287369 L187.76076,200.067974 L228.362137,176.819082 Z" id="Fill-59" fill="#FFFFFF"></path>
                        <path d="M228.612142,180.816169 L228.112531,180.816169 L228.112531,176.84726 L228.03759,176.717361 L228.612142,176.387618 L228.612142,180.816169 Z M221.348799,181.12293 L221.100992,180.689268 L224.57029,178.702815 L224.818097,179.136477 L221.348799,181.12293 Z M214.412202,185.094836 L214.164395,184.662173 L217.632694,182.67572 L217.880501,183.108384 L214.412202,185.094836 Z M228.112531,188.809943 L228.612142,188.809943 L228.612142,184.813056 L228.112531,184.813056 L228.112531,188.809943 Z M207.475605,189.066743 L207.227798,188.63408 L210.696096,186.647627 L210.943903,187.081289 L207.475605,189.066743 Z M200.538008,193.038649 L200.290201,192.605986 L203.7585,190.620533 L204.006307,191.053196 L200.538008,193.038649 Z M228.112531,196.803717 L228.612142,196.803717 L228.612142,192.80683 L228.112531,192.80683 L228.112531,196.803717 Z M193.601411,197.011555 L193.353604,196.577893 L196.821903,194.592439 L197.06971,195.025102 L193.601411,197.011555 Z M188.010765,201.475078 L187.511154,201.475078 L187.511154,199.923287 L189.884306,198.564345 L190.132113,198.997008 L188.010765,200.213061 L188.010765,201.475078 Z M228.112531,204.797491 L228.612142,204.797491 L228.612142,200.800604 L228.112531,200.800604 L228.112531,204.797491 Z M187.511154,209.468852 L188.010765,209.468852 L188.010765,205.471965 L187.511154,205.471965 L187.511154,209.468852 Z M228.112531,212.791265 L228.612142,212.791265 L228.612142,208.794378 L228.112531,208.794378 L228.112531,212.791265 Z M187.511154,217.462626 L188.010765,217.462626 L188.010765,213.465739 L187.511154,213.465739 L187.511154,217.462626 Z M228.112531,220.785039 L228.612142,220.785039 L228.612142,216.788152 L228.112531,216.788152 L228.112531,220.785039 Z M187.511154,225.4564 L188.010765,225.4564 L188.010765,221.459513 L187.511154,221.459513 L187.511154,225.4564 Z M228.112531,228.778812 L228.612142,228.778812 L228.612142,224.781926 L228.112531,224.781926 L228.112531,228.778812 Z M187.511154,233.450174 L188.010765,233.450174 L188.010765,229.453287 L187.511154,229.453287 L187.511154,233.450174 Z M228.112531,236.772586 L228.612142,236.772586 L228.612142,232.775699 L228.112531,232.775699 L228.112531,236.772586 Z M187.511154,241.443948 L188.010765,241.443948 L188.010765,237.447061 L187.511154,237.447061 L187.511154,241.443948 Z M228.112531,244.76636 L228.612142,244.76636 L228.612142,240.769473 L228.112531,240.769473 L228.112531,244.76636 Z M187.511154,249.437722 L188.010765,249.437722 L188.010765,245.440835 L187.511154,245.440835 L187.511154,249.437722 Z M228.112531,252.760134 L228.612142,252.760134 L228.612142,248.763247 L228.112531,248.763247 L228.112531,252.760134 Z M187.511154,257.431496 L188.010765,257.431496 L188.010765,253.434609 L187.511154,253.434609 L187.511154,257.431496 Z M228.112531,260.753908 L228.612142,260.753908 L228.612142,256.757021 L228.112531,256.757021 L228.112531,260.753908 Z M187.511154,265.42527 L188.010765,265.42527 L188.010765,261.428383 L187.511154,261.428383 L187.511154,265.42527 Z M228.112531,268.747682 L228.612142,268.747682 L228.612142,264.750795 L228.112531,264.750795 L228.112531,268.747682 Z M187.511154,273.419044 L188.010765,273.419044 L188.010765,269.422157 L187.511154,269.422157 L187.511154,273.419044 Z M222.669771,273.585914 L222.421964,273.152252 L225.890262,271.166798 L226.138069,271.599461 L222.669771,273.585914 Z M215.732174,277.55782 L215.484367,277.125157 L218.952666,275.138704 L219.201472,275.572367 L215.732174,277.55782 Z M187.511154,281.412818 L188.010765,281.412818 L188.010765,277.415931 L187.511154,277.415931 L187.511154,281.412818 Z M208.795577,281.530726 L208.54777,281.097064 L212.016068,279.11161 L212.263875,279.545272 L208.795577,281.530726 Z M201.858979,285.503632 L201.611172,285.069969 L205.079471,283.083517 L205.327278,283.51618 L201.858979,285.503632 Z M187.511154,289.406592 L188.010765,289.406592 L188.010765,285.409705 L187.511154,285.409705 L187.511154,289.406592 Z M194.922382,289.475538 L194.674575,289.042875 L198.142874,287.055423 L198.390681,287.489085 L194.922382,289.475538 Z M187.984785,293.447444 L187.736978,293.013782 L191.205277,291.028329 L191.453084,291.460992 L187.984785,293.447444 Z" id="Fill-61" fill="#545454"></path>
                        <path d="M161.18386,184.849527 L161.18386,200.067675 L167.459971,203.953648 L167.459971,188.443728 L208.061349,165.04795 L201.437508,161.207941 L161.18386,184.849527 Z" id="Fill-63" fill="#FFFFFF"></path>
                        <path d="M205.374841,163.779138 L201.917534,161.7737 L202.168338,161.342037 L205.625646,163.346475 L205.374841,163.779138 Z M195.273708,165.117096 L195.020905,164.686432 L198.467221,162.662008 L198.720024,163.093672 L195.273708,165.117096 Z M203.826047,167.777025 L203.576242,167.344362 L207.039544,165.348916 L207.28935,165.781579 L203.826047,167.777025 Z M188.381077,169.165943 L188.128274,168.735278 L191.574589,166.710855 L191.827393,167.14152 L188.381077,169.165943 Z M196.900441,171.768915 L196.650636,171.335253 L200.112939,169.339807 L200.362745,169.77347 L196.900441,171.768915 Z M181.488445,173.21379 L181.235642,172.783125 L184.681958,170.758702 L184.934761,171.189367 L181.488445,173.21379 Z M189.973836,175.759807 L189.724031,175.326145 L193.187333,173.330699 L193.437139,173.764361 L189.973836,175.759807 Z M174.595814,177.262637 L174.343011,176.831972 L177.789326,174.807549 L178.042129,175.238213 L174.595814,177.262637 Z M183.047231,179.750699 L182.797426,179.317036 L186.260728,177.321591 L186.510534,177.755253 L183.047231,179.750699 Z M167.702183,181.310484 L167.44938,180.879819 L170.896695,178.855396 L171.149498,179.286061 L167.702183,181.310484 Z M176.121625,183.74159 L175.87182,183.307928 L179.334123,181.312482 L179.583929,181.746145 L176.121625,183.74159 Z M169.19502,187.732482 L168.945215,187.299819 L172.408517,185.304373 L172.658323,185.737036 L169.19502,187.732482 Z M161.433066,188.846614 L160.933455,188.846614 L160.933455,184.706839 L164.003064,182.904243 L164.255867,183.334907 L161.433066,184.992616 L161.433066,188.846614 Z M167.210566,194.579149 L167.710177,194.579149 L167.710177,190.582262 L167.210566,190.582262 L167.210566,194.579149 Z M160.933455,196.840388 L161.433066,196.840388 L161.433066,192.843501 L160.933455,192.843501 L160.933455,196.840388 Z M167.210566,202.572923 L167.710177,202.572923 L167.710177,198.576036 L167.210566,198.576036 L167.210566,202.572923 Z M165.104206,202.788755 L161.705853,200.685393 L161.969648,200.260724 L165.368001,202.364086 L165.104206,202.788755 Z" id="Fill-65" fill="#545454"></path>
                        <path d="M182.416323,190.767618 L197.928241,181.536808 L206.212788,186.308091 L190.420089,195.351048 L182.416323,190.767618 Z" id="Fill-67" fill="#FFFFFF"></path>
                        <path d="M196.282822,182.806319 L196.027022,182.376653 L197.926542,181.246534 L199.728139,182.284725 L199.478334,182.718387 L197.92954,181.826082 L196.282822,182.806319 Z M206.01824,186.70728 L205.827389,186.37454 L202.942635,184.712834 L203.192441,184.280171 L206.713698,186.308591 L206.01824,186.70728 Z M189.413173,186.894135 L189.158371,186.46447 L192.592697,184.421061 L192.847498,184.849727 L189.413173,186.894135 Z M199.080643,190.679187 L198.832836,190.245525 L202.301135,188.260071 L202.548942,188.692734 L199.080643,190.679187 Z M182.543523,190.981951 L182.288722,190.552286 L185.723047,188.508877 L185.978848,188.938543 L182.543523,190.981951 Z M188.42794,194.497213 L184.958642,192.51076 L185.207449,192.078097 L188.675747,194.06455 L188.42794,194.497213 Z M192.144046,194.651093 L191.896239,194.217431 L195.364538,192.231977 L195.612345,192.66564 L192.144046,194.651093 Z" id="Fill-69" fill="#545454"></path>
                        <path d="M95.7544204,247.708269 L136.861404,224.459377 L176.957174,247.708269 L136.355797,270.957161 L95.7544204,247.708269 Z" id="Fill-71" fill="#FFFFFF"></path>
                        <path d="M140.830912,227.050259 L137.373605,225.04582 L137.624409,224.613157 L141.081717,226.617596 L140.830912,227.050259 Z M130.667828,228.249325 L130.422019,227.814663 L133.90031,225.846197 L134.147118,226.281857 L130.667828,228.249325 Z M147.746526,231.060136 L144.288219,229.054698 L144.539024,228.623034 L147.99733,230.628472 L147.746526,231.060136 Z M123.709247,232.185259 L123.463439,231.749599 L126.942729,229.782131 L127.188537,230.216792 L123.709247,232.185259 Z M154.662139,235.070012 L151.203833,233.065574 L151.454637,232.632911 L154.912944,234.637349 L154.662139,235.070012 Z M116.751666,236.120195 L116.505858,235.685533 L119.985148,233.717066 L120.230956,234.152727 L116.751666,236.120195 Z M161.576754,239.079889 L158.119446,237.074451 L158.370251,236.642788 L161.827558,238.647226 L161.576754,239.079889 Z M109.793086,240.05513 L109.547278,239.620468 L113.026568,237.652001 L113.272376,238.087662 L109.793086,240.05513 Z M168.492367,243.089766 L165.03506,241.084328 L165.285865,240.651665 L168.743172,242.657103 L168.492367,243.089766 Z M102.835505,243.991064 L102.589697,243.555404 L106.068987,241.587936 L106.314795,242.022597 L102.835505,243.991064 Z M175.407981,247.098644 L171.950674,245.093206 L172.201479,244.661542 L175.658786,246.66698 L175.407981,247.098644 Z M98.4858929,249.559727 L95.2494137,247.70717 L99.1114057,245.52387 L99.3572143,245.958532 L96.2596269,247.709168 L98.7336999,249.126065 L98.4858929,249.559727 Z M171.571969,251.079543 L171.324162,250.64688 L174.79246,248.659428 L175.040267,249.09309 L171.571969,251.079543 Z M105.42249,253.531633 L101.954192,251.54618 L102.201999,251.113517 L105.670297,253.09897 L105.42249,253.531633 Z M164.635371,255.05145 L164.387564,254.617787 L167.855863,252.632334 L168.10367,253.065996 L164.635371,255.05145 Z M112.360087,257.504539 L108.891788,255.518086 L109.139595,255.084424 L112.607894,257.070877 L112.360087,257.504539 Z M157.697775,259.024355 L157.449968,258.590693 L160.919266,256.605239 L161.167073,257.037902 L157.697775,259.024355 Z M119.296684,261.476445 L115.828385,259.489993 L116.076192,259.05733 L119.544491,261.042783 L119.296684,261.476445 Z M150.761178,262.996262 L150.513371,262.563599 L153.981669,260.576147 L154.229476,261.009809 L150.761178,262.996262 Z M126.234281,265.448352 L122.764983,263.462898 L123.01279,263.029236 L126.482088,265.015689 L126.234281,265.448352 Z M143.82458,266.968168 L143.576773,266.534506 L147.045072,264.549052 L147.292879,264.981715 L143.82458,266.968168 Z M133.170878,269.421258 L129.702579,267.434805 L129.950386,267.001142 L133.418685,268.987595 L133.170878,269.421258 Z M136.886984,270.940075 L136.639177,270.507412 L140.107475,268.520959 L140.355282,268.954621 L136.886984,270.940075 Z" id="Fill-73" fill="#545454"></path>
                        <path d="M95.7544204,247.708269 L95.7544204,294.542791 L136.355797,317.791684 L136.355797,270.957161 L95.7544204,247.708269 Z" id="Fill-75" fill="#FFFFFF"></path>
                        <path d="M96.0044256,251.705356 L95.5048148,251.705356 L95.5048148,247.276805 L98.8152364,249.174327 L98.5674294,249.60699 L96.0044256,248.140133 L96.0044256,251.705356 Z M105.505026,253.578897 L102.036727,251.593443 L102.284534,251.159781 L105.752833,253.145234 L105.505026,253.578897 Z M112.442623,257.551802 L108.973325,255.565349 L109.222131,255.132686 L112.69043,257.11814 L112.442623,257.551802 Z M95.5048148,259.69913 L96.0044256,259.69913 L96.0044256,255.702243 L95.5048148,255.702243 L95.5048148,259.69913 Z M119.37922,261.523709 L115.910921,259.537256 L116.158728,259.103594 L119.627027,261.091046 L119.37922,261.523709 Z M126.315817,265.495615 L122.847519,263.509162 L123.095326,263.076499 L126.563624,265.061953 L126.315817,265.495615 Z M95.5048148,267.692904 L96.0044256,267.692904 L96.0044256,263.696017 L95.5048148,263.696017 L95.5048148,267.692904 Z M133.253414,269.467522 L129.785115,267.482068 L130.032922,267.048406 L133.501221,269.034858 L133.253414,269.467522 Z M136.106192,275.517809 L136.605803,275.517809 L136.605803,271.520922 L136.106192,271.520922 L136.106192,275.517809 Z M95.5048148,275.686678 L96.0044256,275.686678 L96.0044256,271.689791 L95.5048148,271.689791 L95.5048148,275.686678 Z M136.106192,283.511583 L136.605803,283.511583 L136.605803,279.514696 L136.106192,279.514696 L136.106192,283.511583 Z M95.5048148,283.680452 L96.0044256,283.680452 L96.0044256,279.683565 L95.5048148,279.683565 L95.5048148,283.680452 Z M136.106192,291.505357 L136.605803,291.505357 L136.605803,287.50847 L136.106192,287.50847 L136.106192,291.505357 Z M95.5048148,291.674226 L96.0044256,291.674226 L96.0044256,287.677339 L95.5048148,287.677339 L95.5048148,291.674226 Z M100.078253,297.306838 L96.6089548,295.319386 L96.857761,294.886723 L100.32606,296.873176 L100.078253,297.306838 Z M136.106192,299.499131 L136.605803,299.499131 L136.605803,295.502244 L136.106192,295.502244 L136.106192,299.499131 Z M107.01485,301.277746 L103.546551,299.292292 L103.794358,298.85863 L107.262657,300.845083 L107.01485,301.277746 Z M113.952447,305.250651 L110.484148,303.265198 L110.731955,302.831535 L114.200254,304.816989 L113.952447,305.250651 Z M136.106192,307.492905 L136.605803,307.492905 L136.605803,303.496018 L136.106192,303.496018 L136.106192,307.492905 Z M120.889044,309.223557 L117.420745,307.236105 L117.668552,306.803442 L121.136851,308.789895 L120.889044,309.223557 Z M127.82664,313.194464 L124.357343,311.209011 L124.606149,310.775348 L128.074447,312.761801 L127.82664,313.194464 Z M136.106192,315.486679 L136.605803,315.486679 L136.605803,311.489792 L136.106192,311.489792 L136.106192,315.486679 Z M134.763238,317.16737 L131.294939,315.180917 L131.542746,314.748254 L135.011045,316.733708 L134.763238,317.16737 Z" id="Fill-77" fill="#545454"></path>
                        <path d="M176.956875,247.708269 L176.956875,294.542791 L136.355498,317.791684 L136.355498,270.957161 L176.956875,247.708269 Z" id="Fill-79" fill="#FFFFFF"></path>
                        <path d="M177.20688,251.705356 L176.707269,251.705356 L176.707269,248.140133 L174.144265,249.60699 L173.896458,249.174327 L177.20688,247.276805 L177.20688,251.705356 Z M167.206669,253.578897 L166.958862,253.145234 L170.42716,251.159781 L170.674967,251.593443 L167.206669,253.578897 Z M160.269072,257.551802 L160.021265,257.11814 L163.489564,255.132686 L163.73837,255.565349 L160.269072,257.551802 Z M176.707269,259.69913 L177.20688,259.69913 L177.20688,255.702243 L176.707269,255.702243 L176.707269,259.69913 Z M153.332475,261.523709 L153.084668,261.091046 L156.552967,259.103594 L156.800774,259.537256 L153.332475,261.523709 Z M146.395878,265.495615 L146.148071,265.061953 L149.616369,263.076499 L149.864176,263.509162 L146.395878,265.495615 Z M176.707269,267.692904 L177.20688,267.692904 L177.20688,263.696017 L176.707269,263.696017 L176.707269,267.692904 Z M139.458281,269.467522 L139.210474,269.034858 L142.678773,267.048406 L142.92658,267.482068 L139.458281,269.467522 Z M136.105892,275.517809 L136.605503,275.517809 L136.605503,271.520922 L136.105892,271.520922 L136.105892,275.517809 Z M176.707269,275.686678 L177.20688,275.686678 L177.20688,271.689791 L176.707269,271.689791 L176.707269,275.686678 Z M136.105892,283.511583 L136.605503,283.511583 L136.605503,279.514696 L136.105892,279.514696 L136.105892,283.511583 Z M176.707269,283.680452 L177.20688,283.680452 L177.20688,279.683565 L176.707269,279.683565 L176.707269,283.680452 Z M136.105892,291.505357 L136.605503,291.505357 L136.605503,287.50847 L136.105892,287.50847 L136.105892,291.505357 Z M176.707269,291.674226 L177.20688,291.674226 L177.20688,287.677339 L176.707269,287.677339 L176.707269,291.674226 Z M172.633442,297.306838 L172.385635,296.873176 L175.853934,294.886723 L176.10274,295.319386 L172.633442,297.306838 Z M136.105892,299.499131 L136.605503,299.499131 L136.605503,295.502244 L136.105892,295.502244 L136.105892,299.499131 Z M165.696845,301.277746 L165.449038,300.845083 L168.917336,298.85863 L169.165143,299.292292 L165.696845,301.277746 Z M158.759248,305.250651 L158.511441,304.816989 L161.97974,302.831535 L162.227547,303.265198 L158.759248,305.250651 Z M136.105892,307.492905 L136.605503,307.492905 L136.605503,303.496018 L136.105892,303.496018 L136.105892,307.492905 Z M151.822651,309.223557 L151.574844,308.789895 L155.043143,306.803442 L155.29095,307.236105 L151.822651,309.223557 Z M144.885054,313.194464 L144.637247,312.761801 L148.105546,310.775348 L148.354352,311.209011 L144.885054,313.194464 Z M136.105892,315.486679 L136.605503,315.486679 L136.605503,311.489792 L136.105892,311.489792 L136.105892,315.486679 Z M137.948457,317.16737 L137.70065,316.733708 L141.168949,314.748254 L141.416756,315.180917 L137.948457,317.16737 Z" id="Fill-81" fill="#545454"></path>
                        <path d="M109.778498,255.738614 L109.778498,270.956762 L116.054609,274.842735 L116.054609,259.332815 L156.655986,235.937037 L150.032145,232.097028 L109.778498,255.738614 Z" id="Fill-83" fill="#FFFFFF"></path>
                        <path d="M153.969579,234.668325 L150.512271,232.662887 L150.763076,232.231224 L154.220383,234.235662 L153.969579,234.668325 Z M143.868446,236.006283 L143.615643,235.575619 L147.061959,233.551195 L147.314762,233.98186 L143.868446,236.006283 Z M152.420785,238.666212 L152.17098,238.233549 L155.634282,236.238103 L155.884088,236.670766 L152.420785,238.666212 Z M136.975815,240.05513 L136.723011,239.623466 L140.169327,237.600042 L140.42213,238.030707 L136.975815,240.05513 Z M145.495179,242.658102 L145.245374,242.22444 L148.707677,240.228994 L148.957482,240.662657 L145.495179,242.658102 Z M130.083183,244.102977 L129.83038,243.672312 L133.276696,241.647889 L133.529499,242.078554 L130.083183,244.102977 Z M138.568574,246.648994 L138.318769,246.215332 L141.782071,244.219886 L142.031877,244.653548 L138.568574,246.648994 Z M123.189552,248.151824 L122.936749,247.72016 L126.384064,245.696736 L126.636867,246.1274 L123.189552,248.151824 Z M131.641969,250.639886 L131.392163,250.206223 L134.855466,248.210778 L135.105271,248.64444 L131.641969,250.639886 Z M116.296921,252.199671 L116.044117,251.769006 L119.490433,249.743584 L119.743236,250.175248 L116.296921,252.199671 Z M124.716363,254.630777 L124.466558,254.197115 L127.928861,252.201669 L128.178666,252.635331 L124.716363,254.630777 Z M117.789758,258.621669 L117.539952,258.189006 L121.003255,256.19356 L121.25306,256.626223 L117.789758,258.621669 Z M110.027803,259.734802 L109.528192,259.734802 L109.528192,255.595026 L112.597802,253.79243 L112.850605,254.224094 L110.027803,255.881803 L110.027803,259.734802 Z M115.805303,265.468336 L116.304914,265.468336 L116.304914,261.471449 L115.805303,261.471449 L115.805303,265.468336 Z M109.528192,267.728576 L110.027803,267.728576 L110.027803,263.731689 L109.528192,263.731689 L109.528192,267.728576 Z M115.805303,273.46211 L116.304914,273.46211 L116.304914,269.465223 L115.805303,269.465223 L115.805303,273.46211 Z M113.698944,273.678941 L110.300591,271.57458 L110.564385,271.148912 L113.961739,273.253273 L113.698944,273.678941 Z" id="Fill-85" fill="#545454"></path>
                        <path d="M131.01106,261.656705 L146.522979,252.424895 L154.807526,257.197178 L139.014826,266.240135 L131.01106,261.656705 Z" id="Fill-87" fill="#FFFFFF"></path>
                        <path d="M144.87756,253.695006 L144.621759,253.265341 L146.52128,252.135221 L148.322877,253.174412 L148.073071,253.607075 L146.524278,252.715769 L144.87756,253.695006 Z M154.612978,257.595968 L154.422126,257.263227 L151.537373,255.601521 L151.787178,255.168858 L155.308436,257.198278 L154.612978,257.595968 Z M138.007911,257.783822 L137.753109,257.354156 L141.187434,255.309748 L141.442236,255.739414 L138.007911,257.783822 Z M147.675381,261.568873 L147.427574,261.135211 L150.895873,259.148758 L151.14368,259.582421 L147.675381,261.568873 Z M131.138261,261.871638 L130.88346,261.441972 L134.317785,259.397565 L134.573586,259.82723 L131.138261,261.871638 Z M137.022678,265.385901 L133.55338,263.400447 L133.802186,262.966785 L137.270485,264.953238 L137.022678,265.385901 Z M140.738784,265.539781 L140.490977,265.107118 L143.959275,263.121664 L144.207082,263.554327 L140.738784,265.539781 Z" id="Fill-89" fill="#545454"></path>
                        <path d="M245.637682,236.827244 L286.744665,213.578352 L326.840436,236.827244 L286.239059,260.076136 L245.637682,236.827244 Z" id="Fill-91" fill="#FFFFFF"></path>
                        <path d="M290.714573,216.169034 L287.257266,214.164595 L287.507071,213.731932 L290.964378,215.736371 L290.714573,216.169034 Z M280.550489,217.3681 L280.304681,216.933438 L283.782972,214.964972 L284.029779,215.400632 L280.550489,217.3681 Z M297.630187,220.178911 L294.17188,218.173473 L294.421686,217.741809 L297.879992,219.747247 L297.630187,220.178911 Z M273.592908,221.304034 L273.3471,220.868374 L276.82639,218.900906 L277.072199,219.335567 L273.592908,221.304034 Z M304.5458,224.188787 L301.087494,222.184349 L301.337299,221.751686 L304.795606,223.756124 L304.5458,224.188787 Z M266.634328,225.23897 L266.38852,224.804308 L269.86781,222.835841 L270.113618,223.271502 L266.634328,225.23897 Z M311.461414,228.198664 L308.003108,226.193226 L308.252913,225.761562 L311.711219,227.766001 L311.461414,228.198664 Z M259.676747,229.173905 L259.430939,228.739243 L262.910229,226.770776 L263.156037,227.206437 L259.676747,229.173905 Z M318.376028,232.208541 L314.918721,230.203103 L315.168527,229.771439 L318.625834,231.775878 L318.376028,232.208541 Z M252.719166,233.109839 L252.473358,232.674179 L255.951649,230.706711 L256.198456,231.141372 L252.719166,233.109839 Z M325.291642,236.217419 L321.834335,234.21298 L322.08414,233.780317 L325.541448,235.785755 L325.291642,236.217419 Z M248.368555,238.678502 L245.133075,236.825945 L248.994068,234.641646 L249.239876,235.077307 L246.143288,236.828943 L248.616362,238.24484 L248.368555,238.678502 Z M321.454631,240.198318 L321.206824,239.765655 L324.675122,237.779202 L324.922929,238.212865 L321.454631,240.198318 Z M255.305152,242.650408 L251.836853,240.663956 L252.08466,240.231293 L255.552959,242.216746 L255.305152,242.650408 Z M314.517034,244.170225 L314.269227,243.736562 L317.738525,241.751109 L317.986332,242.184771 L314.517034,244.170225 Z M262.241749,246.622315 L258.773451,244.636861 L259.021258,244.203199 L262.489556,246.188653 L262.241749,246.622315 Z M307.580437,248.14313 L307.33263,247.709468 L310.801928,245.724014 L311.049735,246.156677 L307.580437,248.14313 Z M269.179346,250.59522 L265.711047,248.608768 L265.958854,248.176105 L269.427153,250.161558 L269.179346,250.59522 Z M300.643839,252.115037 L300.395033,251.682374 L303.864331,249.694922 L304.112138,250.128584 L300.643839,252.115037 Z M276.116943,254.567127 L272.647645,252.580674 L272.895452,252.147012 L276.36475,254.134464 L276.116943,254.567127 Z M293.706243,256.086943 L293.458436,255.653281 L296.927734,253.667827 L297.175541,254.10049 L293.706243,256.086943 Z M283.05354,258.539033 L279.584242,256.55358 L279.832049,256.119917 L283.301347,258.105371 L283.05354,258.539033 Z M286.769646,260.05885 L286.521839,259.626187 L289.990137,257.639734 L290.237944,258.073396 L286.769646,260.05885 Z" id="Fill-93" fill="#545454"></path>
                        <path d="M245.637682,236.827244 L245.637682,283.661766 L286.239059,306.910658 L286.239059,260.076136 L245.637682,236.827244 Z" id="Fill-95" fill="#FFFFFF"></path>
                        <path d="M245.887687,240.824131 L245.388076,240.824131 L245.388076,236.396579 L248.698498,238.292103 L248.450691,238.724766 L245.887687,237.257908 L245.887687,240.824131 Z M255.387288,242.697672 L251.918989,240.711219 L252.166796,240.278556 L255.635095,242.264009 L255.387288,242.697672 Z M262.324885,246.670577 L258.856586,244.683125 L259.104393,244.250462 L262.572692,246.236915 L262.324885,246.670577 Z M245.388076,248.817905 L245.887687,248.817905 L245.887687,244.821018 L245.388076,244.821018 L245.388076,248.817905 Z M269.261482,250.641484 L265.793183,248.656031 L266.04099,248.222369 L269.509289,250.208821 L269.261482,250.641484 Z M276.198079,254.61439 L272.73078,252.627937 L272.978587,252.195274 L276.446886,254.180728 L276.198079,254.61439 Z M245.388076,256.811679 L245.887687,256.811679 L245.887687,252.814792 L245.388076,252.814792 L245.388076,256.811679 Z M283.135676,258.586297 L279.667377,256.599844 L279.915184,256.166181 L283.383483,258.153633 L283.135676,258.586297 Z M285.988454,264.636584 L286.488065,264.636584 L286.488065,260.639697 L285.988454,260.639697 L285.988454,264.636584 Z M245.388076,264.805453 L245.887687,264.805453 L245.887687,260.808566 L245.388076,260.808566 L245.388076,264.805453 Z M285.988454,272.630358 L286.488065,272.630358 L286.488065,268.633471 L285.988454,268.633471 L285.988454,272.630358 Z M245.388076,272.799227 L245.887687,272.799227 L245.887687,268.80234 L245.388076,268.80234 L245.388076,272.799227 Z M285.988454,280.624132 L286.488065,280.624132 L286.488065,276.627245 L285.988454,276.627245 L285.988454,280.624132 Z M245.388076,280.793001 L245.887687,280.793001 L245.887687,276.796114 L245.388076,276.796114 L245.388076,280.793001 Z M249.961514,286.425613 L246.492216,284.438161 L246.741022,284.005498 L250.209321,285.991951 L249.961514,286.425613 Z M285.988454,288.617906 L286.488065,288.617906 L286.488065,284.621019 L285.988454,284.621019 L285.988454,288.617906 Z M256.898111,290.39752 L253.429813,288.411067 L253.67762,287.977405 L257.145918,289.964857 L256.898111,290.39752 Z M263.834709,294.369426 L260.36641,292.383973 L260.614217,291.95031 L264.082516,293.935764 L263.834709,294.369426 Z M285.988454,296.61168 L286.488065,296.61168 L286.488065,292.614793 L285.988454,292.614793 L285.988454,296.61168 Z M270.772305,298.342332 L267.304007,296.355879 L267.551814,295.923216 L271.020112,297.90867 L270.772305,298.342332 Z M277.708903,302.314238 L274.240604,300.327786 L274.48941,299.894123 L277.95671,301.880576 L277.708903,302.314238 Z M285.988454,304.605454 L286.488065,304.605454 L286.488065,300.608567 L285.988454,300.608567 L285.988454,304.605454 Z M284.646499,306.286145 L281.1782,304.299692 L281.426007,303.867029 L284.894306,305.852483 L284.646499,306.286145 Z" id="Fill-97" fill="#545454"></path>
                        <path d="M326.840136,236.827244 L326.840136,283.661766 L286.238759,306.910658 L286.238759,260.076136 L326.840136,236.827244 Z" id="Fill-99" fill="#FFFFFF"></path>
                        <path d="M327.089642,240.824131 L326.590031,240.824131 L326.590031,237.257908 L324.027027,238.725765 L323.77922,238.292103 L327.089642,236.396579 L327.089642,240.824131 Z M317.089431,242.697672 L316.841624,242.265009 L320.309922,240.278556 L320.557729,240.712218 L317.089431,242.697672 Z M310.152833,246.670577 L309.905026,246.236915 L313.372326,244.251461 L313.621132,244.684124 L310.152833,246.670577 Z M326.590031,248.817905 L327.089642,248.817905 L327.089642,244.821018 L326.590031,244.821018 L326.590031,248.817905 Z M303.215237,250.642484 L302.96743,250.209821 L306.435728,248.222369 L306.683535,248.656031 L303.215237,250.642484 Z M296.278639,254.61439 L296.030832,254.180728 L299.499131,252.195274 L299.746938,252.627937 L296.278639,254.61439 Z M326.590031,256.811679 L327.089642,256.811679 L327.089642,252.814792 L326.590031,252.814792 L326.590031,256.811679 Z M289.342042,258.586297 L289.094235,258.153633 L292.561534,256.167181 L292.809341,256.600843 L289.342042,258.586297 Z M285.988654,264.636584 L286.488265,264.636584 L286.488265,260.639697 L285.988654,260.639697 L285.988654,264.636584 Z M326.590031,264.805453 L327.089642,264.805453 L327.089642,260.808566 L326.590031,260.808566 L326.590031,264.805453 Z M285.988654,272.630358 L286.488265,272.630358 L286.488265,268.633471 L285.988654,268.633471 L285.988654,272.630358 Z M326.590031,272.799227 L327.089642,272.799227 L327.089642,268.80234 L326.590031,268.80234 L326.590031,272.799227 Z M285.988654,280.624132 L286.488265,280.624132 L286.488265,276.627245 L285.988654,276.627245 L285.988654,280.624132 Z M326.590031,280.793001 L327.089642,280.793001 L327.089642,276.796114 L326.590031,276.796114 L326.590031,280.793001 Z M322.516204,286.425613 L322.268397,285.991951 L325.736695,284.005498 L325.985502,284.438161 L322.516204,286.425613 Z M285.988654,288.617906 L286.488265,288.617906 L286.488265,284.621019 L285.988654,284.621019 L285.988654,288.617906 Z M315.578607,290.396521 L315.3308,289.963858 L318.800098,287.977405 L319.047905,288.411067 L315.578607,290.396521 Z M308.64201,294.369426 L308.394203,293.935764 L311.863501,291.95031 L312.111308,292.383973 L308.64201,294.369426 Z M285.988654,296.61168 L286.488265,296.61168 L286.488265,292.614793 L285.988654,292.614793 L285.988654,296.61168 Z M301.705413,298.342332 L301.457606,297.90867 L304.925904,295.922217 L305.173711,296.35488 L301.705413,298.342332 Z M294.767816,302.313239 L294.520009,301.880576 L297.989307,299.894123 L298.237114,300.327786 L294.767816,302.313239 Z M285.988654,304.605454 L286.488265,304.605454 L286.488265,300.608567 L285.988654,300.608567 L285.988654,304.605454 Z M287.831219,306.286145 L287.583412,305.852483 L291.05271,303.867029 L291.300517,304.299692 L287.831219,306.286145 Z" id="Fill-101" fill="#545454"></path>
                        <path d="M259.661759,244.857689 L259.661759,260.075836 L265.937871,263.96181 L265.937871,248.45189 L306.539248,225.056112 L299.915407,221.216103 L259.661759,244.857689 Z" id="Fill-103" fill="#FFFFFF"></path>
                        <path d="M303.851841,223.786601 L300.394534,221.782162 L300.644339,221.350498 L304.101646,223.353938 L303.851841,223.786601 Z M293.751707,225.125558 L293.497905,224.695893 L296.944221,222.671469 L297.198023,223.101135 L293.751707,225.125558 Z M302.304046,227.785486 L302.054241,227.351824 L305.517543,225.356378 L305.767349,225.789041 L302.304046,227.785486 Z M286.858077,229.174404 L286.604274,228.742741 L290.05059,226.719317 L290.304392,227.15098 L286.858077,229.174404 Z M295.37844,231.776378 L295.128635,231.342716 L298.590938,229.34727 L298.840744,229.780932 L295.37844,231.776378 Z M279.966444,233.222252 L279.712642,232.792586 L283.157959,230.768163 L283.411761,231.197828 L279.966444,233.222252 Z M288.451835,235.767269 L288.20203,235.334606 L291.665332,233.339161 L291.915138,233.771824 L288.451835,235.767269 Z M273.072813,237.271098 L272.819011,236.840434 L276.266326,234.81601 L276.519129,235.247674 L273.072813,237.271098 Z M281.52523,239.758161 L281.275425,239.325498 L284.738727,237.330052 L284.988533,237.762715 L281.52523,239.758161 Z M266.180182,241.318945 L265.92638,240.88928 L269.372695,238.864857 L269.626498,239.295521 L266.180182,241.318945 Z M274.599624,243.750052 L274.349819,243.31639 L277.812122,241.320944 L278.061928,241.753607 L274.599624,243.750052 Z M267.673019,247.740944 L267.423214,247.307281 L270.886516,245.311835 L271.136322,245.745498 L267.673019,247.740944 Z M259.911065,248.855076 L259.411454,248.855076 L259.411454,244.714301 L262.480064,242.913703 L262.732867,243.343369 L259.911065,245.001078 L259.911065,248.855076 Z M265.689564,254.587611 L266.189175,254.587611 L266.189175,250.590724 L265.689564,250.590724 L265.689564,254.587611 Z M259.411454,256.84885 L259.911065,256.84885 L259.911065,252.851963 L259.411454,252.851963 L259.411454,256.84885 Z M265.689564,262.581385 L266.189175,262.581385 L266.189175,258.584498 L265.689564,258.584498 L265.689564,262.581385 Z M263.583205,262.798216 L260.184851,260.693855 L260.447647,260.268187 L263.846,262.372548 L263.583205,262.798216 Z" id="Fill-105" fill="#545454"></path>
                        <path d="M280.894322,250.77578 L296.40624,241.54397 L304.690787,246.316253 L288.898088,255.35921 L280.894322,250.77578 Z" id="Fill-107" fill="#FFFFFF"></path>
                        <path d="M294.761221,242.814281 L294.50542,242.384615 L296.404941,241.254496 L298.206538,242.292687 L297.956732,242.726349 L296.407939,241.834044 L294.761221,242.814281 Z M304.49464,246.715242 L304.304788,246.382502 L301.420035,244.720796 L301.66984,244.287134 L305.191098,246.316553 L304.49464,246.715242 Z M287.891572,246.902097 L287.635771,246.473431 L291.071095,244.429023 L291.325897,244.857689 L287.891572,246.902097 Z M297.558043,250.687149 L297.310236,250.254486 L300.778534,248.268033 L301.027341,248.701695 L297.558043,250.687149 Z M281.021922,250.989913 L280.766121,250.560248 L284.201446,248.516839 L284.456247,248.945505 L281.021922,250.989913 Z M286.90534,254.505175 L283.436042,252.518722 L283.683849,252.086059 L287.153147,254.071513 L286.90534,254.505175 Z M290.620446,254.660055 L290.372639,254.226392 L293.841937,252.239939 L294.089744,252.673602 L290.620446,254.660055 Z" id="Fill-109" fill="#545454"></path>
                        <path d="M301.227285,266.872842 L342.334268,243.62395 L382.430039,266.872842 L341.828662,290.121735 L301.227285,266.872842 Z" id="Fill-111" fill="#FFFFFF"></path>
                        <path d="M346.304176,246.214532 L342.84587,244.209094 L343.095675,243.777431 L346.553982,245.782869 L346.304176,246.214532 Z M336.140093,247.414598 L335.894284,246.979936 L339.372575,245.011469 L339.619383,245.446131 L336.140093,247.414598 Z M353.21979,250.224409 L349.761483,248.21997 L350.011289,247.788307 L353.469595,249.792745 L353.21979,250.224409 Z M329.181512,251.349533 L328.935704,250.913872 L332.414994,248.946405 L332.660803,249.382065 L329.181512,251.349533 Z M360.134404,254.233287 L356.677097,252.229847 L356.926903,251.798184 L360.38421,253.802622 L360.134404,254.233287 Z M322.223931,255.284468 L321.978123,254.849807 L325.457413,252.882339 L325.703222,253.317001 L322.223931,255.284468 Z M367.050018,258.244163 L363.592711,256.238725 L363.842516,255.80806 L367.299823,257.812499 L367.050018,258.244163 Z M315.26635,259.220403 L315.019543,258.784742 L318.498833,256.817274 L318.744641,257.252935 L315.26635,259.220403 Z M373.965632,262.25404 L370.508324,260.248602 L370.75813,259.816938 L374.215437,261.822376 L373.965632,262.25404 Z M308.308769,263.155338 L308.062961,262.720676 L311.541252,260.753209 L311.78706,261.18787 L308.308769,263.155338 Z M380.881245,266.262917 L377.422939,264.258479 L377.672744,263.826815 L381.131051,265.832253 L380.881245,266.262917 Z M303.958158,268.724001 L300.721679,266.872443 L304.582672,264.688144 L304.82848,265.123805 L301.732891,266.874441 L304.205965,268.291338 L303.958158,268.724001 Z M377.045233,270.244816 L376.797426,269.811154 L380.264726,267.824701 L380.512533,268.258363 L377.045233,270.244816 Z M310.894755,272.696906 L307.426457,270.711453 L307.674264,270.27779 L311.143562,272.263244 L310.894755,272.696906 Z M370.107637,274.215723 L369.85983,273.78306 L373.328128,271.797607 L373.575935,272.23027 L370.107637,274.215723 Z M317.832352,276.669812 L314.363054,274.68236 L314.610861,274.249697 L318.080159,276.23615 L317.832352,276.669812 Z M363.171039,278.188629 L362.923232,277.754967 L366.391531,275.769513 L366.639338,276.203175 L363.171039,278.188629 Z M324.768949,280.640719 L321.300651,278.655266 L321.548458,278.221603 L325.016756,280.208056 L324.768949,280.640719 Z M356.234442,282.161535 L355.985636,281.727872 L359.453934,279.74142 L359.701741,280.174083 L356.234442,282.161535 Z M331.706546,284.613625 L328.237248,282.627172 L328.485055,282.194509 L331.954353,284.179963 L331.706546,284.613625 Z M349.296845,286.132442 L349.049038,285.699779 L352.517337,283.713326 L352.765144,284.146988 L349.296845,286.132442 Z M338.643143,288.585531 L335.173845,286.599078 L335.421652,286.165416 L338.89095,288.152868 L338.643143,288.585531 Z M342.359249,290.105347 L342.111442,289.671685 L345.57974,287.686232 L345.827547,288.119894 L342.359249,290.105347 Z" id="Fill-113" fill="#545454"></path>
                        <path d="M301.227285,266.872842 L301.227285,313.707365 L341.828662,336.956257 L341.828662,290.121735 L301.227285,266.872842 Z" id="Fill-115" fill="#FFFFFF"></path>
                        <path d="M301.476691,270.870129 L300.97708,270.870129 L300.97708,266.441578 L304.287501,268.3391 L304.039694,268.771763 L301.476691,267.304906 L301.476691,270.870129 Z M310.977291,272.74367 L307.508992,270.758216 L307.756799,270.324554 L311.225098,272.310008 L310.977291,272.74367 Z M317.913888,276.716575 L314.44559,274.730123 L314.694396,274.29746 L318.161695,276.282913 L317.913888,276.716575 Z M300.97708,278.863903 L301.476691,278.863903 L301.476691,274.867016 L300.97708,274.867016 L300.97708,278.863903 Z M324.851485,280.688482 L321.383186,278.702029 L321.630993,278.268367 L325.099292,280.255819 L324.851485,280.688482 Z M331.788082,284.660388 L328.319784,282.673936 L328.567591,282.241272 L332.035889,284.226726 L331.788082,284.660388 Z M300.97708,286.857677 L301.476691,286.857677 L301.476691,282.86079 L300.97708,282.86079 L300.97708,286.857677 Z M338.72468,288.632295 L335.25738,286.646841 L335.505187,286.213179 L338.972487,288.199632 L338.72468,288.632295 Z M341.578457,294.682582 L342.078068,294.682582 L342.078068,290.685695 L341.578457,290.685695 L341.578457,294.682582 Z M300.97708,294.851451 L301.476691,294.851451 L301.476691,290.854564 L300.97708,290.854564 L300.97708,294.851451 Z M341.578457,302.676356 L342.078068,302.676356 L342.078068,298.679469 L341.578457,298.679469 L341.578457,302.676356 Z M300.97708,302.845225 L301.476691,302.845225 L301.476691,298.848338 L300.97708,298.848338 L300.97708,302.845225 Z M341.578457,310.67013 L342.078068,310.67013 L342.078068,306.673243 L341.578457,306.673243 L341.578457,310.67013 Z M300.97708,310.838999 L301.476691,310.838999 L301.476691,306.842112 L300.97708,306.842112 L300.97708,310.838999 Z M305.550518,316.471612 L302.08122,314.48416 L302.330026,314.051497 L305.798325,316.037949 L305.550518,316.471612 Z M341.578457,318.663904 L342.078068,318.663904 L342.078068,314.667017 L341.578457,314.667017 L341.578457,318.663904 Z M312.488114,320.442519 L309.018816,318.457065 L309.266623,318.023403 L312.735921,320.009856 L312.488114,320.442519 Z M319.424712,324.415425 L315.955414,322.429971 L316.203221,321.996309 L319.672519,323.981762 L319.424712,324.415425 Z M341.578457,326.657678 L342.078068,326.657678 L342.078068,322.660791 L341.578457,322.660791 L341.578457,326.657678 Z M326.361309,328.38833 L322.89301,326.400878 L323.140817,325.968215 L326.609116,327.954668 L326.361309,328.38833 Z M333.298906,332.359237 L329.829608,330.373784 L330.077415,329.940122 L333.546713,331.926574 L333.298906,332.359237 Z M341.578457,334.651452 L342.078068,334.651452 L342.078068,330.654565 L341.578457,330.654565 L341.578457,334.651452 Z M340.235503,336.332143 L336.766205,334.34569 L337.014012,333.913027 L340.48331,335.898481 L340.235503,336.332143 Z" id="Fill-117" fill="#545454"></path>
                        <path d="M382.429639,266.872842 L382.429639,313.707365 L341.828262,336.956257 L341.828262,290.121735 L382.429639,266.872842 Z" id="Fill-119" fill="#FFFFFF"></path>
                        <path d="M382.679145,270.870129 L382.179534,270.870129 L382.179534,267.304906 L379.61653,268.771763 L379.368723,268.3391 L382.679145,266.441578 L382.679145,270.870129 Z M372.678934,272.74367 L372.431127,272.310008 L375.899426,270.324554 L376.147233,270.758216 L372.678934,272.74367 Z M365.742337,276.716575 L365.49453,276.282913 L368.961829,274.29746 L369.210635,274.730123 L365.742337,276.716575 Z M382.179534,278.863903 L382.679145,278.863903 L382.679145,274.867016 L382.179534,274.867016 L382.179534,278.863903 Z M358.80474,280.688482 L358.556933,280.255819 L362.025232,278.268367 L362.273039,278.702029 L358.80474,280.688482 Z M351.868143,284.660388 L351.620336,284.226726 L355.088634,282.241272 L355.336441,282.673936 L351.868143,284.660388 Z M382.179534,286.857677 L382.679145,286.857677 L382.679145,282.86079 L382.179534,282.86079 L382.179534,286.857677 Z M344.931545,288.632295 L344.683738,288.199632 L348.151038,286.213179 L348.398845,286.646841 L344.931545,288.632295 Z M341.578157,294.682582 L342.077768,294.682582 L342.077768,290.685695 L341.578157,290.685695 L341.578157,294.682582 Z M382.179534,294.851451 L382.679145,294.851451 L382.679145,290.854564 L382.179534,290.854564 L382.179534,294.851451 Z M341.578157,302.676356 L342.077768,302.676356 L342.077768,298.679469 L341.578157,298.679469 L341.578157,302.676356 Z M382.179534,302.845225 L382.679145,302.845225 L382.679145,298.848338 L382.179534,298.848338 L382.179534,302.845225 Z M341.578157,310.67013 L342.077768,310.67013 L342.077768,306.673243 L341.578157,306.673243 L341.578157,310.67013 Z M382.179534,310.838999 L382.679145,310.838999 L382.679145,306.842112 L382.179534,306.842112 L382.179534,310.838999 Z M378.105707,316.471612 L377.8579,316.037949 L381.326199,314.051497 L381.575005,314.48416 L378.105707,316.471612 Z M341.578157,318.663904 L342.077768,318.663904 L342.077768,314.667017 L341.578157,314.667017 L341.578157,318.663904 Z M371.168111,320.442519 L370.920304,320.009856 L374.389602,318.023403 L374.637408,318.457065 L371.168111,320.442519 Z M364.231513,324.415425 L363.983706,323.981762 L367.453004,321.996309 L367.700811,322.429971 L364.231513,324.415425 Z M341.578157,326.657678 L342.077768,326.657678 L342.077768,322.660791 L341.578157,322.660791 L341.578157,326.657678 Z M357.294916,328.38833 L357.047109,327.954668 L360.515408,325.968215 L360.763215,326.400878 L357.294916,328.38833 Z M350.357319,332.359237 L350.109512,331.926574 L353.57881,329.940122 L353.826617,330.373784 L350.357319,332.359237 Z M341.578157,334.651452 L342.077768,334.651452 L342.077768,330.654565 L341.578157,330.654565 L341.578157,334.651452 Z M343.420722,336.332143 L343.172915,335.898481 L346.642213,333.913027 L346.89002,334.34569 L343.420722,336.332143 Z" id="Fill-121" fill="#545454"></path>
                        <path d="M315.251362,274.903288 L315.251362,290.121435 L321.527474,294.007408 L321.527474,278.497488 L362.128851,255.101711 L355.50501,251.261701 L315.251362,274.903288 Z" id="Fill-123" fill="#FFFFFF"></path>
                        <path d="M359.441344,253.832599 L355.984037,251.827161 L356.233842,251.396496 L359.69115,253.400935 L359.441344,253.832599 Z M349.341211,255.171556 L349.087408,254.739892 L352.533724,252.716468 L352.787527,253.147133 L349.341211,255.171556 Z M357.89355,257.831484 L357.643744,257.397822 L361.107047,255.402376 L361.356852,255.836039 L357.89355,257.831484 Z M342.44758,259.220403 L342.193778,258.788739 L345.640093,256.765315 L345.893896,257.195979 L342.44758,259.220403 Z M350.967944,261.822376 L350.718138,261.388714 L354.180442,259.393268 L354.430247,259.82693 L350.967944,261.822376 Z M335.555948,263.26825 L335.302145,262.837585 L338.748461,260.812163 L339.002263,261.243827 L335.555948,263.26825 Z M344.041339,265.813268 L343.791533,265.380605 L347.254836,263.385159 L347.504641,263.817822 L344.041339,265.813268 Z M328.662317,267.316097 L328.408515,266.885433 L331.85583,264.861009 L332.108633,265.292673 L328.662317,267.316097 Z M337.114734,269.80316 L336.864928,269.370497 L340.328231,267.375051 L340.578036,267.807714 L337.114734,269.80316 Z M321.769685,271.364944 L321.515883,270.93328 L324.962199,268.909856 L325.216001,269.34152 L321.769685,271.364944 Z M330.189128,273.795051 L329.939322,273.361389 L333.401626,271.365943 L333.651431,271.798606 L330.189128,273.795051 Z M323.262523,277.785943 L323.012717,277.35228 L326.47602,275.356835 L326.725825,275.790497 L323.262523,277.785943 Z M315.500568,278.900075 L315.000957,278.900075 L315.000957,274.7593 L318.069567,272.957703 L318.323369,273.388368 L315.500568,275.046077 L315.500568,278.900075 Z M321.278068,284.63261 L321.777679,284.63261 L321.777679,280.635723 L321.278068,280.635723 L321.278068,284.63261 Z M315.000957,286.893849 L315.500568,286.893849 L315.500568,282.896962 L315.000957,282.896962 L315.000957,286.893849 Z M321.278068,292.626384 L321.777679,292.626384 L321.777679,288.629497 L321.278068,288.629497 L321.278068,292.626384 Z M319.171709,292.843215 L315.773356,290.739853 L316.03715,290.314185 L319.435503,292.417547 L319.171709,292.843215 Z" id="Fill-125" fill="#545454"></path>
                        <path d="M336.483825,280.821378 L351.995743,271.589569 L360.280291,276.361852 L344.487591,285.404809 L336.483825,280.821378 Z" id="Fill-127" fill="#FFFFFF"></path>
                        <path d="M350.350824,272.859779 L350.095024,272.430114 L351.994544,271.299994 L353.796141,272.339185 L353.546336,272.771848 L351.997542,271.880542 L350.350824,272.859779 Z M360.084243,276.760741 L359.894391,276.428 L357.009638,274.766294 L357.259444,274.333631 L360.780701,276.363051 L360.084243,276.760741 Z M343.481175,276.948595 L343.225374,276.518929 L346.660699,274.474522 L346.9155,274.904187 L343.481175,276.948595 Z M353.147646,280.733647 L352.899839,280.299984 L356.368138,278.314531 L356.616944,278.748193 L353.147646,280.733647 Z M336.611525,281.036411 L336.355725,280.606746 L339.791049,278.562338 L340.045851,278.992003 L336.611525,281.036411 Z M342.494943,284.550674 L339.025645,282.56522 L339.273452,282.131558 L342.74275,284.118011 L342.494943,284.550674 Z M346.21005,284.705553 L345.962243,284.27289 L349.43154,282.286437 L349.679347,282.7191 L346.21005,284.705553 Z" id="Fill-129" fill="#545454"></path>
                        <path d="M382.429639,219.909421 L341.322656,196.660528 L301.226885,219.909421 L341.828262,243.158313 L382.429639,219.909421 Z" id="Fill-131" fill="#FFFFFF"></path>
                        <path d="M337.352149,199.25151 L337.102343,198.818847 L340.55965,196.814408 L340.809456,197.247071 L337.352149,199.25151 Z M347.516232,200.450576 L344.036942,198.483109 L344.28375,198.047448 L347.762041,200.015915 L347.516232,200.450576 Z M330.436535,203.261387 L330.18673,202.828724 L333.645036,200.824285 L333.894841,201.255949 L330.436535,203.261387 Z M354.474812,204.385512 L350.994523,202.418044 L351.240332,201.983382 L354.720621,203.95085 L354.474812,204.385512 Z M323.520921,207.271264 L323.271116,206.838601 L326.729422,204.833163 L326.979228,205.265826 L323.520921,207.271264 Z M361.432393,208.321446 L357.953103,206.352979 L358.198912,205.918318 L361.678202,207.885785 L361.432393,208.321446 Z M316.605308,211.281141 L316.355502,210.848478 L319.813809,208.844039 L320.063614,209.275703 L316.605308,211.281141 Z M368.389974,212.256381 L364.911684,210.288914 L365.157492,209.853253 L368.636782,211.82172 L368.389974,212.256381 Z M309.690693,215.290018 L309.440888,214.858355 L312.898195,212.852917 L313.148,213.28558 L309.690693,215.290018 Z M375.347555,216.191316 L371.869265,214.223849 L372.115073,213.789187 L375.593364,215.756655 L375.347555,216.191316 Z M302.775079,219.299895 L302.525274,218.867232 L305.982581,216.862793 L306.232387,217.295456 L302.775079,219.299895 Z M379.698167,221.760978 L379.45036,221.327316 L381.923434,219.91042 L378.827845,218.158784 L379.073653,217.724123 L382.934646,219.907422 L379.698167,221.760978 Z M306.612091,223.280795 L303.143792,221.294342 L303.391599,220.86068 L306.859898,222.847132 L306.612091,223.280795 Z M372.76157,225.732885 L372.512763,225.299223 L375.982061,223.313769 L376.229868,223.746432 L372.76157,225.732885 Z M313.549688,227.252701 L310.08039,225.266248 L310.328197,224.833585 L313.797494,226.819039 L313.549688,227.252701 Z M365.823973,229.70579 L365.576166,229.272128 L369.045464,227.285675 L369.293271,227.719338 L365.823973,229.70579 Z M320.486285,231.225607 L317.016987,229.239154 L317.264794,228.805492 L320.734092,230.791945 L320.486285,231.225607 Z M358.887376,233.677697 L358.639569,233.244035 L362.107867,231.257582 L362.355674,231.691244 L358.887376,233.677697 Z M327.422882,235.197513 L323.954584,233.21106 L324.202391,232.777398 L327.671688,234.763851 L327.422882,235.197513 Z M351.949779,237.649603 L351.701972,237.21694 L355.17127,235.230487 L355.419077,235.663151 L351.949779,237.649603 Z M334.360479,239.16942 L330.891181,237.182967 L331.138988,236.750304 L334.608286,238.736757 L334.360479,239.16942 Z M345.013182,241.62151 L344.765375,241.188847 L348.234673,239.202394 L348.48248,239.636056 L345.013182,241.62151 Z M341.297076,243.141326 L337.828777,241.155872 L338.076584,240.72221 L341.544883,242.708663 L341.297076,243.141326 Z" id="Fill-133" fill="#545454"></path>
                        <path d="M382.429639,219.909421 L382.429639,266.743943 L341.828262,289.992835 L341.828262,243.158313 L382.429639,219.909421 Z" id="Fill-135" fill="#FFFFFF"></path>
                        <path d="M382.679145,223.906208 L382.179534,223.906208 L382.179534,220.339985 L379.615531,221.807842 L379.367724,221.375179 L382.679145,219.478656 L382.679145,223.906208 Z M372.677935,225.780748 L372.430128,225.347085 L375.899426,223.361632 L376.147233,223.794295 L372.677935,225.780748 Z M365.741337,229.752654 L365.49353,229.318992 L368.961829,227.333538 L369.210635,227.766201 L365.741337,229.752654 Z M382.179534,231.899982 L382.679145,231.899982 L382.679145,227.903095 L382.179534,227.903095 L382.179534,231.899982 Z M358.803741,233.72556 L358.555934,233.291897 L362.025232,231.305445 L362.273039,231.739107 L358.803741,233.72556 Z M351.867143,237.697466 L351.619336,237.263804 L355.088634,235.277351 L355.336441,235.711013 L351.867143,237.697466 Z M382.179534,239.893755 L382.679145,239.893755 L382.679145,235.896868 L382.179534,235.896868 L382.179534,239.893755 Z M344.930546,241.669372 L344.682739,241.236709 L348.151038,239.250257 L348.398845,239.683919 L344.930546,241.669372 Z M341.578157,247.720659 L342.077768,247.720659 L342.077768,243.723772 L341.578157,243.723772 L341.578157,247.720659 Z M382.179534,247.887529 L382.679145,247.887529 L382.679145,243.890642 L382.179534,243.890642 L382.179534,247.887529 Z M341.578157,255.714433 L342.077768,255.714433 L342.077768,251.717546 L341.578157,251.717546 L341.578157,255.714433 Z M382.179534,255.881303 L382.679145,255.881303 L382.679145,251.884416 L382.179534,251.884416 L382.179534,255.881303 Z M341.578157,263.708207 L342.077768,263.708207 L342.077768,259.71132 L341.578157,259.71132 L341.578157,263.708207 Z M382.179534,263.875077 L382.679145,263.875077 L382.679145,259.87819 L382.179534,259.87819 L382.179534,263.875077 Z M378.106706,269.50769 L377.858899,269.075027 L381.326199,267.087575 L381.575005,267.521237 L378.106706,269.50769 Z M341.578157,271.701981 L342.077768,271.701981 L342.077768,267.705094 L341.578157,267.705094 L341.578157,271.701981 Z M371.16911,273.479597 L370.921303,273.045934 L374.389602,271.060481 L374.637408,271.494143 L371.16911,273.479597 Z M364.232512,277.451503 L363.984705,277.01884 L367.453004,275.033386 L367.700811,275.466049 L364.232512,277.451503 Z M341.578157,279.695755 L342.077768,279.695755 L342.077768,275.698868 L341.578157,275.698868 L341.578157,279.695755 Z M357.295915,281.424409 L357.048108,280.990746 L360.515408,279.004294 L360.763215,279.437956 L357.295915,281.424409 Z M350.358319,285.396315 L350.110512,284.962653 L353.57881,282.977199 L353.826617,283.409862 L350.358319,285.396315 Z M341.578157,287.689529 L342.077768,287.689529 L342.077768,283.692642 L341.578157,283.692642 L341.578157,287.689529 Z M343.421721,289.368222 L343.173914,288.935559 L346.642213,286.949106 L346.89002,287.382768 L343.421721,289.368222 Z" id="Fill-137" fill="#545454"></path>
                        <path d="M301.227285,219.909421 L301.227285,266.743943 L341.828662,289.992835 L341.828662,243.158313 L301.227285,219.909421 Z" id="Fill-139" fill="#FFFFFF"></path>
                        <path d="M301.476691,223.906208 L300.97708,223.906208 L300.97708,219.478656 L304.288501,221.375179 L304.040694,221.807842 L301.476691,220.339985 L301.476691,223.906208 Z M310.97829,225.780748 L307.508992,223.794295 L307.756799,223.361632 L311.226097,225.347085 L310.97829,225.780748 Z M317.914888,229.752654 L314.44559,227.766201 L314.694396,227.333538 L318.162695,229.318992 L317.914888,229.752654 Z M300.97708,231.899982 L301.476691,231.899982 L301.476691,227.903095 L300.97708,227.903095 L300.97708,231.899982 Z M324.852484,233.72556 L321.383186,231.739107 L321.630993,231.305445 L325.100291,233.291897 L324.852484,233.72556 Z M331.789082,237.697466 L328.319784,235.711013 L328.567591,235.277351 L332.036888,237.263804 L331.789082,237.697466 Z M300.97708,239.893755 L301.476691,239.893755 L301.476691,235.896868 L300.97708,235.896868 L300.97708,239.893755 Z M338.725679,241.669372 L335.25738,239.683919 L335.505187,239.250257 L338.973486,241.236709 L338.725679,241.669372 Z M341.578457,247.720659 L342.078068,247.720659 L342.078068,243.723772 L341.578457,243.723772 L341.578457,247.720659 Z M300.97708,247.887529 L301.476691,247.887529 L301.476691,243.890642 L300.97708,243.890642 L300.97708,247.887529 Z M341.578457,255.714433 L342.078068,255.714433 L342.078068,251.717546 L341.578457,251.717546 L341.578457,255.714433 Z M300.97708,255.881303 L301.476691,255.881303 L301.476691,251.884416 L300.97708,251.884416 L300.97708,255.881303 Z M341.578457,263.708207 L342.078068,263.708207 L342.078068,259.71132 L341.578457,259.71132 L341.578457,263.708207 Z M300.97708,263.875077 L301.476691,263.875077 L301.476691,259.87819 L300.97708,259.87819 L300.97708,263.875077 Z M305.549519,269.50769 L302.08122,267.521237 L302.330026,267.087575 L305.797326,269.075027 L305.549519,269.50769 Z M341.578457,271.701981 L342.078068,271.701981 L342.078068,267.705094 L341.578457,267.705094 L341.578457,271.701981 Z M312.487115,273.479597 L309.018816,271.494143 L309.266623,271.060481 L312.734922,273.045934 L312.487115,273.479597 Z M319.423712,277.451503 L315.955414,275.466049 L316.203221,275.033386 L319.671519,277.01884 L319.423712,277.451503 Z M341.578457,279.695755 L342.078068,279.695755 L342.078068,275.698868 L341.578457,275.698868 L341.578457,279.695755 Z M326.36031,281.424409 L322.89301,279.437956 L323.140817,279.004294 L326.608117,280.990746 L326.36031,281.424409 Z M333.297906,285.396315 L329.829608,283.409862 L330.077415,282.977199 L333.545713,284.962653 L333.297906,285.396315 Z M341.578457,287.689529 L342.078068,287.689529 L342.078068,283.692642 L341.578457,283.692642 L341.578457,287.689529 Z M340.234504,289.368222 L336.766205,287.382768 L337.014012,286.949106 L340.482311,288.935559 L340.234504,289.368222 Z" id="Fill-141" fill="#545454"></path>
                        <path d="M368.405562,227.939866 L368.405562,243.158013 L362.12945,247.043986 L362.12945,231.534067 L321.528073,208.138289 L328.151914,204.298279 L368.405562,227.939866 Z" id="Fill-143" fill="#FFFFFF"></path>
                        <path d="M324.214881,206.869177 L323.965075,206.436514 L327.422383,204.432075 L327.672188,204.864738 L324.214881,206.869177 Z M334.315014,208.208134 L330.868698,206.183711 L331.122501,205.753046 L334.568816,207.77747 L334.315014,208.208134 Z M325.762675,210.867063 L322.299373,208.871617 L322.549178,208.438954 L326.012481,210.4344 L325.762675,210.867063 Z M341.208645,212.256981 L337.762329,210.232557 L338.016131,209.801893 L341.462447,211.825317 L341.208645,212.256981 Z M332.688281,214.858954 L329.225978,212.863508 L329.475783,212.429846 L332.938087,214.425292 L332.688281,214.858954 Z M348.101277,216.304828 L344.654961,214.280405 L344.908763,213.84974 L348.355079,215.874163 L348.101277,216.304828 Z M339.614886,218.849846 L336.151584,216.8544 L336.401389,216.420738 L339.864692,218.416184 L339.614886,218.849846 Z M354.993908,220.352675 L351.547592,218.328252 L351.801395,217.898587 L355.24771,219.922011 L354.993908,220.352675 Z M346.541491,222.840737 L343.078189,220.845292 L343.327994,220.411629 L346.791297,222.407075 L346.541491,222.840737 Z M361.88654,224.401522 L358.440224,222.378098 L358.694026,221.946434 L362.140342,223.969858 L361.88654,224.401522 Z M353.467097,226.831629 L350.004794,224.836183 L350.254599,224.402521 L353.716903,226.397967 L353.467097,226.831629 Z M360.393702,230.822521 L356.9304,228.827075 L357.180205,228.394412 L360.643508,230.389858 L360.393702,230.822521 Z M368.655268,231.936653 L368.155657,231.936653 L368.155657,228.082655 L365.332855,226.424946 L365.586658,225.99528 L368.655268,227.796877 L368.655268,231.936653 Z M361.878546,237.669188 L362.378157,237.669188 L362.378157,233.672301 L361.878546,233.672301 L361.878546,237.669188 Z M368.155657,239.930427 L368.655268,239.930427 L368.655268,235.93354 L368.155657,235.93354 L368.155657,239.930427 Z M361.878546,245.662962 L362.378157,245.662962 L362.378157,241.666075 L361.878546,241.666075 L361.878546,245.662962 Z M364.484516,245.879793 L364.220722,245.454125 L367.619075,243.350763 L367.882869,243.775432 L364.484516,245.879793 Z" id="Fill-145" fill="#545454"></path>
                        <path d="M347.173,233.857957 L331.661081,224.626147 L323.376534,229.39843 L339.169233,238.441387 L347.173,233.857957 Z" id="Fill-147" fill="#FFFFFF"></path>
                        <path d="M333.3064,225.896358 L331.659682,224.916121 L330.109889,225.808426 L329.860084,225.375763 L331.66268,224.337572 L333.5622,225.466692 L333.3064,225.896358 Z M323.571982,229.797319 L322.875524,229.399629 L326.396781,227.37021 L326.646587,227.803872 L323.761834,229.464578 L323.571982,229.797319 Z M340.17505,229.984174 L336.740725,227.940765 L336.995526,227.5111 L340.430851,229.555508 L340.17505,229.984174 Z M330.508579,233.769226 L327.04028,231.783772 L327.288087,231.35011 L330.756386,233.336563 L330.508579,233.769226 Z M347.044699,234.072989 L343.610374,232.028581 L343.865176,231.599915 L347.3005,233.643324 L347.044699,234.072989 Z M341.161282,237.587252 L340.913475,237.154589 L344.382773,235.168136 L344.63058,235.600799 L341.161282,237.587252 Z M337.446175,237.742131 L333.976878,235.755678 L334.224685,235.323015 L337.693982,237.308469 L337.446175,237.742131 Z" id="Fill-149" fill="#545454"></path>
                    </g>
                </g>
            </g>
        </g>
    </g>
</svg>