<?xml version="1.0" encoding="UTF-8" standalone="no"?>
<svg width="362px" height="259px" viewBox="0 0 362 259" version="1.1" xmlns="http://www.w3.org/2000/svg" xmlns:xlink="http://www.w3.org/1999/xlink">
    <!-- Generator: sketchtool 3.6.1 (26313) - http://www.bohemiancoding.com/sketch -->
    <title>graphic05</title>
    <desc>Created with sketchtool.</desc>
    <defs>
        <path id="path-1" d="M0,258.323492 L362,258.323492 L362,0 L0,0 L0,258.323492 Z"></path>
    </defs>
    <g id="Ubicación-y-Contacto" stroke="none" stroke-width="1" fill="none" fill-rule="evenodd">
        <g id="Ubicación-y-Contacto---lg" transform="translate(-248.000000, -1569.000000)">
            <g id="content" transform="translate(150.000000, 660.000000)">
                <g id="Formulario" transform="translate(0.000000, 833.000000)">
                    <g id="graphic05" transform="translate(98.000000, 76.000000)">
                        <path d="M225.155242,239.347685 L356.52621,239.347685 L356.52621,180.660625 L293.664107,149.89099 C291.90629,149.030145 289.798881,149.030145 288.041065,149.89099 L225.155242,180.660625 L225.155242,239.347685 L225.155242,239.347685 Z M362,243.726718 L218.951613,243.726718 L218.951613,181.137575 C218.951613,178.71524 220.304004,176.504558 222.481478,175.443008 L287.636004,143.663641 C289.388712,142.809 291.430071,142.809 293.183143,143.663641 L358.396786,175.443008 C360.57426,176.504558 362,178.71524 362,181.137575 L362,243.726718 L362,243.726718 Z" id="Fill-1" fill="#ECECEC"></path>
                        <mask id="mask-2" fill="white">
                            <use xlink:href="#path-1"></use>
                        </mask>
                        <g id="Clip-4"></g>
                        <path d="M251.473956,237.315085 L329.323296,237.315085 L329.323296,191.99721 L251.473956,191.99721 L251.473956,237.315085 Z M248.21705,240.572355 L332.580567,240.572355 L332.580567,188.740304 L248.21705,188.740304 L248.21705,240.572355 Z" id="Fill-3" fill="#ECECEC" mask="url(#mask-2)"></path>
                        <path d="M250.699597,202.125911 L330.981855,202.125911 L330.981855,198.111798 L250.699597,198.111798 L250.699597,202.125911 Z" id="Fill-5" fill="#ECECEC" mask="url(#mask-2)"></path>
                        <path d="M250.699597,211.978734 L330.981855,211.978734 L330.981855,207.964621 L250.699597,207.964621 L250.699597,211.978734 Z" id="Fill-6" fill="#ECECEC" mask="url(#mask-2)"></path>
                        <path d="M250.699597,220.371879 L330.981855,220.371879 L330.981855,217.817444 L250.699597,217.817444 L250.699597,220.371879 Z" id="Fill-7" fill="#ECECEC" mask="url(#mask-2)"></path>
                        <path d="M250.699597,230.224702 L330.981855,230.224702 L330.981855,226.940427 L250.699597,226.940427 L250.699597,230.224702 Z" id="Fill-8" fill="#ECECEC" mask="url(#mask-2)"></path>
                        <path d="M250.699597,239.347685 L330.981855,239.347685 L330.981855,234.968653 L250.699597,234.968653 L250.699597,239.347685 Z" id="Fill-9" fill="#ECECEC" mask="url(#mask-2)"></path>
                        <path d="M6.20362903,239.347685 L137.574597,239.347685 L137.574597,180.660625 L74.712494,149.89099 C72.9546774,149.030145 70.8472681,149.030145 69.0894516,149.89099 L6.20362903,180.660625 L6.20362903,239.347685 Z M143.048387,243.726718 L0,243.726718 L0,181.137575 C0,178.71524 1.35239113,176.504558 3.52986492,175.443008 L68.6843911,143.663641 C70.4370988,142.809 72.4784577,142.809 74.2315302,143.663641 L139.445173,175.443008 C141.622647,176.504558 143.048387,178.71524 143.048387,181.137575 L143.048387,243.726718 Z" id="Fill-10" fill="#ECECEC" mask="url(#mask-2)"></path>
                        <path d="M32.5223427,237.315085 L110.371683,237.315085 L110.371683,191.99721 L32.5223427,191.99721 L32.5223427,237.315085 Z M29.2654375,240.572355 L113.628954,240.572355 L113.628954,188.740304 L29.2654375,188.740304 L29.2654375,240.572355 Z" id="Fill-11" fill="#ECECEC" mask="url(#mask-2)"></path>
                        <path d="M31.7479839,202.125911 L112.030242,202.125911 L112.030242,198.111798 L31.7479839,198.111798 L31.7479839,202.125911 Z" id="Fill-12" fill="#ECECEC" mask="url(#mask-2)"></path>
                        <path d="M31.7479839,211.978734 L112.030242,211.978734 L112.030242,207.964621 L31.7479839,207.964621 L31.7479839,211.978734 Z" id="Fill-13" fill="#ECECEC" mask="url(#mask-2)"></path>
                        <path d="M31.7479839,220.371879 L112.030242,220.371879 L112.030242,217.817444 L31.7479839,217.817444 L31.7479839,220.371879 Z" id="Fill-14" fill="#ECECEC" mask="url(#mask-2)"></path>
                        <path d="M31.7479839,230.224702 L112.030242,230.224702 L112.030242,226.940427 L31.7479839,226.940427 L31.7479839,230.224702 Z" id="Fill-15" fill="#ECECEC" mask="url(#mask-2)"></path>
                        <path d="M31.7479839,239.347685 L112.030242,239.347685 L112.030242,234.968653 L31.7479839,234.968653 L31.7479839,239.347685 Z" id="Fill-16" fill="#ECECEC" mask="url(#mask-2)"></path>
                        <path d="M102.03189,256.742187 L102.03189,183.362743 L178.688674,146.779943 L188.663379,150.141945 L257.268218,183.271878 L259.214333,256.012348 L102.03189,256.742187 Z" id="Fill-17" fill="#FFFFFF" mask="url(#mask-2)"></path>
                        <path d="M105.461694,253.214621 L255.808468,253.214621 L255.808468,186.084056 L183.947454,150.880651 C181.936383,149.895734 179.472448,149.895734 177.461377,150.880651 L105.461694,186.084056 L105.461694,253.214621 Z M262.012097,258.323492 L98.5282258,258.323492 L98.5282258,186.629976 C98.5282258,183.858048 100.075484,181.329157 102.566423,180.114341 L177.109595,143.755966 C179.114827,142.777982 181.45031,142.777982 183.455542,143.755966 L257.977913,180.114341 C260.469218,181.329157 262.012097,183.858048 262.012097,186.629976 L262.012097,258.323492 Z" id="Fill-18" fill="#ECECEC" mask="url(#mask-2)"></path>
                        <path d="M135.736863,250.902127 L224.803825,250.902127 L224.803825,199.054385 L135.736863,199.054385 L135.736863,250.902127 Z M132.010306,254.628319 L228.530016,254.628319 L228.530016,195.327829 L132.010306,195.327829 L132.010306,254.628319 Z" id="Fill-19" fill="#ECECEC" mask="url(#mask-2)"></path>
                        <path d="M134.655242,210.519056 L226.614919,210.519056 L226.614919,206.140024 L134.655242,206.140024 L134.655242,210.519056 Z" id="Fill-20" fill="#ECECEC" mask="url(#mask-2)"></path>
                        <path d="M134.655242,221.831556 L226.614919,221.831556 L226.614919,217.452524 L134.655242,217.452524 L134.655242,221.831556 Z" id="Fill-21" fill="#ECECEC" mask="url(#mask-2)"></path>
                        <path d="M134.655242,231.684379 L226.614919,231.684379 L226.614919,228.400105 L134.655242,228.400105 L134.655242,231.684379 Z" id="Fill-22" fill="#ECECEC" mask="url(#mask-2)"></path>
                        <path d="M134.655242,242.63196 L226.614919,242.63196 L226.614919,238.982766 L134.655242,238.982766 L134.655242,242.63196 Z" id="Fill-23" fill="#ECECEC" mask="url(#mask-2)"></path>
                        <path d="M134.655242,253.214621 L226.614919,253.214621 L226.614919,248.10575 L134.655242,248.10575 L134.655242,253.214621 Z" id="Fill-24" fill="#ECECEC" mask="url(#mask-2)"></path>
                        <path d="M180.270161,22.4684496 C179.27904,22.4684496 178.477313,21.665627 178.477313,20.6756008 L178.477313,1.79321371 C178.477313,0.802822581 179.27904,0 180.270161,0 C181.261282,0 182.06301,0.802822581 182.06301,1.79321371 L182.06301,20.6756008 C182.06301,21.665627 181.261282,22.4684496 180.270161,22.4684496" id="Fill-25" fill="#13489E" mask="url(#mask-2)"></path>
                        <path d="M276.194615,99.5104792 L257.312227,99.5104792 C256.321106,99.5104792 255.519379,98.7076567 255.519379,97.7176304 C255.519379,96.7272393 256.321106,95.9244167 257.312227,95.9244167 L276.194615,95.9244167 C277.185735,95.9244167 277.987463,96.7272393 277.987463,97.7176304 C277.987463,98.7076567 277.185735,99.5104792 276.194615,99.5104792" id="Fill-26" fill="#13489E" mask="url(#mask-2)"></path>
                        <path d="M103.227949,99.5104792 L84.3455621,99.5104792 C83.3544411,99.5104792 82.5527133,98.7076567 82.5527133,97.7176304 C82.5527133,96.7272393 83.3544411,95.9244167 84.3455621,95.9244167 L103.227949,95.9244167 C104.21907,95.9244167 105.020798,96.7272393 105.020798,97.7176304 C105.020798,98.7076567 104.21907,99.5104792 103.227949,99.5104792" id="Fill-27" fill="#13489E" mask="url(#mask-2)"></path>
                        <path d="M234.745943,45.0330919 C234.287239,45.0330919 233.828536,44.8579306 233.478213,44.5076081 C232.777933,43.8073278 232.777933,42.6727935 233.478213,41.9721484 L246.830977,28.6201141 C247.531257,27.9198339 248.665792,27.9198339 249.366437,28.6201141 C250.066717,29.3207593 250.066717,30.4552935 249.366437,31.1559387 L236.013673,44.5076081 C235.66335,44.8579306 235.204647,45.0330919 234.745943,45.0330919" id="Fill-28" fill="#13489E" mask="url(#mask-2)"></path>
                        <path d="M112.441506,167.339098 C111.982802,167.339098 111.524099,167.163937 111.173776,166.813979 C110.473496,166.113334 110.473496,164.9788 111.173776,164.278519 L124.52654,150.926485 C125.226821,150.226205 126.36172,150.226205 127.062,150.926485 C127.76228,151.626765 127.76228,152.761665 127.062,153.461945 L113.709236,166.813979 C113.358913,167.163937 112.90021,167.339098 112.441506,167.339098" id="Fill-29" fill="#13489E" mask="url(#mask-2)"></path>
                        <path d="M248.098598,167.339098 C247.639894,167.339098 247.18119,167.163937 246.830868,166.813979 L233.478104,153.461945 C232.777823,152.761665 232.777823,151.626765 233.478104,150.926485 C234.178749,150.226205 235.313283,150.226205 236.013563,150.926485 L249.366327,164.278519 C250.066608,164.9788 250.066608,166.113334 249.366327,166.813979 C249.01637,167.163937 248.557301,167.339098 248.098598,167.339098" id="Fill-30" fill="#13489E" mask="url(#mask-2)"></path>
                        <path d="M125.794197,45.0330919 C125.335494,45.0330919 124.87679,44.8579306 124.526467,44.5076081 L111.173703,31.1559387 C110.473423,30.4552935 110.473423,29.3207593 111.173703,28.6201141 C111.874348,27.9198339 113.008883,27.9198339 113.709163,28.6201141 L127.061927,41.9721484 C127.762207,42.6727935 127.762207,43.8073278 127.061927,44.5076081 C126.711969,44.8579306 126.252901,45.0330919 125.794197,45.0330919" id="Fill-31" fill="#13489E" mask="url(#mask-2)"></path>
                        <path d="M214.866377,68.5850601 L214.866377,69.6228907 L182.365565,98.061056 C181.243803,99.0397698 179.296593,99.0397698 178.174466,98.061056 L145.674018,69.6228907 L145.674018,68.5850601 L214.866377,68.5850601 Z M197.064151,91.7694815 L214.866377,76.1961831 L214.866377,109.556746 L197.064151,91.7694815 Z M145.674018,109.571707 L145.674018,76.1961831 L163.476244,91.7694815 L145.674018,109.571707 Z M167.005014,94.8585238 L174.92267,101.77776 C176.430151,103.092199 178.337585,103.744675 180.270198,103.744675 C182.202446,103.744675 184.110244,103.087455 185.617726,101.77776 L193.535381,94.8585238 L193.352557,95.0413484 L211.372274,113.061066 L149.168121,113.061066 L167.187839,95.0413484 L167.005014,94.8585238 Z M214.866377,58.7004895 L145.674018,58.7004895 C140.217744,58.7004895 135.789448,63.1287859 135.789448,68.5850601 L135.789448,113.06581 C135.789448,118.522084 140.217744,122.950381 145.674018,122.950381 L214.866377,122.950381 C220.322651,122.950381 224.750948,118.522084 224.750948,113.06581 L224.750948,68.5850601 C224.750948,63.1287859 220.322651,58.7004895 214.866377,58.7004895 L214.866377,58.7004895 Z" id="Fill-32" fill="#2964DB" mask="url(#mask-2)"></path>
                    </g>
                </g>
            </g>
        </g>
    </g>
</svg>