<?xml version="1.0" encoding="utf-8"?>
<!-- Generator: Adobe Illustrator 19.1.0, SVG Export Plug-In . SVG Version: 6.00 Build 0)  -->
<svg version="1.1" xmlns="http://www.w3.org/2000/svg" xmlns:xlink="http://www.w3.org/1999/xlink" x="0px" y="0px"
	 viewBox="0 0 723.8 178.7" style="enable-background:new 0 0 723.8 178.7;" xml:space="preserve">
<style type="text/css">
	.st0{display:none;}
	.st1{display:inline;}
	.st2{fill:none;stroke:#000000;stroke-miterlimit:10;}
	.st3{display:inline;opacity:0.15;}
	.st4{fill:none;stroke:#000000;stroke-width:0.25;stroke-miterlimit:10;}
	.st5{display:inline;fill:none;stroke:#ED3A3A;stroke-width:0.25;stroke-miterlimit:10;}
	.st6{fill:none;stroke:#ED3A3A;stroke-width:0.25;stroke-miterlimit:10;}
	.st7{display:inline;fill:#E7E7E7;}
	.st8{display:inline;fill:#7E858D;}
	.st9{display:inline;fill:#2467D3;}
	.st10{display:inline;fill:#FFFFFF;}
	.st11{display:inline;fill:#53544E;}
	.st12{fill:url(#SVGID_1_);}
	.st13{fill:url(#SVGID_2_);}
	.st14{fill:url(#SVGID_3_);}
	.st15{fill:url(#SVGID_4_);}
	.st16{fill:#53544E;}
	.st17{fill:url(#SVGID_5_);}
	.st18{fill:#FFFFFF;}
	.st19{fill:#AAAAAA;}
	.st20{fill:#2964DB;}
	.st21{fill:#3A3A3A;}
	.st22{fill:url(#SVGID_6_);}
	.st23{fill:url(#SVGID_7_);}
	.st24{fill:url(#SVGID_8_);}
	.st25{fill:url(#SVGID_9_);}
	.st26{fill:url(#SVGID_10_);}
</style>
<g id="Layer_1" class="st0">
</g>
<g id="Layer_2" class="st0">
	<g class="st3">
		<g>
			<g>
				<line class="st4" x1="803.3" y1="-373.9" x2="-805.1" y2="554.7"/>
			</g>
			<g>
				<line class="st4" x1="793.3" y1="-373.9" x2="-815.1" y2="554.7"/>
			</g>
			<g>
				<line class="st4" x1="783.3" y1="-373.9" x2="-825.1" y2="554.7"/>
			</g>
			<g>
				<line class="st4" x1="773.3" y1="-373.9" x2="-835.1" y2="554.7"/>
			</g>
			<g>
				<line class="st4" x1="763.3" y1="-373.9" x2="-845.1" y2="554.7"/>
			</g>
			<g>
				<line class="st4" x1="753.3" y1="-373.9" x2="-855.1" y2="554.7"/>
			</g>
			<g>
				<line class="st4" x1="743.3" y1="-373.9" x2="-865.1" y2="554.7"/>
			</g>
			<g>
				<line class="st4" x1="733.3" y1="-373.9" x2="-875.1" y2="554.7"/>
			</g>
			<g>
				<line class="st4" x1="723.3" y1="-373.9" x2="-885.1" y2="554.7"/>
			</g>
			<g>
				<line class="st4" x1="713.3" y1="-373.9" x2="-895.1" y2="554.7"/>
			</g>
			<g>
				<line class="st4" x1="703.3" y1="-373.9" x2="-905.1" y2="554.7"/>
			</g>
			<g>
				<line class="st4" x1="693.3" y1="-373.9" x2="-915.1" y2="554.7"/>
			</g>
			<g>
				<line class="st4" x1="683.3" y1="-373.9" x2="-925.1" y2="554.7"/>
			</g>
			<g>
				<line class="st4" x1="673.3" y1="-373.9" x2="-935.1" y2="554.7"/>
			</g>
			<g>
				<line class="st4" x1="663.3" y1="-373.9" x2="-945.1" y2="554.7"/>
			</g>
			<g>
				<line class="st4" x1="653.3" y1="-373.9" x2="-955.1" y2="554.7"/>
			</g>
			<g>
				<line class="st4" x1="643.3" y1="-373.9" x2="-965.1" y2="554.7"/>
			</g>
			<g>
				<line class="st4" x1="633.3" y1="-373.9" x2="-975.1" y2="554.7"/>
			</g>
			<g>
				<line class="st4" x1="623.3" y1="-373.9" x2="-985.1" y2="554.7"/>
			</g>
			<g>
				<line class="st4" x1="613.3" y1="-373.9" x2="-995.1" y2="554.7"/>
			</g>
			<g>
				<line class="st4" x1="603.3" y1="-373.9" x2="-1005.1" y2="554.7"/>
			</g>
			<g>
				<line class="st4" x1="593.3" y1="-373.9" x2="-1015.1" y2="554.7"/>
			</g>
			<g>
				<line class="st4" x1="583.3" y1="-373.9" x2="-1025.1" y2="554.7"/>
			</g>
			<g>
				<line class="st4" x1="573.3" y1="-373.9" x2="-1035.1" y2="554.7"/>
			</g>
			<g>
				<line class="st4" x1="563.3" y1="-373.9" x2="-1045.1" y2="554.7"/>
			</g>
			<g>
				<line class="st4" x1="553.3" y1="-373.9" x2="-1055.1" y2="554.7"/>
			</g>
			<g>
				<line class="st4" x1="543.3" y1="-373.9" x2="-1065.1" y2="554.7"/>
			</g>
			<g>
				<line class="st4" x1="533.3" y1="-373.9" x2="-1075.1" y2="554.7"/>
			</g>
			<g>
				<line class="st4" x1="523.3" y1="-373.9" x2="-1085.1" y2="554.7"/>
			</g>
			<g>
				<line class="st4" x1="513.3" y1="-373.9" x2="-1095.1" y2="554.7"/>
			</g>
			<g>
				<line class="st4" x1="503.3" y1="-373.9" x2="-1105.1" y2="554.7"/>
			</g>
			<g>
				<line class="st4" x1="493.3" y1="-373.9" x2="-1115.1" y2="554.7"/>
			</g>
			<g>
				<line class="st4" x1="483.3" y1="-373.9" x2="-1125.1" y2="554.7"/>
			</g>
			<g>
				<line class="st4" x1="473.3" y1="-373.9" x2="-1135.1" y2="554.7"/>
			</g>
			<g>
				<line class="st4" x1="463.3" y1="-373.9" x2="-1145.1" y2="554.7"/>
			</g>
			<g>
				<line class="st4" x1="453.3" y1="-373.9" x2="-1155.1" y2="554.7"/>
			</g>
			<g>
				<line class="st4" x1="443.3" y1="-373.9" x2="-1165.1" y2="554.7"/>
			</g>
			<g>
				<line class="st4" x1="433.3" y1="-373.9" x2="-1175.1" y2="554.7"/>
			</g>
			<g>
				<line class="st4" x1="423.3" y1="-373.9" x2="-1185.1" y2="554.7"/>
			</g>
			<g>
				<line class="st4" x1="413.3" y1="-373.9" x2="-1195.1" y2="554.7"/>
			</g>
			<g>
				<line class="st4" x1="403.3" y1="-373.9" x2="-1205.1" y2="554.7"/>
			</g>
			<g>
				<line class="st4" x1="393.3" y1="-373.9" x2="-1215.1" y2="554.7"/>
			</g>
			<g>
				<line class="st4" x1="383.3" y1="-373.9" x2="-1225.1" y2="554.7"/>
			</g>
			<g>
				<line class="st4" x1="373.3" y1="-373.9" x2="-1235.1" y2="554.7"/>
			</g>
			<g>
				<line class="st4" x1="363.3" y1="-373.9" x2="-1245.1" y2="554.7"/>
			</g>
			<g>
				<line class="st4" x1="353.3" y1="-373.9" x2="-1255.1" y2="554.7"/>
			</g>
			<g>
				<line class="st4" x1="343.3" y1="-373.9" x2="-1265.1" y2="554.7"/>
			</g>
			<g>
				<line class="st4" x1="333.3" y1="-373.9" x2="-1275.1" y2="554.7"/>
			</g>
			<g>
				<line class="st4" x1="323.3" y1="-373.9" x2="-1285.1" y2="554.7"/>
			</g>
			<g>
				<line class="st4" x1="313.3" y1="-373.9" x2="-1295.1" y2="554.7"/>
			</g>
			<g>
				<line class="st4" x1="303.3" y1="-373.9" x2="-1305.1" y2="554.7"/>
			</g>
			<g>
				<line class="st4" x1="293.3" y1="-373.9" x2="-1315.1" y2="554.7"/>
			</g>
			<g>
				<line class="st4" x1="283.3" y1="-373.9" x2="-1325.1" y2="554.7"/>
			</g>
			<g>
				<line class="st4" x1="273.3" y1="-373.9" x2="-1335.1" y2="554.7"/>
			</g>
			<g>
				<line class="st4" x1="263.3" y1="-373.9" x2="-1345.1" y2="554.7"/>
			</g>
			<g>
				<line class="st4" x1="253.3" y1="-373.9" x2="-1355.1" y2="554.7"/>
			</g>
			<g>
				<line class="st4" x1="243.3" y1="-373.9" x2="-1365.1" y2="554.7"/>
			</g>
			<g>
				<line class="st4" x1="233.3" y1="-373.9" x2="-1375.1" y2="554.7"/>
			</g>
			<g>
				<line class="st4" x1="223.3" y1="-373.9" x2="-1385.1" y2="554.7"/>
			</g>
			<g>
				<line class="st4" x1="213.3" y1="-373.9" x2="-1395.1" y2="554.7"/>
			</g>
			<g>
				<line class="st4" x1="203.3" y1="-373.9" x2="-1405.1" y2="554.7"/>
			</g>
			<g>
				<line class="st4" x1="193.3" y1="-373.9" x2="-1415.1" y2="554.7"/>
			</g>
			<g>
				<line class="st4" x1="183.3" y1="-373.9" x2="-1425.1" y2="554.7"/>
			</g>
			<g>
				<line class="st4" x1="173.3" y1="-373.9" x2="-1435.1" y2="554.7"/>
			</g>
			<g>
				<line class="st4" x1="163.3" y1="-373.9" x2="-1445.1" y2="554.7"/>
			</g>
			<g>
				<line class="st4" x1="153.3" y1="-373.9" x2="-1455.1" y2="554.7"/>
			</g>
			<g>
				<line class="st4" x1="143.3" y1="-373.9" x2="-1465.1" y2="554.7"/>
			</g>
			<g>
				<line class="st4" x1="133.3" y1="-373.9" x2="-1475.1" y2="554.7"/>
			</g>
			<g>
				<line class="st4" x1="123.3" y1="-373.9" x2="-1485.1" y2="554.7"/>
			</g>
			<g>
				<line class="st4" x1="113.3" y1="-373.9" x2="-1495.1" y2="554.7"/>
			</g>
			<g>
				<line class="st4" x1="103.3" y1="-373.9" x2="-1505.1" y2="554.7"/>
			</g>
			<g>
				<line class="st4" x1="93.3" y1="-373.9" x2="-1515.1" y2="554.7"/>
			</g>
			<g>
				<line class="st4" x1="83.3" y1="-373.9" x2="-1525.1" y2="554.7"/>
			</g>
			<g>
				<line class="st4" x1="73.3" y1="-373.9" x2="-1535.1" y2="554.7"/>
			</g>
			<g>
				<line class="st4" x1="63.3" y1="-373.9" x2="-1545.1" y2="554.7"/>
			</g>
			<g>
				<line class="st4" x1="53.3" y1="-373.9" x2="-1555.1" y2="554.7"/>
			</g>
			<g>
				<line class="st4" x1="43.3" y1="-373.9" x2="-1565.1" y2="554.7"/>
			</g>
		</g>
		<g>
			<g>
				<line class="st4" x1="-805.1" y1="-373.9" x2="803.3" y2="554.7"/>
			</g>
			<g>
				<line class="st4" x1="-815.1" y1="-373.9" x2="793.3" y2="554.7"/>
			</g>
			<g>
				<line class="st4" x1="-825.1" y1="-373.9" x2="783.3" y2="554.7"/>
			</g>
			<g>
				<line class="st4" x1="-835.1" y1="-373.9" x2="773.3" y2="554.7"/>
			</g>
			<g>
				<line class="st4" x1="-845.1" y1="-373.9" x2="763.3" y2="554.7"/>
			</g>
			<g>
				<line class="st4" x1="-855.1" y1="-373.9" x2="753.3" y2="554.7"/>
			</g>
			<g>
				<line class="st4" x1="-865.1" y1="-373.9" x2="743.3" y2="554.7"/>
			</g>
			<g>
				<line class="st4" x1="-875.1" y1="-373.9" x2="733.3" y2="554.7"/>
			</g>
			<g>
				<line class="st4" x1="-885.1" y1="-373.9" x2="723.3" y2="554.7"/>
			</g>
			<g>
				<line class="st4" x1="-895.1" y1="-373.9" x2="713.3" y2="554.7"/>
			</g>
			<g>
				<line class="st4" x1="-905.1" y1="-373.9" x2="703.3" y2="554.7"/>
			</g>
			<g>
				<line class="st4" x1="-915.1" y1="-373.9" x2="693.3" y2="554.7"/>
			</g>
			<g>
				<line class="st4" x1="-925.1" y1="-373.9" x2="683.3" y2="554.7"/>
			</g>
			<g>
				<line class="st4" x1="-935.1" y1="-373.9" x2="673.3" y2="554.7"/>
			</g>
			<g>
				<line class="st4" x1="-945.1" y1="-373.9" x2="663.3" y2="554.7"/>
			</g>
			<g>
				<line class="st4" x1="-955.1" y1="-373.9" x2="653.3" y2="554.7"/>
			</g>
			<g>
				<line class="st4" x1="-965.1" y1="-373.9" x2="643.3" y2="554.7"/>
			</g>
			<g>
				<line class="st4" x1="-975.1" y1="-373.9" x2="633.3" y2="554.7"/>
			</g>
			<g>
				<line class="st4" x1="-985.1" y1="-373.9" x2="623.3" y2="554.7"/>
			</g>
			<g>
				<line class="st4" x1="-995.1" y1="-373.9" x2="613.3" y2="554.7"/>
			</g>
			<g>
				<line class="st4" x1="-1005.1" y1="-373.9" x2="603.3" y2="554.7"/>
			</g>
			<g>
				<line class="st4" x1="-1015.1" y1="-373.9" x2="593.3" y2="554.7"/>
			</g>
			<g>
				<line class="st4" x1="-1025.1" y1="-373.9" x2="583.3" y2="554.7"/>
			</g>
			<g>
				<line class="st4" x1="-1035.1" y1="-373.9" x2="573.3" y2="554.7"/>
			</g>
			<g>
				<line class="st4" x1="-1045.1" y1="-373.9" x2="563.3" y2="554.7"/>
			</g>
			<g>
				<line class="st4" x1="-1055.1" y1="-373.9" x2="553.3" y2="554.7"/>
			</g>
			<g>
				<line class="st4" x1="-1065.1" y1="-373.9" x2="543.3" y2="554.7"/>
			</g>
			<g>
				<line class="st4" x1="-1075.1" y1="-373.9" x2="533.3" y2="554.7"/>
			</g>
			<g>
				<line class="st4" x1="-1085.1" y1="-373.9" x2="523.3" y2="554.7"/>
			</g>
			<g>
				<line class="st4" x1="-1095.1" y1="-373.9" x2="513.3" y2="554.7"/>
			</g>
			<g>
				<line class="st4" x1="-1105.1" y1="-373.9" x2="503.3" y2="554.7"/>
			</g>
			<g>
				<line class="st4" x1="-1115.1" y1="-373.9" x2="493.3" y2="554.7"/>
			</g>
			<g>
				<line class="st4" x1="-1125.1" y1="-373.9" x2="483.3" y2="554.7"/>
			</g>
			<g>
				<line class="st4" x1="-1135.1" y1="-373.9" x2="473.3" y2="554.7"/>
			</g>
			<g>
				<line class="st4" x1="-1145.1" y1="-373.9" x2="463.3" y2="554.7"/>
			</g>
			<g>
				<line class="st4" x1="-1155.1" y1="-373.9" x2="453.3" y2="554.7"/>
			</g>
			<g>
				<line class="st4" x1="-1165.1" y1="-373.9" x2="443.3" y2="554.7"/>
			</g>
			<g>
				<line class="st4" x1="-1175.1" y1="-373.9" x2="433.3" y2="554.7"/>
			</g>
			<g>
				<line class="st4" x1="-1185.1" y1="-373.9" x2="423.3" y2="554.7"/>
			</g>
			<g>
				<line class="st4" x1="-1195.1" y1="-373.9" x2="413.3" y2="554.7"/>
			</g>
			<g>
				<line class="st4" x1="-1205.1" y1="-373.9" x2="403.3" y2="554.7"/>
			</g>
			<g>
				<line class="st4" x1="-1215.1" y1="-373.9" x2="393.3" y2="554.7"/>
			</g>
			<g>
				<line class="st4" x1="-1225.1" y1="-373.9" x2="383.3" y2="554.7"/>
			</g>
			<g>
				<line class="st4" x1="-1235.1" y1="-373.9" x2="373.3" y2="554.7"/>
			</g>
			<g>
				<line class="st4" x1="-1245.1" y1="-373.9" x2="363.3" y2="554.7"/>
			</g>
			<g>
				<line class="st4" x1="-1255.1" y1="-373.9" x2="353.3" y2="554.7"/>
			</g>
			<g>
				<line class="st4" x1="-1265.1" y1="-373.9" x2="343.3" y2="554.7"/>
			</g>
			<g>
				<line class="st4" x1="-1275.1" y1="-373.9" x2="333.3" y2="554.7"/>
			</g>
			<g>
				<line class="st4" x1="-1285.1" y1="-373.9" x2="323.3" y2="554.7"/>
			</g>
			<g>
				<line class="st4" x1="-1295.1" y1="-373.9" x2="313.3" y2="554.7"/>
			</g>
			<g>
				<line class="st4" x1="-1305.1" y1="-373.9" x2="303.3" y2="554.7"/>
			</g>
			<g>
				<line class="st4" x1="-1315.1" y1="-373.9" x2="293.3" y2="554.7"/>
			</g>
			<g>
				<line class="st4" x1="-1325.1" y1="-373.9" x2="283.3" y2="554.7"/>
			</g>
			<g>
				<line class="st4" x1="-1335.1" y1="-373.9" x2="273.3" y2="554.7"/>
			</g>
			<g>
				<line class="st4" x1="-1345.1" y1="-373.9" x2="263.3" y2="554.7"/>
			</g>
			<g>
				<line class="st4" x1="-1355.1" y1="-373.9" x2="253.3" y2="554.7"/>
			</g>
			<g>
				<line class="st4" x1="-1365.1" y1="-373.9" x2="243.3" y2="554.7"/>
			</g>
			<g>
				<line class="st4" x1="-1375.1" y1="-373.9" x2="233.3" y2="554.7"/>
			</g>
			<g>
				<line class="st4" x1="-1385.1" y1="-373.9" x2="223.3" y2="554.7"/>
			</g>
			<g>
				<line class="st4" x1="-1395.1" y1="-373.9" x2="213.3" y2="554.7"/>
			</g>
			<g>
				<line class="st4" x1="-1405.1" y1="-373.9" x2="203.3" y2="554.7"/>
			</g>
			<g>
				<line class="st4" x1="-1415.1" y1="-373.9" x2="193.3" y2="554.7"/>
			</g>
			<g>
				<line class="st4" x1="-1425.1" y1="-373.9" x2="183.3" y2="554.7"/>
			</g>
			<g>
				<line class="st4" x1="-1435.1" y1="-373.9" x2="173.3" y2="554.7"/>
			</g>
			<g>
				<line class="st4" x1="-1445.1" y1="-373.9" x2="163.3" y2="554.7"/>
			</g>
			<g>
				<line class="st4" x1="-1455.1" y1="-373.9" x2="153.3" y2="554.7"/>
			</g>
			<g>
				<line class="st4" x1="-1465.1" y1="-373.9" x2="143.3" y2="554.7"/>
			</g>
			<g>
				<line class="st4" x1="-1475.1" y1="-373.9" x2="133.3" y2="554.7"/>
			</g>
			<g>
				<line class="st4" x1="-1485.1" y1="-373.9" x2="123.3" y2="554.7"/>
			</g>
			<g>
				<line class="st4" x1="-1495.1" y1="-373.9" x2="113.3" y2="554.7"/>
			</g>
			<g>
				<line class="st4" x1="-1505.1" y1="-373.9" x2="103.3" y2="554.7"/>
			</g>
			<g>
				<line class="st4" x1="-1515.1" y1="-373.9" x2="93.3" y2="554.7"/>
			</g>
			<g>
				<line class="st4" x1="-1525.1" y1="-373.9" x2="83.3" y2="554.7"/>
			</g>
			<g>
				<line class="st4" x1="-1535.1" y1="-373.9" x2="73.3" y2="554.7"/>
			</g>
			<g>
				<line class="st4" x1="-1545.1" y1="-373.9" x2="63.3" y2="554.7"/>
			</g>
			<g>
				<line class="st4" x1="-1555.1" y1="-373.9" x2="53.3" y2="554.7"/>
			</g>
			<g>
				<line class="st4" x1="-1565.1" y1="-373.9" x2="43.3" y2="554.7"/>
			</g>
		</g>
	</g>
</g>
<g id="outline" class="st0">
</g>
<g id="fill" class="st0">
</g>
<g id="test">
</g>
<g id="test2">
	<g>
		<g id="imagotipo_1_">
			<linearGradient id="SVGID_1_" gradientUnits="userSpaceOnUse" x1="0" y1="130.0357" x2="55.0658" y2="130.0357">
				<stop  offset="0" style="stop-color:#E7E7E7"/>
				<stop  offset="1" style="stop-color:#A6A6A6"/>
			</linearGradient>
			<polygon class="st12" points="0,146.2 0,81.4 55.1,113.5 55.1,178.7 			"/>
			<linearGradient id="SVGID_2_" gradientUnits="userSpaceOnUse" x1="55.0658" y1="125.5611" x2="125.5094" y2="125.5611">
				<stop  offset="0" style="stop-color:#333333"/>
				<stop  offset="1" style="stop-color:#7E858D"/>
			</linearGradient>
			<polygon class="st13" points="125.5,138 125.5,72.5 55.1,113.5 55.1,178.7 			"/>
			<linearGradient id="SVGID_3_" gradientUnits="userSpaceOnUse" x1="125.5094" y1="117.4338" x2="166.2622" y2="117.4338">
				<stop  offset="0" style="stop-color:#E7E7E7"/>
				<stop  offset="1" style="stop-color:#A6A6A6"/>
			</linearGradient>
			<polygon class="st14" points="166.3,162.4 166.3,97.2 125.5,72.5 125.5,138 			"/>
			<linearGradient id="SVGID_4_" gradientUnits="userSpaceOnUse" x1="166.2622" y1="109.6012" x2="236.3896" y2="109.6012">
				<stop  offset="0" style="stop-color:#333333"/>
				<stop  offset="1" style="stop-color:#7E858D"/>
			</linearGradient>
			<polygon class="st15" points="166.3,97.2 236.4,56.8 236.4,122 166.3,162.4 			"/>
			<polygon class="st16" points="125.5,138 55.1,97.4 55.1,178.7 			"/>
			<polygon class="st16" points="236.4,122 166.3,81.3 166.3,162.4 			"/>
			<linearGradient id="SVGID_5_" gradientUnits="userSpaceOnUse" x1="0" y1="57.0281" x2="236.3896" y2="57.0281">
				<stop  offset="0" style="stop-color:#3386FF"/>
				<stop  offset="1" style="stop-color:#2C4AB8"/>
			</linearGradient>
			<polygon class="st17" points="0,81.4 138.9,0.6 236.4,56.8 166.3,97.2 125.5,72.5 55.1,113.5 			"/>
			<polygon class="st18" points="152.9,56.9 166.8,64.9 180.7,56.9 166.8,48.7 			"/>
		</g>
		<g id="text_1_">
			<g>
				<path class="st19" d="M280.3,114h-0.2c-1.8,0-3.4,1-4.8,2.9v-1.3c0-0.4-0.1-0.7-0.4-1c-0.3-0.3-0.6-0.4-1-0.4
					c-0.4,0-0.7,0.1-1,0.4c-0.3,0.3-0.4,0.6-0.4,1v13.1c0,0.4,0.1,0.7,0.4,1c0.3,0.3,0.6,0.4,1,0.4c0.4,0,0.7-0.1,1-0.4
					c0.3-0.3,0.4-0.6,0.4-1v-9.2c0.5-0.8,1.2-1.4,2-1.9c0.8-0.5,1.7-0.7,2.7-0.7h0.2c0.4,0,0.7-0.1,1-0.4c0.3-0.2,0.4-0.5,0.4-0.9
					c0-0.4-0.1-0.7-0.4-1C281,114.2,280.7,114,280.3,114z"/>
				<path class="st19" d="M290.8,114c-2.4,0-4.2,0.8-5.5,2.5c-1.2,1.5-1.7,3.3-1.7,5.6c0,2.6,0.7,4.6,2.1,6c1.4,1.4,3.3,2.1,5.8,2.1
					c1.2,0,2.3-0.1,3.2-0.4c0.4-0.1,0.8-0.3,1.1-0.4c0.3-0.2,0.7-0.4,1.2-0.6c0.4-0.2,0.7-0.6,0.7-1.1c0-0.3-0.1-0.5-0.4-0.8
					c-0.2-0.2-0.5-0.3-0.8-0.3c-0.3,0-0.6,0.1-0.9,0.3c-1.1,0.5-2.4,0.8-3.9,0.8c-1.6,0-2.8-0.4-3.7-1.2c-0.9-0.8-1.4-1.9-1.6-3.3
					h10.3c0.4,0,0.8-0.1,1-0.4c0.3-0.3,0.4-0.6,0.4-1c0-2.1-0.6-3.9-1.9-5.4C294.8,114.8,293,114,290.8,114z M286.3,120.8
					c0-0.8,0.2-1.5,0.5-2c0.8-1.6,2.1-2.4,4-2.4c1.1,0,2.1,0.3,2.9,1c1,0.8,1.5,2,1.6,3.4H286.3z"/>
				<path class="st19" d="M312.5,114.5c-0.7-0.3-1.5-0.5-2.6-0.5c-1,0-2.1,0.3-3.3,1c-0.6,0.3-1.3,0.9-2.1,1.8v-1.2
					c0-0.4-0.1-0.7-0.4-1c-0.3-0.3-0.6-0.4-1-0.4c-0.4,0-0.7,0.1-1,0.4c-0.3,0.3-0.4,0.6-0.4,1v13.1c0,0.4,0.1,0.7,0.4,1
					c0.3,0.3,0.6,0.4,1,0.4c0.4,0,0.7-0.1,1-0.4c0.3-0.3,0.4-0.6,0.4-1v-9.1c1.5-1.9,3.2-2.9,5-2.9c1.2,0,2.1,0.3,2.6,1
					c0.5,0.7,0.8,1.6,0.8,2.7v8.3c0,0.4,0.1,0.7,0.4,1c0.3,0.3,0.6,0.4,1,0.4c0.4,0,0.7-0.1,1-0.4c0.3-0.3,0.4-0.6,0.4-1V120
					c0-1.7-0.5-3.1-1.4-4.2C313.7,115.3,313.2,114.8,312.5,114.5z"/>
				<path class="st19" d="M327.7,127.5c-0.3,0-0.5,0-0.8,0.1c-0.2,0.1-0.6,0.1-1.2,0.1c-0.5,0-0.9-0.1-1.2-0.2
					c-0.5-0.3-0.7-0.8-0.7-1.6v-9.2h3.4c0.3,0,0.6-0.1,0.9-0.3c0.2-0.2,0.3-0.5,0.3-0.9c0-0.3-0.1-0.6-0.3-0.9
					c-0.2-0.2-0.5-0.3-0.9-0.3h-3.4v-2.4c0-0.2-0.1-0.3-0.2-0.4c-0.1-0.1-0.2-0.2-0.4-0.2c-0.2,0-0.3,0.1-0.5,0.3l-4.1,4
					c-0.2,0.2-0.3,0.3-0.3,0.5c0,0.4,0.2,0.6,0.6,0.6h2.2v9.4c0,1.6,0.6,2.8,1.7,3.4c0.5,0.3,1,0.5,1.5,0.5c0.5,0.1,1.1,0.1,1.7,0.1
					c0.6,0,1.4-0.2,2.2-0.6c0.4-0.2,0.6-0.5,0.6-0.9c0-0.4-0.1-0.7-0.3-0.9C328.3,127.6,328,127.5,327.7,127.5z"/>
				<path class="st19" d="M337.7,114c-1.8,0-3.6,0.4-5.3,1.1c-0.5,0.2-0.8,0.6-0.8,1c0,0.4,0.1,0.8,0.3,1c0.2,0.2,0.4,0.3,0.6,0.3
					c0.2,0,0.4,0,0.5-0.1c1.5-0.5,2.9-0.7,4-0.7c1.4,0,2.4,0.3,3.1,0.9c0.7,0.6,1,1.5,1,2.9v0.2h-3.7c-2.3,0-4.1,0.5-5.3,1.4
					c-1.1,0.9-1.7,2-1.7,3.5c0,1.4,0.5,2.5,1.5,3.3c0.9,0.8,2.1,1.2,3.5,1.2c1.4,0,2.6-0.2,3.5-0.7c0.9-0.5,1.7-1,2.2-1.6v0.8
					c0,0.4,0.1,0.7,0.4,1c0.3,0.3,0.6,0.4,1,0.4c0.4,0,0.7-0.1,1-0.4c0.3-0.3,0.4-0.6,0.4-1V120c0-1.6-0.5-3-1.5-4.1
					C341.4,114.7,339.8,114,337.7,114z M341.3,125.5c-0.5,0.6-1.2,1.1-2,1.6c-0.8,0.5-1.7,0.7-2.7,0.7c-2.2,0-3.2-0.8-3.2-2.4
					c0-0.9,0.4-1.5,1.2-1.9c0.8-0.4,1.9-0.5,3.4-0.5h3.3V125.5z"/>
				<path class="st19" d="M369.6,107.5c-0.4,0-0.7,0.1-1,0.4c-0.3,0.3-0.4,0.6-0.4,1v7.5c-1.5-1.5-3.2-2.3-5.2-2.3
					c-2,0-3.7,0.7-5,2.1c-1.5,1.5-2.3,3.5-2.3,6c0,2.5,0.8,4.5,2.3,6c1.4,1.4,3.1,2.1,5,2.1c2,0,3.7-0.8,5.2-2.3v0.8
					c0,0.4,0.1,0.7,0.4,1c0.3,0.3,0.6,0.4,1,0.4c0.4,0,0.7-0.1,1-0.4c0.3-0.3,0.4-0.6,0.4-1v-19.7c0-0.4-0.1-0.7-0.4-1
					C370.4,107.6,370,107.5,369.6,107.5z M368.2,125.3c-1.4,1.5-3,2.3-4.8,2.3c-1.5,0-2.7-0.5-3.6-1.4c-1-1-1.4-2.4-1.4-4.1
					c0-0.9,0.1-1.7,0.4-2.4c0.8-2.1,2.3-3.1,4.6-3.1c1.8,0,3.4,0.8,4.8,2.3V125.3z"/>
				<path class="st19" d="M382.2,114c-2.4,0-4.2,0.8-5.5,2.5c-1.2,1.5-1.7,3.3-1.7,5.6c0,2.6,0.7,4.6,2.1,6c1.4,1.4,3.3,2.1,5.8,2.1
					c1.2,0,2.3-0.1,3.2-0.4c0.4-0.1,0.8-0.3,1.1-0.4c0.3-0.2,0.7-0.4,1.2-0.6c0.4-0.2,0.7-0.6,0.7-1.1c0-0.3-0.1-0.5-0.4-0.8
					c-0.2-0.2-0.5-0.3-0.8-0.3c-0.3,0-0.6,0.1-0.9,0.3c-1.1,0.5-2.4,0.8-3.9,0.8c-1.6,0-2.8-0.4-3.7-1.2c-0.9-0.8-1.4-1.9-1.6-3.3
					H388c0.4,0,0.8-0.1,1-0.4c0.3-0.3,0.4-0.6,0.4-1c0-2.1-0.6-3.9-1.9-5.4C386.2,114.8,384.4,114,382.2,114z M377.7,120.8
					c0-0.8,0.2-1.5,0.5-2c0.8-1.6,2.1-2.4,4-2.4c1.1,0,2.1,0.3,2.9,1c1,0.8,1.5,2,1.6,3.4H377.7z"/>
				<path class="st19" d="M419.3,114c-1.5,0-2.8,0.4-3.9,1.2c-0.5,0.4-1.1,1-1.7,1.9c-0.4-0.9-0.9-1.7-1.7-2.2c-0.9-0.6-1.9-1-3-1
					c-2.2,0-3.9,0.9-5.2,2.8v-1.2c0-0.4-0.1-0.7-0.4-1c-0.3-0.3-0.6-0.4-1-0.4c-0.4,0-0.7,0.1-1,0.4c-0.3,0.3-0.4,0.6-0.4,1v13.1
					c0,0.4,0.1,0.7,0.4,1c0.3,0.3,0.6,0.4,1,0.4c0.4,0,0.7-0.1,1-0.4c0.3-0.3,0.4-0.6,0.4-1v-9.1c1.1-1.9,2.6-2.9,4.4-2.9
					c1.2,0,2,0.3,2.4,1c0.5,0.6,0.7,1.6,0.7,2.9v8.2c0,0.4,0.1,0.7,0.4,1c0.3,0.3,0.6,0.4,1,0.4c0.4,0,0.7-0.1,1-0.4
					c0.3-0.3,0.4-0.6,0.4-1v-9.1c1.1-1.9,2.6-2.9,4.4-2.9c1.2,0,2,0.3,2.4,1c0.5,0.6,0.7,1.6,0.7,2.9v8.2c0,0.4,0.1,0.7,0.4,1
					c0.3,0.3,0.6,0.4,1,0.4c0.4,0,0.7-0.1,1-0.4c0.3-0.3,0.4-0.6,0.4-1v-8.8c0-1.6-0.4-2.9-1.2-4C422.2,114.7,420.9,114,419.3,114z"
					/>
				<path class="st19" d="M430.5,114.2c-0.4,0-0.7,0.1-1,0.4c-0.3,0.3-0.4,0.6-0.4,1v13.1c0,0.4,0.1,0.7,0.4,1
					c0.3,0.3,0.6,0.4,1,0.4s0.7-0.1,1-0.4c0.3-0.3,0.4-0.6,0.4-1v-13.1c0-0.4-0.1-0.7-0.4-1C431.3,114.3,430.9,114.2,430.5,114.2z"
					/>
				<path class="st19" d="M430.6,108h-0.2c-0.4,0-0.8,0.2-1.1,0.5c-0.3,0.3-0.5,0.7-0.5,1.1v0.1c0,0.4,0.2,0.8,0.5,1.1
					c0.3,0.3,0.7,0.5,1.1,0.5h0.2c0.4,0,0.8-0.2,1.1-0.5c0.3-0.3,0.5-0.7,0.5-1.1v-0.1c0-0.4-0.2-0.8-0.5-1.1
					C431.4,108.1,431.1,108,430.6,108z"/>
				<path class="st19" d="M447.6,114.5c-0.7-0.3-1.5-0.5-2.6-0.5c-1,0-2.1,0.3-3.3,1c-0.6,0.3-1.3,0.9-2.1,1.8v-1.2
					c0-0.4-0.1-0.7-0.4-1c-0.3-0.3-0.6-0.4-1-0.4c-0.4,0-0.7,0.1-1,0.4c-0.3,0.3-0.4,0.6-0.4,1v13.1c0,0.4,0.1,0.7,0.4,1
					c0.3,0.3,0.6,0.4,1,0.4c0.4,0,0.7-0.1,1-0.4c0.3-0.3,0.4-0.6,0.4-1v-9.1c1.5-1.9,3.2-2.9,5-2.9c1.2,0,2.1,0.3,2.6,1
					c0.5,0.7,0.8,1.6,0.8,2.7v8.3c0,0.4,0.1,0.7,0.4,1c0.3,0.3,0.6,0.4,1,0.4s0.7-0.1,1-0.4c0.3-0.3,0.4-0.6,0.4-1V120
					c0-1.7-0.5-3.1-1.4-4.2C448.8,115.3,448.2,114.8,447.6,114.5z"/>
				<path class="st19" d="M456.9,114.2c-0.4,0-0.7,0.1-1,0.4c-0.3,0.3-0.4,0.6-0.4,1v13.1c0,0.4,0.1,0.7,0.4,1
					c0.3,0.3,0.6,0.4,1,0.4s0.7-0.1,1-0.4c0.3-0.3,0.4-0.6,0.4-1v-13.1c0-0.4-0.1-0.7-0.4-1C457.6,114.3,457.3,114.2,456.9,114.2z"
					/>
				<path class="st19" d="M457,108h-0.2c-0.4,0-0.8,0.2-1.1,0.5c-0.3,0.3-0.5,0.7-0.5,1.1v0.1c0,0.4,0.2,0.8,0.5,1.1
					c0.3,0.3,0.7,0.5,1.1,0.5h0.2c0.4,0,0.8-0.2,1.1-0.5c0.3-0.3,0.5-0.7,0.5-1.1v-0.1c0-0.4-0.2-0.8-0.5-1.1
					C457.8,108.1,457.4,108,457,108z"/>
				<path class="st19" d="M471.1,114c-2,0-3.7,0.8-5.2,2.3v-7.5c0-0.4-0.1-0.7-0.4-1c-0.3-0.3-0.6-0.4-1-0.4c-0.4,0-0.7,0.1-1,0.4
					c-0.3,0.3-0.4,0.6-0.4,1v19.7c0,0.4,0.1,0.7,0.4,1c0.3,0.3,0.6,0.4,1,0.4c0.4,0,0.7-0.1,1-0.4c0.3-0.3,0.4-0.6,0.4-1v-0.8
					c1.5,1.5,3.2,2.3,5.2,2.3c2,0,3.6-0.7,5.1-2.1c1.5-1.5,2.3-3.5,2.3-6c0-2.4-0.8-4.4-2.3-6C474.8,114.7,473.1,114,471.1,114z
					 M475.4,124.5c-0.8,2.1-2.3,3.1-4.6,3.1c-1.8,0-3.4-0.8-4.8-2.3v-6.4c1.4-1.5,3-2.3,4.8-2.3c1.5,0,2.7,0.5,3.6,1.4
					c0.9,1,1.4,2.4,1.4,4.1C475.7,123,475.6,123.8,475.4,124.5z"/>
				<path class="st19" d="M489.2,114c-2.4,0-4.3,0.7-5.7,2.2c-1.4,1.5-2.1,3.4-2.1,5.8c0,2.4,0.7,4.4,2.1,5.8
					c1.4,1.5,3.3,2.2,5.7,2.2c2.4,0,4.2-0.7,5.7-2.2c1.4-1.5,2.1-3.4,2.1-5.8c0-2.4-0.7-4.3-2.1-5.8
					C493.5,114.8,491.6,114,489.2,114z M492.6,126.4c-0.5,0.4-1,0.7-1.6,0.9c-0.6,0.2-1.2,0.3-1.8,0.3s-1.2-0.1-1.8-0.3
					c-0.6-0.2-1.1-0.5-1.6-1c-0.5-0.4-0.9-1-1.2-1.7c-0.3-0.7-0.5-1.6-0.5-2.6s0.2-1.9,0.5-2.6c0.9-2,2.4-3,4.6-3
					c1.3,0,2.5,0.4,3.4,1.2c1.1,1,1.6,2.4,1.6,4.3C494.2,124,493.7,125.4,492.6,126.4z"/>
				<path class="st19" d="M513.9,107.5c-0.4,0-0.7,0.1-1,0.4c-0.3,0.3-0.4,0.6-0.4,1v7.5c-1.5-1.5-3.2-2.3-5.2-2.3
					c-2,0-3.7,0.7-5,2.1c-1.5,1.5-2.3,3.5-2.3,6c0,2.5,0.8,4.5,2.3,6c1.4,1.4,3.1,2.1,5,2.1c2,0,3.7-0.8,5.2-2.3v0.8
					c0,0.4,0.1,0.7,0.4,1c0.3,0.3,0.6,0.4,1,0.4c0.4,0,0.7-0.1,1-0.4c0.3-0.3,0.4-0.6,0.4-1v-19.7c0-0.4-0.1-0.7-0.4-1
					C514.6,107.6,514.3,107.5,513.9,107.5z M512.5,125.3c-1.4,1.5-3,2.3-4.8,2.3c-1.5,0-2.7-0.5-3.6-1.4c-1-1-1.4-2.4-1.4-4.1
					c0-0.9,0.1-1.7,0.4-2.4c0.8-2.1,2.3-3.1,4.6-3.1c1.8,0,3.4,0.8,4.8,2.3V125.3z"/>
				<path class="st19" d="M526.4,114c-2.4,0-4.2,0.8-5.5,2.5c-1.2,1.5-1.7,3.3-1.7,5.6c0,2.6,0.7,4.6,2.1,6c1.4,1.4,3.3,2.1,5.8,2.1
					c1.2,0,2.3-0.1,3.2-0.4c0.4-0.1,0.8-0.3,1.1-0.4c0.3-0.2,0.7-0.4,1.2-0.6c0.4-0.2,0.7-0.6,0.7-1.1c0-0.3-0.1-0.5-0.4-0.8
					c-0.2-0.2-0.5-0.3-0.8-0.3c-0.3,0-0.6,0.1-0.9,0.3c-1.1,0.5-2.4,0.8-3.9,0.8c-1.6,0-2.8-0.4-3.7-1.2c-0.9-0.8-1.4-1.9-1.6-3.3
					h10.3c0.4,0,0.8-0.1,1-0.4c0.3-0.3,0.4-0.6,0.4-1c0-2.1-0.6-3.9-1.9-5.4C530.5,114.8,528.7,114,526.4,114z M521.9,120.8
					c0-0.8,0.2-1.5,0.5-2c0.8-1.6,2.1-2.4,4-2.4c1.1,0,2.1,0.3,2.9,1c1,0.8,1.5,2,1.6,3.4H521.9z"/>
				<path class="st19" d="M550.4,114.2c-0.4,0-0.7,0.1-1,0.4c-0.3,0.3-0.4,0.6-0.4,1v0.8c-1.4-1.5-3.1-2.3-5.1-2.3
					c-2,0-3.7,0.6-5,1.9c-1.6,1.5-2.4,3.5-2.4,6c0,2.5,0.8,4.5,2.4,6c1.4,1.3,3,1.9,5,1.9c2,0,3.8-0.8,5.2-2.3v2c0,3.3-1.6,5-4.7,5
					c-1.8,0-3.5-0.4-5-1.2c-0.2-0.1-0.4-0.1-0.7-0.1c-0.3,0-0.5,0.1-0.7,0.4c-0.2,0.3-0.3,0.6-0.3,1c0,0.4,0.2,0.7,0.5,0.9
					c1.9,1.1,4.1,1.6,6.5,1.6c2.3,0,4.1-0.7,5.3-2.1c1.2-1.4,1.9-3.3,1.9-5.9v-13.6c0-0.4-0.1-0.7-0.4-1
					C551.1,114.3,550.8,114.2,550.4,114.2z M549,125.1c-1.4,1.5-2.9,2.3-4.4,2.3c-0.9,0-1.7-0.1-2.3-0.3c-2.1-0.8-3.1-2.4-3.1-5.1
					c0-1.8,0.5-3.1,1.5-4.1c0.5-0.4,1-0.8,1.6-1c0.6-0.2,1.4-0.3,2.3-0.3c0.9,0,1.7,0.2,2.4,0.7c0.7,0.5,1.4,1,1.9,1.6V125.1z"/>
				<path class="st19" d="M562.5,114c-1.8,0-3.6,0.4-5.3,1.1c-0.5,0.2-0.8,0.6-0.8,1c0,0.4,0.1,0.8,0.3,1s0.4,0.3,0.6,0.3
					s0.4,0,0.5-0.1c1.5-0.5,2.9-0.7,4-0.7c1.4,0,2.4,0.3,3.1,0.9c0.7,0.6,1,1.5,1,2.9v0.2h-3.7c-2.3,0-4.1,0.5-5.3,1.4
					c-1.1,0.9-1.7,2-1.7,3.5c0,1.4,0.5,2.5,1.5,3.3c0.9,0.8,2.1,1.2,3.5,1.2c1.4,0,2.6-0.2,3.5-0.7c0.9-0.5,1.7-1,2.2-1.6v0.8
					c0,0.4,0.1,0.7,0.4,1c0.3,0.3,0.6,0.4,1,0.4s0.7-0.1,1-0.4c0.3-0.3,0.4-0.6,0.4-1V120c0-1.6-0.5-3-1.5-4.1
					C566.1,114.7,564.5,114,562.5,114z M566,125.5c-0.5,0.6-1.2,1.1-2,1.6c-0.8,0.5-1.7,0.7-2.7,0.7c-2.2,0-3.2-0.8-3.2-2.4
					c0-0.9,0.4-1.5,1.2-1.9c0.8-0.4,1.9-0.5,3.4-0.5h3.3V125.5z"/>
				<path class="st19" d="M582.1,121.9c-0.7-0.3-1.4-0.6-2.2-0.8c-0.8-0.2-1.5-0.4-2.2-0.5s-1.2-0.4-1.7-0.7
					c-0.5-0.3-0.7-0.7-0.7-1.3c0-0.6,0.3-1.1,0.9-1.5s1.5-0.6,2.6-0.6c1.2,0,2.2,0.2,3.2,0.5c0.3,0.1,0.6,0.2,0.8,0.2
					c0.2,0,0.5-0.1,0.7-0.4c0.2-0.2,0.4-0.5,0.4-0.8c0-0.3-0.1-0.5-0.2-0.7c-0.2-0.2-0.4-0.4-0.7-0.5c-1.4-0.5-2.9-0.8-4.4-0.8
					c-1.9,0-3.4,0.5-4.5,1.4c-0.5,0.4-0.9,0.9-1.1,1.5c-0.2,0.6-0.4,1.3-0.4,2.1c0,0.8,0.2,1.5,0.7,2.1c0.4,0.6,1,1,1.7,1.4
					c0.7,0.3,1.4,0.6,2.2,0.8c0.8,0.2,1.5,0.4,2.2,0.6c0.7,0.2,1.2,0.4,1.7,0.6c0.4,0.2,0.7,0.6,0.7,1c0,1.4-1.1,2.2-3.4,2.2
					c-1.4,0-2.7-0.3-3.9-0.8c-0.4-0.2-0.7-0.2-0.9-0.2s-0.5,0.1-0.7,0.4c-0.2,0.3-0.3,0.6-0.3,0.9c0,0.4,0.2,0.7,0.5,0.9
					c1.6,0.9,3.5,1.4,5.5,1.4c1.9,0,3.4-0.4,4.4-1.3c1-0.8,1.5-1.9,1.5-3.2C584.5,124,583.7,122.7,582.1,121.9z"/>
			</g>
			<g>
				<g>
					<path class="st20" d="M298.6,44.9h-17.5c-1.3,0-2.4,0.5-3.3,1.4c-0.9,0.9-1.3,2.1-1.3,3.3v46.9c0,1.3,0.5,2.4,1.4,3.3
						c0.9,0.9,2,1.4,3.3,1.4c1.3,0,2.4-0.5,3.3-1.3c0.9-0.9,1.4-2,1.4-3.3v-9.1c0-3.3,2.7-6.1,6.1-6.1h6.7c7.4,0,13.1-2,16.9-5.9
						c3.2-3.2,4.8-7.4,4.8-12.4c0-5-1.6-9.2-4.8-12.4C311.7,46.9,306,44.9,298.6,44.9z M310.9,63.2c0,2.6-0.8,4.6-2.4,6.2l0,0
						c-2.1,2-5.7,3-10.6,3h-6c-3.3,0-6.1-2.7-6.1-6.1v-6.3c0-3.3,2.7-6.1,6.1-6.1h6c2.7,0,5,0.3,6.7,0.9
						C308.8,56.3,310.9,59,310.9,63.2z"/>
					<path class="st20" d="M358.9,64.6c-3.8-4-8.9-6-15.2-6c-6.3,0-11.4,2-15.2,6c-3.8,4-5.7,9.2-5.7,15.6c0,6.4,1.9,11.6,5.7,15.6
						c3.8,4,8.9,6,15.2,6c6.3,0,11.4-2,15.2-6c3.8-4,5.7-9.2,5.7-15.6C364.6,73.8,362.7,68.6,358.9,64.6z M351.5,90
						c-1.1,1-2.3,1.7-3.7,2.1c-2.8,0.9-5.4,0.9-8.1,0c-1.3-0.5-2.6-1.2-3.6-2.2c-1.1-1-2-2.3-2.7-3.9c-0.7-1.6-1.1-3.6-1.1-6
						c0-2.3,0.4-4.4,1-6c2-4.5,5.3-6.7,10.4-6.7c3.1,0,5.6,0.9,7.7,2.8c2.5,2.3,3.7,5.5,3.7,9.8C355.2,84.5,354,87.7,351.5,90z"/>
					<path class="st20" d="M377.2,42.1c-1.3,0-2.5,0.5-3.4,1.4c-0.9,0.9-1.4,2-1.4,3.4v49.8c0,1.3,0.5,2.4,1.4,3.3
						c0.9,0.9,2,1.4,3.4,1.4c1.3,0,2.5-0.5,3.4-1.4c0.9-0.9,1.4-2,1.4-3.3V46.9c0-1.4-0.5-2.5-1.4-3.4
						C379.7,42.6,378.6,42.1,377.2,42.1z"/>
					<path class="st20" d="M397.3,59c-1.3,0-2.5,0.5-3.4,1.4c-0.9,0.9-1.4,2-1.4,3.4v32.9c0,1.3,0.5,2.4,1.4,3.3
						c0.9,0.9,2,1.4,3.4,1.4c1.3,0,2.5-0.5,3.4-1.4c0.9-0.9,1.4-2,1.4-3.3V63.7c0-1.4-0.5-2.5-1.4-3.4C399.7,59.4,398.6,59,397.3,59
						z"/>
					<path class="st20" d="M401.2,44.8c-1-1-2.2-1.5-3.6-1.5h-0.5c-1.4,0-2.6,0.5-3.6,1.5c-1,1-1.5,2.2-1.5,3.6v0.3
						c0,1.4,0.5,2.6,1.5,3.6c1,1,2.2,1.5,3.6,1.5h0.5c1.4,0,2.6-0.5,3.6-1.5c1-1,1.5-2.2,1.5-3.6v-0.3
						C402.7,47,402.2,45.8,401.2,44.8z"/>
				</g>
				<g>
					<path class="st21" d="M452.7,74.9c-2-1.9-2.4-4.9-0.9-7.3c1.3-2.1,2-4.7,2-7.6c0-4.5-1.6-8.2-4.8-11c-3.1-2.7-7.7-4.1-13.6-4.1
						h-18.1c-1.3,0-2.4,0.5-3.3,1.4c-0.9,0.9-1.3,2.1-1.3,3.3v46.5c0,1.3,0.5,2.4,1.4,3.3c0.9,0.9,2,1.4,3.3,1.4h18.6
						c7.1,0,12.5-1.5,16-4.4c1.7-1.5,3-3.2,3.8-5.3c0.8-2,1.2-4.1,1.2-6.2c0-2.1-0.3-4-0.9-5.6C455.1,77.7,454.1,76.2,452.7,74.9z
						 M447.5,84.4c0,1.2-0.2,2.2-0.6,3.1c-1.2,2.9-5.1,4.4-11.8,4.4h-7c-3.3,0-6.1-2.7-6.1-6.1v-3c0-3.3,2.7-6.1,6.1-6.1h7.1
						c4.2,0,7.4,0.6,9.5,1.9C446.6,79.9,447.5,81.7,447.5,84.4z M422,62V60c0-3.3,2.7-6.1,6.1-6.1h6.7c3.2,0,5.7,0.6,7.4,1.9
						c1.6,1.2,2.4,2.8,2.4,4.8c0,1.1-0.2,2.1-0.5,3c-1.1,3-4.7,4.5-10.6,4.5h-5.4C424.7,68.1,422,65.4,422,62z"/>
					<path class="st21" d="M482.4,58.6c-6.3,0-11.4,2-15.2,6c-3.8,4-5.7,9.2-5.7,15.6c0,6.4,1.9,11.6,5.7,15.6c3.8,4,8.9,6,15.2,6
						c6.3,0,11.4-2,15.2-6c3.8-4,5.7-9.2,5.7-15.6c0-6.3-1.9-11.6-5.7-15.6C493.8,60.6,488.7,58.6,482.4,58.6z M472.1,74.1
						c2-4.5,5.3-6.7,10.4-6.7c3.1,0,5.6,0.9,7.7,2.8c2.5,2.3,3.7,5.5,3.7,9.8c0,4.4-1.2,7.7-3.7,10c-1.1,1-2.3,1.7-3.7,2.1
						c-2.8,0.9-5.4,0.9-8.1,0c-1.3-0.5-2.6-1.2-3.6-2.2l0,0c-1.1-1-2-2.3-2.7-3.9c-0.7-1.6-1.1-3.6-1.1-6S471.4,75.7,472.1,74.1z"/>
					<path class="st21" d="M544.6,42.1c-1.3,0-2.5,0.5-3.4,1.4c-0.9,0.9-1.4,2-1.4,3.4v11.6c0,1.8-1.9,2.9-3.5,2.1
						c-2.6-1.3-5.4-2-8.4-2c-5.3,0-9.9,1.9-13.6,5.7c-4.1,4.1-6.2,9.5-6.2,15.9c0,6.6,2.1,11.9,6.2,16c3.8,3.7,8.4,5.6,13.6,5.6
						c3.5,0,6.7-0.9,9.7-2.7c1.1-0.7,2.4-0.4,3.2,0.6c0.1,0.1,0.2,0.3,0.3,0.4c0.9,0.9,2,1.4,3.4,1.4c1.3,0,2.5-0.5,3.4-1.4
						c0.9-0.9,1.4-2,1.4-3.3V46.9c0-1.4-0.5-2.5-1.4-3.4C547,42.6,545.9,42.1,544.6,42.1z M539.8,73.6v13.2c0,0.7-0.3,1.3-0.8,1.8
						c-3,2.8-6.3,4.2-10.1,4.2c-3.5,0-6.1-1-8.1-3.1c-2.2-2.3-3.3-5.4-3.3-9.5c0-2.1,0.3-4,0.9-5.6c1.7-4.7,5.1-7,10.4-7
						c3.8,0,7.1,1.4,10.1,4.2C539.6,72.3,539.8,72.9,539.8,73.6z"/>
					<path class="st21" d="M594.4,82.5c0.9-0.9,1.3-2,1.3-3.3c0-5.6-1.7-10.5-5-14.3c-3.6-4.2-8.4-6.3-14.5-6.3
						c-6.4,0-11.4,2.3-14.9,6.8c-3.1,3.9-4.6,8.9-4.6,14.8c0,6.8,1.9,12.1,5.6,15.9c3.7,3.8,8.9,5.7,15.5,5.7c3.1,0,5.9-0.4,8.3-1
						c1.1-0.3,2.1-0.7,3-1.1c0.9-0.4,1.9-0.9,3-1.5c1.5-0.8,2.3-2.2,2.3-4c0-1.1-0.5-2-1.3-2.8c-1.6-1.5-3.3-1.5-5.7-0.3
						c-2.5,1.2-5.6,1.9-9.3,1.9c-3.6,0-6.4-0.9-8.4-2.7l0,0c-0.9-0.8-1.6-1.7-2.1-2.7c-0.8-1.5,0.3-3.4,2-3.4h21.3
						C592.3,83.8,593.5,83.4,594.4,82.5z M567.3,72.4c1.9-3.6,4.8-5.4,8.9-5.4c2.6,0,4.7,0.8,6.6,2.3c1,0.9,1.8,1.9,2.4,3.1
						c0.7,1.5-0.4,3.3-2.1,3.3h-13.7C567.7,75.7,566.5,73.9,567.3,72.4C567.3,72.4,567.3,72.4,567.3,72.4z"/>
					<path class="st21" d="M638.6,59.3c-0.1-0.1-0.2-0.1-0.3-0.1c-2-0.5-3.7-0.1-5,1.2c-0.3,0.4-0.6,0.7-0.8,1.2
						c-0.3,0.6-1.1,0.8-1.7,0.4c-3.1-2.2-6.6-3.3-10.5-3.3c-5.3,0-9.8,1.8-13.5,5.2c-4.3,4-6.5,9.3-6.5,15.9c0,6.6,2.2,12,6.4,15.9
						c3.7,3.5,8.2,5.2,13.3,5.2c3.7,0,7.1-1,10.1-2.9c0.8-0.5,1.8,0.1,1.8,1v0c0,7.7-3.3,11.3-10.5,11.3c-4.3,0-8.4-0.9-12.2-2.8
						c-0.7-0.3-1.4-0.4-2.2-0.4c-1,0-1.9,0.5-2.8,1.4c-0.8,0.9-1.2,2-1.2,3.3c0,1.4,0.7,2.6,2,3.4c5,2.7,10.7,4.1,17,4.1
						c6.1,0,10.9-1.9,14.3-5.6c3.3-3.7,5-9,5-15.7V63.7C641.4,61.9,640.4,60.4,638.6,59.3z M622.1,92.1c-2.1,0-3.9-0.3-5.3-0.8
						c-4.8-1.7-7.1-5.5-7.1-11.6c0-4.1,1.1-7.3,3.4-9.4c1-1,2.3-1.7,3.7-2.2c1.4-0.5,3.2-0.8,5.3-0.8c2,0,3.8,0.5,5.5,1.5
						c1.4,0.9,2.8,1.9,4,3.1c0.2,0.2,0.4,0.5,0.4,0.9v13.8c0,0.3-0.1,0.6-0.4,0.8C628.4,90.5,625.3,92.1,622.1,92.1z"/>
					<path class="st21" d="M667.1,58.6c-4.7,0-9.4,1-13.8,2.9c-2.3,1-2.7,2.5-2.7,3.7c0,1.5,0.4,2.6,1.2,3.4
						c0.8,0.8,1.6,1.1,2.5,1.1c0.6,0,1.2-0.1,1.8-0.2c3.7-1.2,7-1.8,9.8-1.8c3.2,0,5.5,0.6,6.9,1.9c0.1,0.1,0.2,0.2,0.3,0.3
						c1.9,2.1,0.3,5.5-2.5,5.5h-3.8c-6,0-10.8,1.3-14.1,3.8c-3.2,2.4-4.8,5.7-4.8,9.9c0,3.8,1.4,7,4.1,9.4c2.6,2.2,5.8,3.4,9.6,3.4
						c3.8,0,6.9-0.7,9.4-2c0.3-0.2,0.6-0.3,0.9-0.5c1.4-0.8,3-0.5,4.1,0.6c0,0,0.1,0.1,0.1,0.1c0.9,0.9,2,1.4,3.3,1.4
						c1.3,0,2.4-0.5,3.3-1.3c0.9-0.9,1.4-2,1.4-3.3V74.9c0-4.4-1.4-8.2-4.2-11.2C677,60.3,672.6,58.6,667.1,58.6z M674.8,86.7
						L674.8,86.7c0,0.9-0.4,1.9-1.1,2.5c-1,0.8-2.1,1.6-3.4,2.3c-1.9,1.1-3.9,1.6-6.1,1.6c-6.2,0-6.9-2.8-6.9-4.9
						c0-1.7,0.7-2.8,2.3-3.5c1.9-0.8,4.6-1.3,8-1.3h3.8C673.3,83.4,674.8,84.8,674.8,86.7z"/>
					<path class="st21" d="M717.1,78.5c-1.8-0.9-3.7-1.5-5.8-2c-2-0.5-3.8-0.9-5.5-1.4c-1.6-0.4-2.9-1-3.9-1.6
						c-0.8-0.5-1.1-1.1-1.1-2.1c0-1,0.6-1.9,1.7-2.7c1.3-0.9,3.3-1.3,5.9-1.3c2.8,0,5.4,0.4,7.7,1.1c0.9,0.3,1.7,0.4,2.4,0.4
						c0.9,0,1.8-0.4,2.6-1.3c0.8-0.8,1.2-1.8,1.2-2.8c0-0.9-0.3-1.8-0.8-2.6c-0.5-0.8-1.3-1.3-2.3-1.7c-3.7-1.3-7.6-2-11.5-2
						c-5.1,0-9.1,1.3-12.1,3.8c-1.4,1.2-2.4,2.6-3.1,4.3c-0.7,1.6-1,3.6-1,5.8c0,2.3,0.7,4.3,2,5.9c1.2,1.5,2.8,2.8,4.7,3.7
						c1.8,0.9,3.7,1.6,5.8,2.1c2,0.5,3.8,1,5.5,1.4c1.6,0.4,3,0.9,4,1.5c0.9,0.5,1,1,1,1.5c0,1.2,0,4.2-7.3,4.2
						c-3.3,0-6.4-0.6-9.2-1.9c-1.1-0.5-2-0.7-2.9-0.7c-0.7,0-1.8,0.2-2.8,1.4c-0.8,0.9-1.2,1.9-1.2,3.2c0,0.9,0.3,2.2,1.8,3.3
						l0.1,0.1c4.3,2.4,9.2,3.6,14.6,3.6c5,0,9-1.2,11.9-3.7c2.7-2.3,4.1-5.3,4.1-8.9C723.8,84.3,721.5,80.8,717.1,78.5z"/>
				</g>
			</g>
		</g>
	</g>
</g>
</svg>
