<?xml version="1.0" encoding="utf-8"?>
<!-- Generator: Adobe Illustrator 19.1.1, SVG Export Plug-In . SVG Version: 6.00 Build 0)  -->
<svg version="1.1" id="Capa_1" xmlns="http://www.w3.org/2000/svg" xmlns:xlink="http://www.w3.org/1999/xlink" x="0px" y="0px"
	 viewBox="0 0 252 100" style="enable-background:new 0 0 252 100;" xml:space="preserve">
<style type="text/css">
	.st0{fill:#EBEBEB;}
</style>
<g>
	<rect x="60.6" y="37.8" class="st0" width="18.3" height="5.5"/>
	<path class="st0" d="M193,16.4l-53,25.8v-7.9L70,0L0,34.4V100h134h6h112V45.2L193,16.4z M110.7,92H29.3v-7h81.4V92z M110.7,81.9
		H29.3v-6h81.4V81.9z M110.7,72.9H29.3v-7h81.4V72.9z M110.7,62.9H29.3v-8.1h81.4V62.9z M134,45.2V95h-20.6V52H26.5v43H5V37.8
		L69.5,6.1L134,37.8V45.2z M227.1,93H159v-5h68.1V93z M227.1,85H159v-6h68.1V85z M227.1,76.9H159v-6h68.1V76.9z M227.1,68.9H159
		v-6.7h68.1V68.9z M247,96h-17.6V59.9h-72.7V96H140V47.5l53-26L247,48V96z"/>
</g>
</svg>
