<?xml version="1.0" encoding="UTF-8" standalone="no"?>
<svg width="20px" height="15px" viewBox="0 0 20 15" version="1.1" xmlns="http://www.w3.org/2000/svg" xmlns:xlink="http://www.w3.org/1999/xlink">
    <!-- Generator: sketchtool 3.6.1 (26313) - http://www.bohemiancoding.com/sketch -->
    <title>nav</title>
    <desc>Created with sketchtool.</desc>
    <defs></defs>
    <g id="Pagina-principal" stroke="none" stroke-width="1" fill="none" fill-rule="evenodd">
        <g id="Pagina-Principal---xs" transform="translate(-285.000000, -16.000000)" fill="#FFFFFF">
            <g id="header_xs-2">
                <path d="M285.857143,18.8571429 L304.142857,18.8571429 C304.931429,18.8571429 305,18.2185714 305,17.4285714 C305,16.6385714 304.931429,16 304.142857,16 L285.857143,16 C285.068571,16 285,16.6385714 285,17.4285714 C285,18.2185714 285.068571,18.8571429 285.857143,18.8571429 M304.142857,27.4285714 L285.857143,27.4285714 C285.068571,27.4285714 285,28.0671429 285,28.8571429 C285,29.6471429 285.068571,30.2857143 285.857143,30.2857143 L304.142857,30.2857143 C304.931429,30.2857143 305,29.6471429 305,28.8571429 C305,28.0671429 304.931429,27.4285714 304.142857,27.4285714 M304.142857,21.7142857 L285.857143,21.7142857 C285.068571,21.7142857 285,22.3528571 285,23.1428571 C285,23.9328571 285.068571,24.5714286 285.857143,24.5714286 L304.142857,24.5714286 C304.931429,24.5714286 305,23.9328571 305,23.1428571 C305,22.3528571 304.931429,21.7142857 304.142857,21.7142857" id="nav"></path>
            </g>
        </g>
    </g>
</svg>