<?xml version="1.0" encoding="UTF-8" standalone="no"?>
<svg width="45px" height="45px" viewBox="0 0 45 45" version="1.1" xmlns="http://www.w3.org/2000/svg" xmlns:xlink="http://www.w3.org/1999/xlink">
    <!-- Generator: sketchtool 3.6.1 (26313) - http://www.bohemiancoding.com/sketch -->
    <title>slider-right-white</title>
    <desc>Created with sketchtool.</desc>
    <defs></defs>
    <g id="Instalaciones-y-Servicios" stroke="none" stroke-width="1" fill="none" fill-rule="evenodd">
        <g id="Instalaciones-y-Sevicios---lg" transform="translate(-1225.000000, -1594.000000)" fill="#FFFFFF">
            <g id="galeria" transform="translate(150.000000, 1229.000000)">
                <path d="M1097.5,407.079687 C1108.31172,407.079687 1117.07969,398.314062 1117.07969,387.5 C1117.07969,376.685938 1108.31172,367.920313 1097.5,367.920313 C1086.68359,367.920313 1077.92031,376.685938 1077.92031,387.5 C1077.91797,398.314062 1086.68359,407.079687 1097.5,407.079687 L1097.5,407.079687 Z M1097.5,365 C1109.92656,365 1120,375.073438 1120,387.5 C1120,399.928906 1109.92656,410 1097.5,410 C1085.07344,410 1075,399.928906 1075,387.5 C1075,375.073438 1085.07344,365 1097.5,365 L1097.5,365 Z M1099.84375,387.5 L1094.44844,381.626562 C1093.98906,381.1625 1093.98906,380.410156 1094.44844,379.94375 C1094.90781,379.482031 1095.65547,379.482031 1096.1125,379.94375 L1102.69141,386.65625 C1103.15078,387.122656 1103.15078,387.875 1102.69141,388.336719 L1096.1125,395.049219 C1095.65547,395.515625 1094.90781,395.513281 1094.44844,395.049219 C1093.98906,394.5875 1093.98906,393.835156 1094.44844,393.36875 L1099.84375,387.5 Z" id="slider-right-white"></path>
            </g>
        </g>
    </g>
</svg>