<?xml version="1.0" encoding="UTF-8" standalone="no"?>
<svg width="45px" height="45px" viewBox="0 0 45 45" version="1.1" xmlns="http://www.w3.org/2000/svg" xmlns:xlink="http://www.w3.org/1999/xlink">
    <!-- Generator: sketchtool 3.6.1 (26313) - http://www.bohemiancoding.com/sketch -->
    <title>slider-left-black</title>
    <desc>Created with sketchtool.</desc>
    <defs></defs>
    <g id="Tamaños-y-Precios" stroke="none" stroke-width="1" fill="none" fill-rule="evenodd">
        <g id="Tamaños-y-Precios---lg" transform="translate(-247.000000, -1198.000000)" fill="#3E4349">
            <g id="Content" transform="translate(150.000000, 660.000000)">
                <path d="M119.5,580.079687 C108.683594,580.079687 99.9203125,571.314062 99.9203125,560.5 C99.9203125,549.685938 108.683594,540.920313 119.5,540.920313 C130.311719,540.920313 139.079687,549.685938 139.079687,560.5 C139.079687,571.314062 130.311719,580.079687 119.5,580.079687 M119.5,538 C107.073437,538 97,548.073437 97,560.5 C97,572.928906 107.073437,583 119.5,583 C131.926562,583 142,572.928906 142,560.5 C142,548.073437 131.926562,538 119.5,538 M122.551563,552.94375 C122.092187,552.482031 121.344531,552.482031 120.8875,552.94375 L114.308594,559.658594 C113.849219,560.125 113.849219,560.877344 114.308594,561.339062 L120.8875,568.051563 C121.344531,568.517969 122.092187,568.515625 122.551563,568.051563 C123.010938,567.589844 123.010938,566.8375 122.551563,566.371094 L117.15625,560.5 L122.551563,554.626562 C123.010938,554.1625 123.010938,553.4125 122.551563,552.94375" id="slider-left-black"></path>
            </g>
        </g>
    </g>
</svg>