<?xml version="1.0" encoding="UTF-8" standalone="no"?>
<svg width="45px" height="45px" viewBox="0 0 45 45" version="1.1" xmlns="http://www.w3.org/2000/svg" xmlns:xlink="http://www.w3.org/1999/xlink">
    <!-- Generator: sketchtool 3.6.1 (26313) - http://www.bohemiancoding.com/sketch -->
    <title>slider-right-black</title>
    <desc>Created with sketchtool.</desc>
    <defs></defs>
    <g id="Tamaños-y-Precios" stroke="none" stroke-width="1" fill="none" fill-rule="evenodd">
        <g id="Tamaños-y-Precios---lg" transform="translate(-1148.000000, -1198.000000)" fill="#3E4349">
            <g id="Content" transform="translate(150.000000, 660.000000)">
                <path d="M1020.5,580.079687 C1031.31172,580.079687 1040.07969,571.314062 1040.07969,560.5 C1040.07969,549.685938 1031.31172,540.920313 1020.5,540.920313 C1009.68359,540.920313 1000.92031,549.685938 1000.92031,560.5 C1000.91797,571.314062 1009.68359,580.079687 1020.5,580.079687 L1020.5,580.079687 Z M1020.5,538 C1032.92656,538 1043,548.073437 1043,560.5 C1043,572.928906 1032.92656,583 1020.5,583 C1008.07344,583 998,572.928906 998,560.5 C998,548.073437 1008.07344,538 1020.5,538 L1020.5,538 Z M1022.84375,560.5 L1017.44844,554.626562 C1016.98906,554.1625 1016.98906,553.410156 1017.44844,552.94375 C1017.90781,552.482031 1018.65547,552.482031 1019.1125,552.94375 L1025.69141,559.65625 C1026.15078,560.122656 1026.15078,560.875 1025.69141,561.336719 L1019.1125,568.049219 C1018.65547,568.515625 1017.90781,568.513281 1017.44844,568.049219 C1016.98906,567.5875 1016.98906,566.835156 1017.44844,566.36875 L1022.84375,560.5 Z" id="slider-right-black"></path>
            </g>
        </g>
    </g>
</svg>