<?xml version="1.0" encoding="UTF-8" standalone="no"?>
<svg width="45px" height="45px" viewBox="0 0 45 45" version="1.1" xmlns="http://www.w3.org/2000/svg" xmlns:xlink="http://www.w3.org/1999/xlink">
    <!-- Generator: sketchtool 3.6.1 (26313) - http://www.bohemiancoding.com/sketch -->
    <title>slider-left-white</title>
    <desc>Created with sketchtool.</desc>
    <defs></defs>
    <g id="Instalaciones-y-Servicios" stroke="none" stroke-width="1" fill="none" fill-rule="evenodd">
        <g id="Instalaciones-y-Sevicios---lg" transform="translate(-170.000000, -1594.000000)" fill="#FFFFFF">
            <g id="galeria" transform="translate(150.000000, 1229.000000)">
                <path d="M42.5,407.079687 C31.6835938,407.079687 22.9203125,398.314062 22.9203125,387.5 C22.9203125,376.685938 31.6835938,367.920313 42.5,367.920313 C53.3117187,367.920313 62.0796875,376.685938 62.0796875,387.5 C62.0796875,398.314062 53.3117187,407.079687 42.5,407.079687 M42.5,365 C30.0734375,365 20,375.073438 20,387.5 C20,399.928906 30.0734375,410 42.5,410 C54.9265625,410 65,399.928906 65,387.5 C65,375.073438 54.9265625,365 42.5,365 M45.5515625,379.94375 C45.0921875,379.482031 44.3445313,379.482031 43.8875,379.94375 L37.3085938,386.658594 C36.8492188,387.125 36.8492188,387.877344 37.3085938,388.339063 L43.8875,395.051562 C44.3445313,395.517969 45.0921875,395.515625 45.5515625,395.051562 C46.0109375,394.589844 46.0109375,393.8375 45.5515625,393.371094 L40.15625,387.5 L45.5515625,381.626562 C46.0109375,381.1625 46.0109375,380.4125 45.5515625,379.94375" id="slider-left-white"></path>
            </g>
        </g>
    </g>
</svg>